ISO-10303-21;
HEADER;
FILE_DESCRIPTION (( 'STEP AP214' ),
    '1' );
FILE_NAME ('00_마이크로 서보_SG90.STEP',
    '2026-04-23T09:05:25',
    ( 'db01' ),
    ( '' ),
    'SwSTEP 2.0',
    'SolidWorks 2019',
    '' );
FILE_SCHEMA (( 'AUTOMOTIVE_DESIGN' ));
ENDSEC;

DATA;
#1 = EDGE_CURVE ( 'NONE', #213, #186, #304, .T. ) ;
#2 = ORIENTED_EDGE ( 'NONE', *, *, #614, .T. ) ;
#3 = VERTEX_POINT ( 'NONE', #452 ) ;
#4 = CARTESIAN_POINT ( 'NONE',  ( -0.8999999999999986899, 10.90000000000000036, 2.900000000000000799 ) ) ;
#5 = EDGE_LOOP ( 'NONE', ( #464, #544, #564, #514, #407, #177 ) ) ;
#6 = VECTOR ( 'NONE', #94, 1000.000000000000000 ) ;
#7 = ORIENTED_EDGE ( 'NONE', *, *, #282, .T. ) ;
#8 = CIRCLE ( 'NONE', #74, 0.8000000000000009326 ) ;
#9 = DIRECTION ( 'NONE',  ( -0.000000000000000000, -0.000000000000000000, -1.000000000000000000 ) ) ;
#10 = LINE ( 'NONE', #64, #449 ) ;
#11 = CARTESIAN_POINT ( 'NONE',  ( 11.25000000000000000, 0.000000000000000000, -6.149999999999996803 ) ) ;
#12 = EDGE_LOOP ( 'NONE', ( #115, #821 ) ) ;
#13 = LINE ( 'NONE', #467, #382 ) ;
#14 = CARTESIAN_POINT ( 'NONE',  ( 5.100000000000001421, 10.90000000000000036, -5.899999999999997691 ) ) ;
#15 = SURFACE_STYLE_FILL_AREA ( #695 ) ;
#16 = AXIS2_PLACEMENT_3D ( 'NONE', #610, #465, #376 ) ;
#17 = ORIENTED_EDGE ( 'NONE', *, *, #34, .F. ) ;
#18 = AXIS2_PLACEMENT_3D ( 'NONE', #284, #592, #441 ) ;
#19 = PRODUCT_CONTEXT ( 'NONE', #192, 'mechanical' ) ;
#20 = ADVANCED_FACE ( 'NONE', ( #668 ), #973, .T. ) ;
#21 = DIRECTION ( 'NONE',  ( 0.000000000000000000, 0.000000000000000000, 1.000000000000000000 ) ) ;
#22 = DIRECTION ( 'NONE',  ( -1.000000000000000000, -0.000000000000000000, -0.000000000000000000 ) ) ;
#23 = FACE_OUTER_BOUND ( 'NONE', #228, .T. ) ;
#24 = ORIENTED_EDGE ( 'NONE', *, *, #134, .F. ) ;
#25 = VECTOR ( 'NONE', #585, 1000.000000000000000 ) ;
#26 = CIRCLE ( 'NONE', #202, 1.350000000000000533 ) ;
#27 = LINE ( 'NONE', #642, #632 ) ;
#28 = DIRECTION ( 'NONE',  ( 0.000000000000000000, -0.000000000000000000, 1.000000000000000000 ) ) ;
#29 = DIRECTION ( 'NONE',  ( -0.000000000000000000, 1.000000000000000000, -0.000000000000000000 ) ) ;
#30 = ORIENTED_EDGE ( 'NONE', *, *, #870, .T. ) ;
#31 = DIRECTION ( 'NONE',  ( 0.000000000000000000, 0.000000000000000000, 1.000000000000000000 ) ) ;
#32 = CYLINDRICAL_SURFACE ( 'NONE', #215, 2.429999999999998384 ) ;
#33 = CARTESIAN_POINT ( 'NONE',  ( 5.100000000000001421, 6.799999999999999822, 0.000000000000000000 ) ) ;
#34 = EDGE_CURVE ( 'NONE', #832, #402, #221, .T. ) ;
#35 = ORIENTED_EDGE ( 'NONE', *, *, #121, .F. ) ;
#36 = COLOUR_RGB ( '',0.2509803921568627416, 0.2509803921568627416, 0.2509803921568627416 ) ;
#37 = CARTESIAN_POINT ( 'NONE',  ( 13.75000000000000178, 0.000000000000000000, -1.350000000000000533 ) ) ;
#38 = CIRCLE ( 'NONE', #797, 1.350000000000000533 ) ;
#39 = CARTESIAN_POINT ( 'NONE',  ( -16.10000000000000142, 0.000000000000000000, -6.150000000000000355 ) ) ;
#40 = CARTESIAN_POINT ( 'NONE',  ( 11.25000000000000000, -16.00000000000000000, -6.150000000000000355 ) ) ;
#41 = ORIENTED_EDGE ( 'NONE', *, *, #661, .T. ) ;
#42 = AXIS2_PLACEMENT_3D ( 'NONE', #488, #380, #818 ) ;
#43 = CARTESIAN_POINT ( 'NONE',  ( -0.8999999999999985789, -6.348383931114878642, -2.899999999999999023 ) ) ;
#44 = CIRCLE ( 'NONE', #727, 0.8000000000000009326 ) ;
#45 = CARTESIAN_POINT ( 'NONE',  ( 11.25000000000000000, 2.399999999999999911, 6.149999999999996803 ) ) ;
#46 = VERTEX_POINT ( 'NONE', #11 ) ;
#47 = CARTESIAN_POINT ( 'NONE',  ( -11.25000000000000000, -16.00000000000000000, -6.150000000000000355 ) ) ;
#48 = EDGE_CURVE ( 'NONE', #722, #754, #255, .T. ) ;
#49 = LINE ( 'NONE', #646, #846 ) ;
#50 = ORIENTED_EDGE ( 'NONE', *, *, #48, .F. ) ;
#51 = AXIS2_PLACEMENT_3D ( 'NONE', #217, #66, #671 ) ;
#52 = LINE ( 'NONE', #136, #117 ) ;
#53 = FACE_OUTER_BOUND ( 'NONE', #851, .T. ) ;
#54 = EDGE_CURVE ( 'NONE', #722, #313, #96, .T. ) ;
#55 = ORIENTED_EDGE ( 'NONE', *, *, #485, .F. ) ;
#56 = PLANE ( 'NONE',  #873 ) ;
#57 = AXIS2_PLACEMENT_3D ( 'NONE', #815, #58, #663 ) ;
#58 = DIRECTION ( 'NONE',  ( 0.000000000000000000, 1.000000000000000000, -0.000000000000000000 ) ) ;
#59 = COLOUR_RGB ( '',0.2509803921568627416, 0.2509803921568627416, 0.2509803921568627416 ) ;
#60 = VERTEX_POINT ( 'NONE', #567 ) ;
#61 = DIRECTION ( 'NONE',  ( -0.000000000000000000, 1.000000000000000000, 0.000000000000000000 ) ) ;
#62 = DIRECTION ( 'NONE',  ( 0.000000000000000000, 1.000000000000000000, 0.000000000000000000 ) ) ;
#63 = ORIENTED_EDGE ( 'NONE', *, *, #978, .F. ) ;
#64 = CARTESIAN_POINT ( 'NONE',  ( -11.25000000000000000, -16.00000000000000000, -6.150000000000000355 ) ) ;
#65 = EDGE_CURVE ( 'NONE', #510, #234, #466, .T. ) ;
#66 = DIRECTION ( 'NONE',  ( 1.445602896647339163E-16, -0.000000000000000000, 1.000000000000000000 ) ) ;
#67 = CARTESIAN_POINT ( 'NONE',  ( -16.10000000000000142, 0.000000000000000000, 6.150000000000000355 ) ) ;
#68 = CARTESIAN_POINT ( 'NONE',  ( 5.100000000000001421, 10.90000000000000036, 0.000000000000000000 ) ) ;
#69 = ORIENTED_EDGE ( 'NONE', *, *, #515, .F. ) ;
#70 = LINE ( 'NONE', #982, #546 ) ;
#71 = ORIENTED_EDGE ( 'NONE', *, *, #72, .F. ) ;
#72 = EDGE_CURVE ( 'NONE', #131, #413, #639, .T. ) ;
#73 = DIRECTION ( 'NONE',  ( -1.000000000000000000, 0.000000000000000000, 1.445602896647339163E-16 ) ) ;
#74 = AXIS2_PLACEMENT_3D ( 'NONE', #372, #677, #411 ) ;
#75 = EDGE_LOOP ( 'NONE', ( #718, #278 ) ) ;
#76 = ORIENTED_EDGE ( 'NONE', *, *, #272, .T. ) ;
#77 = EDGE_CURVE ( 'NONE', #60, #940, #342, .T. ) ;
#78 = PLANE ( 'NONE',  #513 ) ;
#79 = ORIENTED_EDGE ( 'NONE', *, *, #682, .F. ) ;
#80 = ORIENTED_EDGE ( 'NONE', *, *, #89, .T. ) ;
#81 = AXIS2_PLACEMENT_3D ( 'NONE', #569, #497, #787 ) ;
#82 = CIRCLE ( 'NONE', #760, 1.350000000000000533 ) ;
#83 = DIRECTION ( 'NONE',  ( 0.000000000000000000, 0.000000000000000000, -1.000000000000000000 ) ) ;
#84 = ORIENTED_EDGE ( 'NONE', *, *, #199, .T. ) ;
#85 = VERTEX_POINT ( 'NONE', #181 ) ;
#86 = DIRECTION ( 'NONE',  ( 0.000000000000000000, 1.000000000000000000, 0.000000000000000000 ) ) ;
#87 = DIRECTION ( 'NONE',  ( 1.000000000000000000, 0.000000000000000000, 0.000000000000000000 ) ) ;
#88 = SURFACE_SIDE_STYLE ('',( #15 ) ) ;
#89 = EDGE_CURVE ( 'NONE', #983, #46, #572, .T. ) ;
#90 = AXIS2_PLACEMENT_3D ( 'NONE', #837, #174, #629 ) ;
#91 = EDGE_LOOP ( 'NONE', ( #17, #836, #558, #944 ) ) ;
#92 = AXIS2_PLACEMENT_3D ( 'NONE', #948, #769, #338 ) ;
#93 = SHAPE_DEFINITION_REPRESENTATION ( #886, #353 ) ;
#94 = DIRECTION ( 'NONE',  ( 0.000000000000000000, -0.000000000000000000, 1.000000000000000000 ) ) ;
#95 = CARTESIAN_POINT ( 'NONE',  ( 5.100000000000001421, 10.90000000000000036, 0.000000000000000000 ) ) ;
#96 = LINE ( 'NONE', #185, #649 ) ;
#97 = EDGE_CURVE ( 'NONE', #237, #764, #774, .T. ) ;
#98 = ORIENTED_EDGE ( 'NONE', *, *, #194, .T. ) ;
#99 = VECTOR ( 'NONE', #414, 1000.000000000000000 ) ;
#100 = PLANE ( 'NONE',  #654 ) ;
#101 = CARTESIAN_POINT ( 'NONE',  ( -0.8999999999999989120, 6.800000000000000711, 2.900000000000000799 ) ) ;
#102 = ORIENTED_EDGE ( 'NONE', *, *, #932, .F. ) ;
#103 = FACE_OUTER_BOUND ( 'NONE', #872, .T. ) ;
#104 = FACE_OUTER_BOUND ( 'NONE', #906, .T. ) ;
#105 = VERTEX_POINT ( 'NONE', #938 ) ;
#106 = VECTOR ( 'NONE', #688, 1000.000000000000000 ) ;
#107 = DIRECTION ( 'NONE',  ( -0.000000000000000000, -1.000000000000000000, -0.000000000000000000 ) ) ;
#108 = CARTESIAN_POINT ( 'NONE',  ( 5.100000000000001421, 6.800000000000000711, 2.899999999999999911 ) ) ;
#109 = ADVANCED_FACE ( 'NONE', ( #323, #477 ), #839, .T. ) ;
#110 = DIRECTION ( 'NONE',  ( 0.000000000000000000, 0.000000000000000000, 1.000000000000000000 ) ) ;
#111 = EDGE_LOOP ( 'NONE', ( #369, #469, #209, #191 ) ) ;
#112 = DIRECTION ( 'NONE',  ( 0.000000000000000000, 0.000000000000000000, 1.000000000000000000 ) ) ;
#113 = PLANE ( 'NONE',  #603 ) ;
#114 = CARTESIAN_POINT ( 'NONE',  ( 16.10000000000000142, 2.399999999999999911, -6.149999999999995914 ) ) ;
#115 = ORIENTED_EDGE ( 'NONE', *, *, #978, .T. ) ;
#116 = ADVANCED_FACE ( 'NONE', ( #927 ), #860, .T. ) ;
#117 = VECTOR ( 'NONE', #819, 1000.000000000000000 ) ;
#118 = DIRECTION ( 'NONE',  ( 0.000000000000000000, 0.000000000000000000, -1.000000000000000000 ) ) ;
#119 = LINE ( 'NONE', #942, #482 ) ;
#120 = ORIENTED_EDGE ( 'NONE', *, *, #1, .T. ) ;
#121 = EDGE_CURVE ( 'NONE', #200, #856, #283, .T. ) ;
#122 = VECTOR ( 'NONE', #541, 1000.000000000000000 ) ;
#123 = MANIFOLD_SOLID_BREP ( '컷-돌출3', #333 ) ;
#124 = CARTESIAN_POINT ( 'NONE',  ( 11.25000000000000000, 6.799999999999999822, -6.150000000000000355 ) ) ;
#125 = AXIS2_PLACEMENT_3D ( 'NONE', #499, #720, #571 ) ;
#126 = DIRECTION ( 'NONE',  ( 1.000000000000000000, 0.000000000000000000, 0.000000000000000000 ) ) ;
#127 = ORIENTED_EDGE ( 'NONE', *, *, #614, .F. ) ;
#128 = PRODUCT_RELATED_PRODUCT_CATEGORY ( 'part', '', ( #225 ) ) ;
#129 = DIRECTION ( 'NONE',  ( 1.000000000000000000, 0.000000000000000000, -1.445602896647339163E-16 ) ) ;
#130 = CARTESIAN_POINT ( 'NONE',  ( 0.000000000000000000, -16.00000000000000000, 0.000000000000000000 ) ) ;
#131 = VERTEX_POINT ( 'NONE', #778 ) ;
#132 = CARTESIAN_POINT ( 'NONE',  ( 16.10000000000000142, 2.399999999999999911, -6.149999999999995914 ) ) ;
#133 = DIRECTION ( 'NONE',  ( 0.000000000000000000, 0.000000000000000000, 1.000000000000000000 ) ) ;
#134 = EDGE_CURVE ( 'NONE', #526, #660, #351, .T. ) ;
#135 = ORIENTED_EDGE ( 'NONE', *, *, #799, .F. ) ;
#136 = CARTESIAN_POINT ( 'NONE',  ( 5.100000000000001421, 10.90000000000000036, 2.899999999999999911 ) ) ;
#137 = PRESENTATION_STYLE_ASSIGNMENT (( #524 ) ) ;
#138 = CARTESIAN_POINT ( 'NONE',  ( 5.100000000000002309, 10.90000000000000036, 5.899999999999997691 ) ) ;
#139 = AXIS2_PLACEMENT_3D ( 'NONE', #694, #931, #669 ) ;
#140 = DIRECTION ( 'NONE',  ( -1.000000000000000000, -0.000000000000000000, -1.346834996876403062E-16 ) ) ;
#141 = DIRECTION ( 'NONE',  ( 0.000000000000000000, 0.000000000000000000, 1.000000000000000000 ) ) ;
#142 = CARTESIAN_POINT ( 'NONE',  ( -11.25000000000000000, -16.00000000000000000, -6.150000000000000355 ) ) ;
#143 = LINE ( 'NONE', #887, #25 ) ;
#144 = ADVANCED_FACE ( 'NONE', ( #23 ), #427, .T. ) ;
#145 = EDGE_LOOP ( 'NONE', ( #291, #804, #835, #236 ) ) ;
#146 = CARTESIAN_POINT ( 'NONE',  ( -11.25000000000000000, 0.000000000000000000, 6.149999999999999467 ) ) ;
#147 = ORIENTED_EDGE ( 'NONE', *, *, #277, .F. ) ;
#148 = EDGE_CURVE ( 'NONE', #158, #785, #350, .T. ) ;
#149 = CARTESIAN_POINT ( 'NONE',  ( -11.25000000000000000, -16.00000000000000000, 6.150000000000000355 ) ) ;
#150 = VERTEX_POINT ( 'NONE', #114 ) ;
#151 = AXIS2_PLACEMENT_3D ( 'NONE', #345, #107, #21 ) ;
#152 = ORIENTED_EDGE ( 'NONE', *, *, #876, .F. ) ;
#153 = EDGE_CURVE ( 'NONE', #186, #686, #867, .T. ) ;
#154 = FILL_AREA_STYLE ('',( #289 ) ) ;
#155 = DIRECTION ( 'NONE',  ( -1.000000000000000000, -0.000000000000000000, -1.346834996876403062E-16 ) ) ;
#156 = AXIS2_PLACEMENT_3D ( 'NONE', #459, #743, #373 ) ;
#157 = ORIENTED_EDGE ( 'NONE', *, *, #799, .T. ) ;
#158 = VERTEX_POINT ( 'NONE', #267 ) ;
#159 = CARTESIAN_POINT ( 'NONE',  ( 0.000000000000000000, 0.000000000000000000, 0.000000000000000000 ) ) ;
#160 = CARTESIAN_POINT ( 'NONE',  ( -13.74999999999999822, 2.399999999999999911, 3.367778697655221307E-15 ) ) ;
#161 = VERTEX_POINT ( 'NONE', #146 ) ;
#162 = ORIENTED_EDGE ( 'NONE', *, *, #206, .T. ) ;
#163 = CARTESIAN_POINT ( 'NONE',  ( -13.74999999999999822, 0.000000000000000000, 3.367778697655221307E-15 ) ) ;
#164 = CARTESIAN_POINT ( 'NONE',  ( 16.10000000000000142, 2.399999999999999911, 6.149999999999995914 ) ) ;
#165 = CARTESIAN_POINT ( 'NONE',  ( 11.25000000000000000, 2.399999999999999467, -6.150000000000000355 ) ) ;
#166 = ORIENTED_EDGE ( 'NONE', *, *, #206, .F. ) ;
#167 = CARTESIAN_POINT ( 'NONE',  ( 5.100000000000001421, 10.90000000000000036, -0.8000000000000009326 ) ) ;
#168 = LINE ( 'NONE', #900, #953 ) ;
#169 = AXIS2_PLACEMENT_3D ( 'NONE', #368, #966, #285 ) ;
#170 =( NAMED_UNIT ( * ) PLANE_ANGLE_UNIT ( ) SI_UNIT ( $, .RADIAN. ) );
#171 = VECTOR ( 'NONE', #773, 1000.000000000000000 ) ;
#172 = VERTEX_POINT ( 'NONE', #222 ) ;
#173 = VECTOR ( 'NONE', #512, 1000.000000000000000 ) ;
#174 = DIRECTION ( 'NONE',  ( 0.000000000000000000, 1.000000000000000000, 0.000000000000000000 ) ) ;
#175 = CARTESIAN_POINT ( 'NONE',  ( -11.25000000000000000, -16.00000000000000000, -6.150000000000000355 ) ) ;
#176 = DIRECTION ( 'NONE',  ( 0.000000000000000000, 1.000000000000000000, 0.000000000000000000 ) ) ;
#177 = ORIENTED_EDGE ( 'NONE', *, *, #932, .T. ) ;
#178 = DIRECTION ( 'NONE',  ( 1.000000000000000000, 0.000000000000000000, 0.000000000000000000 ) ) ;
#179 = DIRECTION ( 'NONE',  ( 0.000000000000000000, 1.000000000000000000, 0.000000000000000000 ) ) ;
#180 = LINE ( 'NONE', #937, #711 ) ;
#181 = CARTESIAN_POINT ( 'NONE',  ( 13.75000000000000178, 2.399999999999999911, 1.350000000000000533 ) ) ;
#182 = ORIENTED_EDGE ( 'NONE', *, *, #498, .T. ) ;
#183 = CARTESIAN_POINT ( 'NONE',  ( -11.25000000000000000, 6.799999999999999822, 6.150000000000000355 ) ) ;
#184 = CARTESIAN_POINT ( 'NONE',  ( 5.100000000000001421, 50.87307791313322980, 2.429999999999998384 ) ) ;
#185 = CARTESIAN_POINT ( 'NONE',  ( -16.10000000000000142, 2.399999999999999911, 6.150000000000000355 ) ) ;
#186 = VERTEX_POINT ( 'NONE', #630 ) ;
#187 = PRESENTATION_LAYER_ASSIGNMENT (  '', '', ( #620 ) ) ;
#188 = FACE_OUTER_BOUND ( 'NONE', #381, .T. ) ;
#189 = CARTESIAN_POINT ( 'NONE',  ( 5.100000000000001421, 13.99999999999999822, 0.000000000000000000 ) ) ;
#190 = DIRECTION ( 'NONE',  ( -0.000000000000000000, -1.000000000000000000, -0.000000000000000000 ) ) ;
#191 = ORIENTED_EDGE ( 'NONE', *, *, #852, .T. ) ;
#192 = APPLICATION_CONTEXT ( 'automotive_design' ) ;
#193 = CARTESIAN_POINT ( 'NONE',  ( -16.10000000000000142, 2.399999999999999911, -6.150000000000000355 ) ) ;
#194 = EDGE_CURVE ( 'NONE', #583, #644, #517, .T. ) ;
#195 = DIRECTION ( 'NONE',  ( 0.000000000000000000, 1.000000000000000000, 0.000000000000000000 ) ) ;
#196 = ORIENTED_EDGE ( 'NONE', *, *, #238, .F. ) ;
#197 = LINE ( 'NONE', #957, #878 ) ;
#198 = CARTESIAN_POINT ( 'NONE',  ( -0.8999999999999985789, 6.800000000000000711, -2.899999999999999023 ) ) ;
#199 = EDGE_CURVE ( 'NONE', #334, #439, #692, .T. ) ;
#200 = VERTEX_POINT ( 'NONE', #838 ) ;
#201 = VECTOR ( 'NONE', #776, 1000.000000000000000 ) ;
#202 = AXIS2_PLACEMENT_3D ( 'NONE', #476, #768, #551 ) ;
#203 = CARTESIAN_POINT ( 'NONE',  ( 11.25000000000000000, -16.00000000000000000, -6.150000000000000355 ) ) ;
#204 = CARTESIAN_POINT ( 'NONE',  ( 5.100000000000001421, 8.637258300203045636, 0.000000000000000000 ) ) ;
#205 = ORIENTED_EDGE ( 'NONE', *, *, #227, .T. ) ;
#206 = EDGE_CURVE ( 'NONE', #85, #223, #26, .T. ) ;
#207 = PLANE ( 'NONE',  #929 ) ;
#208 = DIRECTION ( 'NONE',  ( -0.000000000000000000, 1.000000000000000000, -0.000000000000000000 ) ) ;
#209 = ORIENTED_EDGE ( 'NONE', *, *, #591, .T. ) ;
#210 = CARTESIAN_POINT ( 'NONE',  ( 0.000000000000000000, 2.399999999999999911, 0.000000000000000000 ) ) ;
#211 = ADVANCED_FACE ( 'NONE', ( #247 ), #848, .T. ) ;
#212 = LINE ( 'NONE', #149, #298 ) ;
#213 = VERTEX_POINT ( 'NONE', #527 ) ;
#214 = DIRECTION ( 'NONE',  ( 0.000000000000000000, 1.000000000000000000, 0.000000000000000000 ) ) ;
#215 = AXIS2_PLACEMENT_3D ( 'NONE', #866, #657, #972 ) ;
#216 = VECTOR ( 'NONE', #404, 1000.000000000000000 ) ;
#217 = CARTESIAN_POINT ( 'NONE',  ( 5.100000000000001421, -6.348383931114878642, 2.899999999999999911 ) ) ;
#218 = DIRECTION ( 'NONE',  ( 1.000000000000000000, 0.000000000000000000, -1.346834996876403062E-16 ) ) ;
#219 = CARTESIAN_POINT ( 'NONE',  ( 5.100000000000001421, 13.99999999999999822, 2.429999999999998384 ) ) ;
#220 = VECTOR ( 'NONE', #176, 1000.000000000000000 ) ;
#221 = LINE ( 'NONE', #401, #803 ) ;
#222 = CARTESIAN_POINT ( 'NONE',  ( -13.74999999999999822, 0.000000000000000000, 1.350000000000004086 ) ) ;
#223 = VERTEX_POINT ( 'NONE', #331 ) ;
#224 = CARTESIAN_POINT ( 'NONE',  ( 5.100000000000001421, 13.99999999999999822, 0.000000000000000000 ) ) ;
#225 = PRODUCT ( '00_마이크로 서보_SG90', '00_마이크로 서보_SG90', '', ( #19 ) ) ;
#226 = DIRECTION ( 'NONE',  ( 0.000000000000000000, 0.000000000000000000, 1.000000000000000000 ) ) ;
#227 = EDGE_CURVE ( 'NONE', #940, #959, #10, .T. ) ;
#228 = EDGE_LOOP ( 'NONE', ( #71, #831, #324, #690 ) ) ;
#229 = VECTOR ( 'NONE', #336, 1000.000000000000000 ) ;
#230 = ORIENTED_EDGE ( 'NONE', *, *, #275, .T. ) ;
#231 = APPLICATION_PROTOCOL_DEFINITION ( 'draft international standard', 'automotive_design', 1998, #192 ) ;
#232 = CARTESIAN_POINT ( 'NONE',  ( 5.100000000000001421, 8.637258300203045636, 0.000000000000000000 ) ) ;
#233 = VERTEX_POINT ( 'NONE', #634 ) ;
#234 = VERTEX_POINT ( 'NONE', #14 ) ;
#235 = FACE_OUTER_BOUND ( 'NONE', #472, .T. ) ;
#236 = ORIENTED_EDGE ( 'NONE', *, *, #612, .F. ) ;
#237 = VERTEX_POINT ( 'NONE', #101 ) ;
#238 = EDGE_CURVE ( 'NONE', #689, #765, #8, .T. ) ;
#239 = DIRECTION ( 'NONE',  ( 0.000000000000000000, 0.000000000000000000, 1.000000000000000000 ) ) ;
#240 = CARTESIAN_POINT ( 'NONE',  ( -16.10000000000000142, 2.399999999999999911, 6.150000000000000355 ) ) ;
#241 = ORIENTED_EDGE ( 'NONE', *, *, #516, .F. ) ;
#242 = ORIENTED_EDGE ( 'NONE', *, *, #796, .F. ) ;
#243 = VECTOR ( 'NONE', #179, 1000.000000000000000 ) ;
#244 = EDGE_CURVE ( 'NONE', #213, #391, #327, .T. ) ;
#245 = DIRECTION ( 'NONE',  ( -0.000000000000000000, 1.000000000000000000, -0.000000000000000000 ) ) ;
#246 = AXIS2_PLACEMENT_3D ( 'NONE', #159, #249, #178 ) ;
#247 = FACE_OUTER_BOUND ( 'NONE', #733, .T. ) ;
#248 = EDGE_LOOP ( 'NONE', ( #812, #749, #548, #964 ) ) ;
#249 = DIRECTION ( 'NONE',  ( 0.000000000000000000, 0.000000000000000000, 1.000000000000000000 ) ) ;
#250 = ADVANCED_FACE ( 'NONE', ( #777 ), #626, .F. ) ;
#251 = DIRECTION ( 'NONE',  ( -0.000000000000000000, -1.000000000000000000, -0.000000000000000000 ) ) ;
#252 = ADVANCED_FACE ( 'NONE', ( #926, #706 ), #562, .F. ) ;
#253 = DIRECTION ( 'NONE',  ( 0.000000000000000000, 1.000000000000000000, 0.000000000000000000 ) ) ;
#254 = CIRCLE ( 'NONE', #801, 1.350000000000000533 ) ;
#255 = LINE ( 'NONE', #417, #883 ) ;
#256 = EDGE_LOOP ( 'NONE', ( #752, #641, #758, #987 ) ) ;
#257 = LINE ( 'NONE', #941, #99 ) ;
#258 = DIRECTION ( 'NONE',  ( 0.000000000000000000, 0.000000000000000000, 1.000000000000000000 ) ) ;
#259 = CARTESIAN_POINT ( 'NONE',  ( 11.25000000000000000, -16.00000000000000000, -6.150000000000000355 ) ) ;
#260 = EDGE_CURVE ( 'NONE', #233, #200, #587, .T. ) ;
#261 = VERTEX_POINT ( 'NONE', #608 ) ;
#262 = CYLINDRICAL_SURFACE ( 'NONE', #81, 2.429999999999998384 ) ;
#263 = CARTESIAN_POINT ( 'NONE',  ( -11.25000000000000000, -16.00000000000000000, 6.150000000000000355 ) ) ;
#264 = DIRECTION ( 'NONE',  ( 0.000000000000000000, 1.000000000000000000, 0.000000000000000000 ) ) ;
#265 = ORIENTED_EDGE ( 'NONE', *, *, #624, .F. ) ;
#266 = FACE_BOUND ( 'NONE', #684, .T. ) ;
#267 = CARTESIAN_POINT ( 'NONE',  ( 13.75000000000000178, 0.000000000000000000, 1.350000000000000533 ) ) ;
#268 = ORIENTED_EDGE ( 'NONE', *, *, #504, .F. ) ;
#269 = CIRCLE ( 'NONE', #434, 5.899999999999997691 ) ;
#270 = EDGE_CURVE ( 'NONE', #105, #510, #269, .T. ) ;
#271 = DIRECTION ( 'NONE',  ( -0.000000000000000000, 1.000000000000000000, -0.000000000000000000 ) ) ;
#272 = EDGE_CURVE ( 'NONE', #413, #349, #600, .T. ) ;
#273 = PLANE ( 'NONE',  #301 ) ;
#274 = ORIENTED_EDGE ( 'NONE', *, *, #543, .F. ) ;
#275 = EDGE_CURVE ( 'NONE', #313, #213, #168, .T. ) ;
#276 = DIRECTION ( 'NONE',  ( 0.000000000000000000, 1.000000000000000000, 0.000000000000000000 ) ) ;
#277 = EDGE_CURVE ( 'NONE', #806, #314, #748, .T. ) ;
#278 = ORIENTED_EDGE ( 'NONE', *, *, #956, .T. ) ;
#279 = PLANE ( 'NONE',  #570 ) ;
#280 = CARTESIAN_POINT ( 'NONE',  ( -0.8999999999999989120, 10.90000000000000036, 8.143901214329899777E-16 ) ) ;
#281 = ORIENTED_EDGE ( 'NONE', *, *, #471, .T. ) ;
#282 = EDGE_CURVE ( 'NONE', #314, #910, #70, .T. ) ;
#283 = CIRCLE ( 'NONE', #501, 5.899999999999997691 ) ;
#284 = CARTESIAN_POINT ( 'NONE',  ( 5.100000000000001421, 36.08772003600251566, 0.000000000000000000 ) ) ;
#285 = DIRECTION ( 'NONE',  ( 0.000000000000000000, 0.000000000000000000, 1.000000000000000000 ) ) ;
#286 = EDGE_LOOP ( 'NONE', ( #24, #609, #502, #447 ) ) ;
#287 = EDGE_CURVE ( 'NONE', #349, #261, #400, .T. ) ;
#288 = DIRECTION ( 'NONE',  ( -0.000000000000000000, 1.000000000000000000, 0.000000000000000000 ) ) ;
#289 = FILL_AREA_STYLE_COLOUR ( '', #36 ) ;
#290 = DIRECTION ( 'NONE',  ( 0.000000000000000000, 0.000000000000000000, 1.000000000000000000 ) ) ;
#291 = ORIENTED_EDGE ( 'NONE', *, *, #665, .F. ) ;
#292 = DIRECTION ( 'NONE',  ( 0.000000000000000000, 0.000000000000000000, 1.000000000000000000 ) ) ;
#293 = FACE_OUTER_BOUND ( 'NONE', #619, .T. ) ;
#294 = LINE ( 'NONE', #962, #751 ) ;
#295 = ORIENTED_EDGE ( 'NONE', *, *, #905, .F. ) ;
#296 = DIRECTION ( 'NONE',  ( -0.000000000000000000, 1.000000000000000000, 0.000000000000000000 ) ) ;
#297 = EDGE_LOOP ( 'NONE', ( #601, #678, #98, #709 ) ) ;
#298 = VECTOR ( 'NONE', #442, 1000.000000000000000 ) ;
#299 = FACE_BOUND ( 'NONE', #473, .T. ) ;
#300 = EDGE_CURVE ( 'NONE', #959, #3, #180, .T. ) ;
#301 = AXIS2_PLACEMENT_3D ( 'NONE', #582, #638, #341 ) ;
#302 = LINE ( 'NONE', #606, #738 ) ;
#303 = VECTOR ( 'NONE', #126, 1000.000000000000000 ) ;
#304 = LINE ( 'NONE', #816, #633 ) ;
#305 = DIRECTION ( 'NONE',  ( -0.000000000000000000, -0.000000000000000000, -1.000000000000000000 ) ) ;
#306 = ORIENTED_EDGE ( 'NONE', *, *, #300, .F. ) ;
#307 = CARTESIAN_POINT ( 'NONE',  ( -0.03809303146604884477, 6.800000000000000711, -2.899999999999999023 ) ) ;
#308 = ORIENTED_EDGE ( 'NONE', *, *, #244, .F. ) ;
#309 = EDGE_LOOP ( 'NONE', ( #478, #553, #949, #162 ) ) ;
#310 = SURFACE_STYLE_FILL_AREA ( #154 ) ;
#311 = DIRECTION ( 'NONE',  ( -0.000000000000000000, 1.000000000000000000, 0.000000000000000000 ) ) ;
#312 = EDGE_CURVE ( 'NONE', #526, #439, #795, .T. ) ;
#313 = VERTEX_POINT ( 'NONE', #643 ) ;
#314 = VERTEX_POINT ( 'NONE', #493 ) ;
#315 = ADVANCED_FACE ( 'NONE', ( #337, #438 ), #273, .T. ) ;
#316 = LINE ( 'NONE', #681, #201 ) ;
#317 = CIRCLE ( 'NONE', #862, 2.899999999999999911 ) ;
#318 =( GEOMETRIC_REPRESENTATION_CONTEXT ( 3 ) GLOBAL_UNCERTAINTY_ASSIGNED_CONTEXT ( ( #462 ) ) GLOBAL_UNIT_ASSIGNED_CONTEXT ( ( #843, #170, #552 ) ) REPRESENTATION_CONTEXT ( 'NONE', 'WORKASPACE' ) );
#319 = ORIENTED_EDGE ( 'NONE', *, *, #54, .F. ) ;
#320 = ORIENTED_EDGE ( 'NONE', *, *, #48, .T. ) ;
#321 = CARTESIAN_POINT ( 'NONE',  ( -16.10000000000000142, 2.399999999999999911, -6.150000000000000355 ) ) ;
#322 = CARTESIAN_POINT ( 'NONE',  ( 5.100000000000001421, 13.99999999999999822, 0.000000000000000000 ) ) ;
#323 = FACE_BOUND ( 'NONE', #429, .T. ) ;
#324 = ORIENTED_EDGE ( 'NONE', *, *, #282, .F. ) ;
#325 = DIRECTION ( 'NONE',  ( -0.000000000000000000, -1.000000000000000000, -0.000000000000000000 ) ) ;
#326 = AXIS2_PLACEMENT_3D ( 'NONE', #370, #971, #292 ) ;
#327 = LINE ( 'NONE', #175, #967 ) ;
#328 = ORIENTED_EDGE ( 'NONE', *, *, #665, .T. ) ;
#329 = VECTOR ( 'NONE', #112, 1000.000000000000000 ) ;
#330 = LINE ( 'NONE', #651, #229 ) ;
#331 = CARTESIAN_POINT ( 'NONE',  ( 13.75000000000000178, 2.399999999999999911, -1.350000000000000533 ) ) ;
#332 = DIRECTION ( 'NONE',  ( -0.000000000000000000, -1.000000000000000000, -0.000000000000000000 ) ) ;
#333 = CLOSED_SHELL ( 'NONE', ( #656, #877, #20, #920, #250, #440, #874, #911, #116, #961, #144, #211, #531, #363, #945, #950, #913, #315, #252, #865, #581, #767, #985, #409, #963, #503, #640, #453, #109, #555, #762 ) ) ;
#334 = VERTEX_POINT ( 'NONE', #431 ) ;
#335 = APPLICATION_PROTOCOL_DEFINITION ( 'draft international standard', 'automotive_design', 1998, #939 ) ;
#336 = DIRECTION ( 'NONE',  ( 0.000000000000000000, 1.000000000000000000, 0.000000000000000000 ) ) ;
#337 = FACE_BOUND ( 'NONE', #798, .T. ) ;
#338 = DIRECTION ( 'NONE',  ( 0.000000000000000000, 0.000000000000000000, 1.000000000000000000 ) ) ;
#339 = ORIENTED_EDGE ( 'NONE', *, *, #194, .F. ) ;
#340 = LINE ( 'NONE', #719, #329 ) ;
#341 = DIRECTION ( 'NONE',  ( 0.000000000000000000, -0.000000000000000000, 1.000000000000000000 ) ) ;
#342 = LINE ( 'NONE', #259, #919 ) ;
#343 = AXIS2_PLACEMENT_3D ( 'NONE', #224, #829, #593 ) ;
#344 = ORIENTED_EDGE ( 'NONE', *, *, #287, .F. ) ;
#345 = CARTESIAN_POINT ( 'NONE',  ( -0.8999999999999989120, 6.800000000000000711, 8.143901214329899777E-16 ) ) ;
#346 = LINE ( 'NONE', #39, #173 ) ;
#347 = CARTESIAN_POINT ( 'NONE',  ( -16.10000000000000142, 2.399999999999999911, -6.150000000000000355 ) ) ;
#348 = AXIS2_PLACEMENT_3D ( 'NONE', #204, #208, #290 ) ;
#349 = VERTEX_POINT ( 'NONE', #791 ) ;
#350 = CIRCLE ( 'NONE', #481, 1.350000000000000533 ) ;
#351 = CIRCLE ( 'NONE', #899, 2.429999999999998384 ) ;
#352 = DIRECTION ( 'NONE',  ( 0.000000000000000000, 0.000000000000000000, 1.000000000000000000 ) ) ;
#353 = ADVANCED_BREP_SHAPE_REPRESENTATION ( '00_마이크로 서보_SG90', ( #123, #246 ), #616 ) ;
#354 = CARTESIAN_POINT ( 'NONE',  ( -11.25000000000000000, -16.00000000000000000, 6.150000000000000355 ) ) ;
#355 = ORIENTED_EDGE ( 'NONE', *, *, #451, .T. ) ;
#356 = FACE_OUTER_BOUND ( 'NONE', #395, .T. ) ;
#357 = LINE ( 'NONE', #108, #845 ) ;
#358 = EDGE_LOOP ( 'NONE', ( #770, #739, #182, #268 ) ) ;
#359 = AXIS2_PLACEMENT_3D ( 'NONE', #132, #437, #444 ) ;
#360 = CARTESIAN_POINT ( 'NONE',  ( 11.25000000000000000, -16.00000000000000000, -6.150000000000000355 ) ) ;
#361 = EDGE_CURVE ( 'NONE', #233, #237, #357, .T. ) ;
#362 = DIRECTION ( 'NONE',  ( 0.000000000000000000, -1.000000000000000000, -0.000000000000000000 ) ) ;
#363 = ADVANCED_FACE ( 'NONE', ( #875, #725 ), #871, .T. ) ;
#364 = EDGE_LOOP ( 'NONE', ( #355, #844, #622, #981 ) ) ;
#365 = CIRCLE ( 'NONE', #559, 0.8000000000000009326 ) ;
#366 = VECTOR ( 'NONE', #635, 1000.000000000000000 ) ;
#367 = CARTESIAN_POINT ( 'NONE',  ( 5.100000000000000533, 6.800000000000000711, -2.899999999999999911 ) ) ;
#368 = CARTESIAN_POINT ( 'NONE',  ( -13.74999999999999822, 0.000000000000000000, 3.367778697655221307E-15 ) ) ;
#369 = ORIENTED_EDGE ( 'NONE', *, *, #885, .F. ) ;
#370 = CARTESIAN_POINT ( 'NONE',  ( 13.75000000000000178, 0.000000000000000000, 0.000000000000000000 ) ) ;
#371 = DIRECTION ( 'NONE',  ( -0.000000000000000000, -1.000000000000000000, -0.000000000000000000 ) ) ;
#372 = CARTESIAN_POINT ( 'NONE',  ( 5.100000000000001421, 10.90000000000000036, 0.000000000000000000 ) ) ;
#373 = DIRECTION ( 'NONE',  ( 0.000000000000000000, 0.000000000000000000, -1.000000000000000000 ) ) ;
#374 = MECHANICAL_DESIGN_GEOMETRIC_PRESENTATION_REPRESENTATION (  '', ( #747 ), #596 ) ;
#375 = FACE_OUTER_BOUND ( 'NONE', #539, .T. ) ;
#376 = DIRECTION ( 'NONE',  ( 0.000000000000000000, 0.000000000000000000, -1.000000000000000000 ) ) ;
#377 = PLANE ( 'NONE',  #448 ) ;
#378 = CIRCLE ( 'NONE', #151, 2.899999999999999911 ) ;
#379 = ORIENTED_EDGE ( 'NONE', *, *, #870, .F. ) ;
#380 = DIRECTION ( 'NONE',  ( -0.000000000000000000, 1.000000000000000000, 0.000000000000000000 ) ) ;
#381 = EDGE_LOOP ( 'NONE', ( #542, #50, #613, #458 ) ) ;
#382 = VECTOR ( 'NONE', #325, 1000.000000000000000 ) ;
#383 = AXIS2_PLACEMENT_3D ( 'NONE', #40, #506, #648 ) ;
#384 = EDGE_CURVE ( 'NONE', #644, #583, #44, .T. ) ;
#385 = LINE ( 'NONE', #841, #528 ) ;
#386 = ORIENTED_EDGE ( 'NONE', *, *, #808, .T. ) ;
#387 = ORIENTED_EDGE ( 'NONE', *, *, #72, .T. ) ;
#388 = SURFACE_SIDE_STYLE ('',( #310 ) ) ;
#389 = LINE ( 'NONE', #766, #6 ) ;
#390 = EDGE_CURVE ( 'NONE', #424, #60, #652, .T. ) ;
#391 = VERTEX_POINT ( 'NONE', #958 ) ;
#392 = EDGE_LOOP ( 'NONE', ( #988, #811, #918, #884, #35, #759 ) ) ;
#393 = CARTESIAN_POINT ( 'NONE',  ( 13.75000000000000178, 0.000000000000000000, -1.350000000000000533 ) ) ;
#394 = VERTEX_POINT ( 'NONE', #198 ) ;
#395 = EDGE_LOOP ( 'NONE', ( #912, #387, #76, #861 ) ) ;
#396 = CARTESIAN_POINT ( 'NONE',  ( 5.100000000000001421, 13.99999999999999822, 0.8000000000000009326 ) ) ;
#397 = AXIS2_PLACEMENT_3D ( 'NONE', #824, #667, #598 ) ;
#398 = UNCERTAINTY_MEASURE_WITH_UNIT (LENGTH_MEASURE( 1.000000000000000082E-05 ), #903, 'distance_accuracy_value', 'NONE');
#399 = AXIS2_PLACEMENT_3D ( 'NONE', #500, #264, #563 ) ;
#400 = LINE ( 'NONE', #164, #171 ) ;
#401 = CARTESIAN_POINT ( 'NONE',  ( -13.74999999999999822, 0.000000000000000000, -1.349999999999996980 ) ) ;
#402 = VERTEX_POINT ( 'NONE', #505 ) ;
#403 = EDGE_CURVE ( 'NONE', #161, #3, #119, .T. ) ;
#404 = DIRECTION ( 'NONE',  ( -0.000000000000000000, 1.000000000000000000, -0.000000000000000000 ) ) ;
#405 = DIRECTION ( 'NONE',  ( 0.000000000000000000, 0.000000000000000000, 1.000000000000000000 ) ) ;
#406 = CARTESIAN_POINT ( 'NONE',  ( -11.25000000000000000, -16.00000000000000000, -6.150000000000000355 ) ) ;
#407 = ORIENTED_EDGE ( 'NONE', *, *, #543, .T. ) ;
#408 = CIRCLE ( 'NONE', #909, 5.899999999999997691 ) ;
#409 = ADVANCED_FACE ( 'NONE', ( #266, #574 ), #113, .T. ) ;
#410 = DIRECTION ( 'NONE',  ( -1.000000000000000000, 0.000000000000000000, 0.000000000000000000 ) ) ;
#411 = DIRECTION ( 'NONE',  ( 0.000000000000000000, 0.000000000000000000, 1.000000000000000000 ) ) ;
#412 = DIRECTION ( 'NONE',  ( 0.000000000000000000, 1.000000000000000000, 0.000000000000000000 ) ) ;
#413 = VERTEX_POINT ( 'NONE', #45 ) ;
#414 = DIRECTION ( 'NONE',  ( -1.000000000000000000, -0.000000000000000000, -0.000000000000000000 ) ) ;
#415 = CYLINDRICAL_SURFACE ( 'NONE', #125, 1.350000000000000533 ) ;
#416 = AXIS2_PLACEMENT_3D ( 'NONE', #232, #990, #239 ) ;
#417 = CARTESIAN_POINT ( 'NONE',  ( -16.10000000000000142, 2.399999999999999911, 6.150000000000000355 ) ) ;
#418 = AXIS2_PLACEMENT_3D ( 'NONE', #406, #789, #110 ) ;
#419 = EDGE_LOOP ( 'NONE', ( #576, #823, #968, #80, #55, #205, #618, #2, #892, #490, #658, #379 ) ) ;
#420 = CARTESIAN_POINT ( 'NONE',  ( 5.100000000000001421, 10.90000000000000036, 0.000000000000000000 ) ) ;
#421 = CARTESIAN_POINT ( 'NONE',  ( 16.10000000000000142, 0.000000000000000000, -6.149999999999995914 ) ) ;
#422 = CARTESIAN_POINT ( 'NONE',  ( 5.100000000000001421, 13.99999999999999822, 0.000000000000000000 ) ) ;
#423 = EDGE_CURVE ( 'NONE', #686, #754, #346, .T. ) ;
#424 = VERTEX_POINT ( 'NONE', #263 ) ;
#425 = CARTESIAN_POINT ( 'NONE',  ( -13.74999999999999822, 2.399999999999999911, 3.367778697655221307E-15 ) ) ;
#426 = CARTESIAN_POINT ( 'NONE',  ( -0.03809303146604884477, 10.90000000000000036, -2.899999999999999023 ) ) ;
#427 = PLANE ( 'NONE',  #383 ) ;
#428 = VECTOR ( 'NONE', #129, 1000.000000000000000 ) ;
#429 = EDGE_LOOP ( 'NONE', ( #970, #339 ) ) ;
#430 = CARTESIAN_POINT ( 'NONE',  ( -13.74999999999999822, 0.000000000000000000, -1.349999999999996980 ) ) ;
#431 = CARTESIAN_POINT ( 'NONE',  ( 5.100000000000001421, 10.90000000000000036, -2.429999999999998384 ) ) ;
#432 = VECTOR ( 'NONE', #371, 1000.000000000000000 ) ;
#433 = ORIENTED_EDGE ( 'NONE', *, *, #260, .T. ) ;
#434 = AXIS2_PLACEMENT_3D ( 'NONE', #974, #296, #556 ) ;
#435 = VECTOR ( 'NONE', #954, 1000.000000000000000 ) ;
#436 = EDGE_CURVE ( 'NONE', #131, #910, #49, .T. ) ;
#437 = DIRECTION ( 'NONE',  ( -1.000000000000000000, 0.000000000000000000, 0.000000000000000000 ) ) ;
#438 = FACE_OUTER_BOUND ( 'NONE', #697, .T. ) ;
#439 = VERTEX_POINT ( 'NONE', #509 ) ;
#440 = ADVANCED_FACE ( 'NONE', ( #104 ), #415, .F. ) ;
#441 = DIRECTION ( 'NONE',  ( 0.000000000000000000, 0.000000000000000000, -1.000000000000000000 ) ) ;
#442 = DIRECTION ( 'NONE',  ( 0.000000000000000000, 1.000000000000000000, 0.000000000000000000 ) ) ;
#443 = VERTEX_POINT ( 'NONE', #426 ) ;
#444 = DIRECTION ( 'NONE',  ( 0.000000000000000000, 0.000000000000000000, 1.000000000000000000 ) ) ;
#445 =( NAMED_UNIT ( * ) PLANE_ANGLE_UNIT ( ) SI_UNIT ( $, .RADIAN. ) );
#446 = CARTESIAN_POINT ( 'NONE',  ( 5.100000000000001421, 13.99999999999999822, -0.8000000000000009326 ) ) ;
#447 = ORIENTED_EDGE ( 'NONE', *, *, #729, .F. ) ;
#448 = AXIS2_PLACEMENT_3D ( 'NONE', #130, #890, #810 ) ;
#449 = VECTOR ( 'NONE', #22, 1000.000000000000000 ) ;
#450 = FACE_OUTER_BOUND ( 'NONE', #256, .T. ) ;
#451 = EDGE_CURVE ( 'NONE', #261, #983, #947, .T. ) ;
#452 = CARTESIAN_POINT ( 'NONE',  ( -11.25000000000000000, 0.000000000000000000, -6.150000000000000355 ) ) ;
#453 = ADVANCED_FACE ( 'NONE', ( #716 ), #32, .T. ) ;
#454 = DIRECTION ( 'NONE',  ( 1.000000000000000000, 0.000000000000000000, -0.000000000000000000 ) ) ;
#455 = DIRECTION ( 'NONE',  ( -1.000000000000000000, 0.000000000000000000, -0.000000000000000000 ) ) ;
#456 =( NAMED_UNIT ( * ) SI_UNIT ( $, .STERADIAN. ) SOLID_ANGLE_UNIT ( ) );
#457 = LINE ( 'NONE', #745, #724 ) ;
#458 = ORIENTED_EDGE ( 'NONE', *, *, #153, .T. ) ;
#459 = CARTESIAN_POINT ( 'NONE',  ( 5.100000000000001421, 6.799999999999999822, 0.000000000000000000 ) ) ;
#460 = ORIENTED_EDGE ( 'NONE', *, *, #272, .F. ) ;
#461 = CYLINDRICAL_SURFACE ( 'NONE', #348, 0.8000000000000009326 ) ;
#462 = UNCERTAINTY_MEASURE_WITH_UNIT (LENGTH_MEASURE( 1.000000000000000082E-05 ), #843, 'distance_accuracy_value', 'NONE');
#463 = ORIENTED_EDGE ( 'NONE', *, *, #612, .T. ) ;
#464 = ORIENTED_EDGE ( 'NONE', *, *, #270, .T. ) ;
#465 = DIRECTION ( 'NONE',  ( -0.000000000000000000, -1.000000000000000000, -0.000000000000000000 ) ) ;
#466 = CIRCLE ( 'NONE', #92, 5.899999999999997691 ) ;
#467 = CARTESIAN_POINT ( 'NONE',  ( 5.100000000000001421, 50.87307791313322980, -2.429999999999998384 ) ) ;
#468 = ORIENTED_EDGE ( 'NONE', *, *, #77, .T. ) ;
#469 = ORIENTED_EDGE ( 'NONE', *, *, #496, .T. ) ;
#470 = LINE ( 'NONE', #321, #122 ) ;
#471 = EDGE_CURVE ( 'NONE', #60, #650, #518, .T. ) ;
#472 = EDGE_LOOP ( 'NONE', ( #775, #636, #274, #152 ) ) ;
#473 = EDGE_LOOP ( 'NONE', ( #166, #933 ) ) ;
#474 = CIRCLE ( 'NONE', #326, 1.350000000000000533 ) ;
#475 = CARTESIAN_POINT ( 'NONE',  ( -16.10000000000000142, 2.399999999999999911, 6.150000000000000355 ) ) ;
#476 = CARTESIAN_POINT ( 'NONE',  ( 13.75000000000000178, 2.399999999999999911, 0.000000000000000000 ) ) ;
#477 = FACE_OUTER_BOUND ( 'NONE', #12, .T. ) ;
#478 = ORIENTED_EDGE ( 'NONE', *, *, #763, .F. ) ;
#479 = CIRCLE ( 'NONE', #545, 1.350000000000000533 ) ;
#480 = DIRECTION ( 'NONE',  ( 0.000000000000000000, 0.000000000000000000, -1.000000000000000000 ) ) ;
#481 = AXIS2_PLACEMENT_3D ( 'NONE', #792, #721, #575 ) ;
#482 = VECTOR ( 'NONE', #783, 1000.000000000000000 ) ;
#483 = CARTESIAN_POINT ( 'NONE',  ( -11.25000000000000000, 6.799999999999999822, 6.150000000000000355 ) ) ;
#484 = EDGE_CURVE ( 'NONE', #413, #314, #521, .T. ) ;
#485 = EDGE_CURVE ( 'NONE', #940, #46, #294, .T. ) ;
#486 = ORIENTED_EDGE ( 'NONE', *, *, #796, .T. ) ;
#487 = CARTESIAN_POINT ( 'NONE',  ( 5.100000000000001421, 8.637258300203045636, -0.8000000000000009326 ) ) ;
#488 = CARTESIAN_POINT ( 'NONE',  ( 0.000000000000000000, 0.000000000000000000, 0.000000000000000000 ) ) ;
#489 = PRODUCT_DEFINITION ( 'UNKNOWN', '', #703, #896 ) ;
#490 = ORIENTED_EDGE ( 'NONE', *, *, #1, .F. ) ;
#491 = CARTESIAN_POINT ( 'NONE',  ( 5.100000000000001421, 10.90000000000000036, 0.8000000000000009326 ) ) ;
#492 = AXIS2_PLACEMENT_3D ( 'NONE', #740, #61, #960 ) ;
#493 = CARTESIAN_POINT ( 'NONE',  ( 11.25000000000000000, 6.799999999999999822, 6.150000000000000355 ) ) ;
#494 = DIRECTION ( 'NONE',  ( 0.000000000000000000, 1.000000000000000000, -0.000000000000000000 ) ) ;
#495 = ORIENTED_EDGE ( 'NONE', *, *, #270, .F. ) ;
#496 = EDGE_CURVE ( 'NONE', #234, #856, #525, .T. ) ;
#497 = DIRECTION ( 'NONE',  ( -0.000000000000000000, -1.000000000000000000, -0.000000000000000000 ) ) ;
#498 = EDGE_CURVE ( 'NONE', #223, #85, #691, .T. ) ;
#499 = CARTESIAN_POINT ( 'NONE',  ( -13.74999999999999822, 0.000000000000000000, 3.367778697655221307E-15 ) ) ;
#500 = CARTESIAN_POINT ( 'NONE',  ( 0.000000000000000000, 13.99999999999999822, 0.000000000000000000 ) ) ;
#501 = AXIS2_PLACEMENT_3D ( 'NONE', #33, #494, #701 ) ;
#502 = ORIENTED_EDGE ( 'NONE', *, *, #624, .T. ) ;
#503 = ADVANCED_FACE ( 'NONE', ( #53 ), #532, .T. ) ;
#504 = EDGE_CURVE ( 'NONE', #158, #85, #143, .T. ) ;
#505 = CARTESIAN_POINT ( 'NONE',  ( -13.74999999999999822, 2.399999999999999911, -1.349999999999996980 ) ) ;
#506 = DIRECTION ( 'NONE',  ( 1.000000000000000000, 0.000000000000000000, 0.000000000000000000 ) ) ;
#507 = ORIENTED_EDGE ( 'NONE', *, *, #780, .F. ) ;
#508 = DIRECTION ( 'NONE',  ( 1.000000000000000000, 0.000000000000000000, 0.000000000000000000 ) ) ;
#509 = CARTESIAN_POINT ( 'NONE',  ( 5.100000000000001421, 10.90000000000000036, 2.429999999999998384 ) ) ;
#510 = VERTEX_POINT ( 'NONE', #138 ) ;
#511 = DIRECTION ( 'NONE',  ( 0.000000000000000000, 1.000000000000000000, -0.000000000000000000 ) ) ;
#512 = DIRECTION ( 'NONE',  ( 0.000000000000000000, 0.000000000000000000, 1.000000000000000000 ) ) ;
#513 = AXIS2_PLACEMENT_3D ( 'NONE', #761, #311, #617 ) ;
#514 = ORIENTED_EDGE ( 'NONE', *, *, #780, .T. ) ;
#515 = EDGE_CURVE ( 'NONE', #424, #161, #212, .T. ) ;
#516 = EDGE_CURVE ( 'NONE', #172, #915, #302, .T. ) ;
#517 = CIRCLE ( 'NONE', #864, 0.8000000000000009326 ) ;
#518 = LINE ( 'NONE', #741, #679 ) ;
#519 = ORIENTED_EDGE ( 'NONE', *, *, #876, .T. ) ;
#520 = CYLINDRICAL_SURFACE ( 'NONE', #18, 5.899999999999997691 ) ;
#521 = LINE ( 'NONE', #979, #674 ) ;
#522 = ORIENTED_EDGE ( 'NONE', *, *, #515, .T. ) ;
#523 = CARTESIAN_POINT ( 'NONE',  ( 5.100000000000002309, 36.08772003600251566, 5.899999999999997691 ) ) ;
#524 = SURFACE_STYLE_USAGE ( .BOTH. , #388 ) ;
#525 = LINE ( 'NONE', #894, #432 ) ;
#526 = VERTEX_POINT ( 'NONE', #219 ) ;
#527 = CARTESIAN_POINT ( 'NONE',  ( -11.25000000000000000, 2.399999999999999911, -6.149999999999999467 ) ) ;
#528 = VECTOR ( 'NONE', #155, 1000.000000000000000 ) ;
#529 = VECTOR ( 'NONE', #87, 1000.000000000000000 ) ;
#530 = DIRECTION ( 'NONE',  ( 0.000000000000000000, 0.000000000000000000, -1.000000000000000000 ) ) ;
#531 = ADVANCED_FACE ( 'NONE', ( #734 ), #377, .F. ) ;
#532 = PLANE ( 'NONE',  #881 ) ;
#533 = EDGE_CURVE ( 'NONE', #105, #233, #457, .T. ) ;
#534 = ORIENTED_EDGE ( 'NONE', *, *, #471, .F. ) ;
#535 = DIRECTION ( 'NONE',  ( 0.000000000000000000, 0.000000000000000000, -1.000000000000000000 ) ) ;
#536 = ORIENTED_EDGE ( 'NONE', *, *, #390, .F. ) ;
#537 = DIRECTION ( 'NONE',  ( 0.000000000000000000, 1.000000000000000000, 0.000000000000000000 ) ) ;
#538 = AXIS2_PLACEMENT_3D ( 'NONE', #193, #508, #118 ) ;
#539 = EDGE_LOOP ( 'NONE', ( #888, #102, #586, #683 ) ) ;
#540 = ORIENTED_EDGE ( 'NONE', *, *, #976, .F. ) ;
#541 = DIRECTION ( 'NONE',  ( -1.000000000000000000, -0.000000000000000000, -1.346834996876403062E-16 ) ) ;
#542 = ORIENTED_EDGE ( 'NONE', *, *, #423, .T. ) ;
#543 = EDGE_CURVE ( 'NONE', #590, #764, #317, .T. ) ;
#544 = ORIENTED_EDGE ( 'NONE', *, *, #65, .T. ) ;
#545 = AXIS2_PLACEMENT_3D ( 'NONE', #160, #908, #83 ) ;
#546 = VECTOR ( 'NONE', #305, 1000.000000000000000 ) ;
#547 = DIRECTION ( 'NONE',  ( 0.000000000000000000, 0.000000000000000000, 1.000000000000000000 ) ) ;
#548 = ORIENTED_EDGE ( 'NONE', *, *, #121, .T. ) ;
#549 = ORIENTED_EDGE ( 'NONE', *, *, #277, .T. ) ;
#550 = CARTESIAN_POINT ( 'NONE',  ( -16.10000000000000142, 0.000000000000000000, -6.150000000000000355 ) ) ;
#551 = DIRECTION ( 'NONE',  ( 0.000000000000000000, 0.000000000000000000, 1.000000000000000000 ) ) ;
#552 =( NAMED_UNIT ( * ) SI_UNIT ( $, .STERADIAN. ) SOLID_ANGLE_UNIT ( ) );
#553 = ORIENTED_EDGE ( 'NONE', *, *, #148, .F. ) ;
#554 = CARTESIAN_POINT ( 'NONE',  ( 16.10000000000000142, 2.399999999999999911, -6.149999999999995914 ) ) ;
#555 = ADVANCED_FACE ( 'NONE', ( #450 ), #461, .F. ) ;
#556 = DIRECTION ( 'NONE',  ( 0.000000000000000000, 0.000000000000000000, 1.000000000000000000 ) ) ;
#557 = SURFACE_STYLE_USAGE ( .BOTH. , #88 ) ;
#558 = ORIENTED_EDGE ( 'NONE', *, *, #516, .T. ) ;
#559 = AXIS2_PLACEMENT_3D ( 'NONE', #68, #362, #133 ) ;
#560 = LINE ( 'NONE', #554, #895 ) ;
#561 = EDGE_CURVE ( 'NONE', #765, #689, #365, .T. ) ;
#562 = PLANE ( 'NONE',  #42 ) ;
#563 = DIRECTION ( 'NONE',  ( 0.000000000000000000, -0.000000000000000000, 1.000000000000000000 ) ) ;
#564 = ORIENTED_EDGE ( 'NONE', *, *, #885, .T. ) ;
#565 = DIRECTION ( 'NONE',  ( 0.000000000000000000, 1.000000000000000000, 0.000000000000000000 ) ) ;
#566 = CARTESIAN_POINT ( 'NONE',  ( 0.000000000000000000, 10.90000000000000036, 0.000000000000000000 ) ) ;
#567 = CARTESIAN_POINT ( 'NONE',  ( 11.25000000000000000, -16.00000000000000000, 6.150000000000000355 ) ) ;
#568 = EDGE_LOOP ( 'NONE', ( #840, #328, #534, #468 ) ) ;
#569 = CARTESIAN_POINT ( 'NONE',  ( 5.100000000000001421, 50.87307791313322980, 0.000000000000000000 ) ) ;
#570 = AXIS2_PLACEMENT_3D ( 'NONE', #47, #902, #455 ) ;
#571 = DIRECTION ( 'NONE',  ( 0.000000000000000000, 0.000000000000000000, 1.000000000000000000 ) ) ;
#572 = LINE ( 'NONE', #627, #817 ) ;
#573 = ORIENTED_EDGE ( 'NONE', *, *, #423, .F. ) ;
#574 = FACE_OUTER_BOUND ( 'NONE', #5, .T. ) ;
#575 = DIRECTION ( 'NONE',  ( 0.000000000000000000, 0.000000000000000000, 1.000000000000000000 ) ) ;
#576 = ORIENTED_EDGE ( 'NONE', *, *, #436, .F. ) ;
#577 = DIRECTION ( 'NONE',  ( 0.000000000000000000, 0.000000000000000000, -1.000000000000000000 ) ) ;
#578 = DIRECTION ( 'NONE',  ( -1.000000000000000000, 0.000000000000000000, 1.445602896647339163E-16 ) ) ;
#579 = ORIENTED_EDGE ( 'NONE', *, *, #917, .F. ) ;
#580 = CARTESIAN_POINT ( 'NONE',  ( 5.100000000000001421, 6.799999999999999822, -5.899999999999997691 ) ) ;
#581 = ADVANCED_FACE ( 'NONE', ( #882 ), #659, .F. ) ;
#582 = CARTESIAN_POINT ( 'NONE',  ( 0.000000000000000000, 2.399999999999999911, 0.000000000000000000 ) ) ;
#583 = VERTEX_POINT ( 'NONE', #446 ) ;
#584 = CARTESIAN_POINT ( 'NONE',  ( -13.74999999999999822, 2.399999999999999911, 1.350000000000004086 ) ) ;
#585 = DIRECTION ( 'NONE',  ( -0.000000000000000000, 1.000000000000000000, -0.000000000000000000 ) ) ;
#586 = ORIENTED_EDGE ( 'NONE', *, *, #97, .F. ) ;
#587 = CIRCLE ( 'NONE', #156, 5.899999999999997691 ) ;
#588 = FACE_OUTER_BOUND ( 'NONE', #364, .T. ) ;
#589 = CARTESIAN_POINT ( 'NONE',  ( -0.8999999999999985789, 10.90000000000000036, -2.899999999999999023 ) ) ;
#590 = VERTEX_POINT ( 'NONE', #589 ) ;
#591 = EDGE_CURVE ( 'NONE', #856, #746, #951, .T. ) ;
#592 = DIRECTION ( 'NONE',  ( -0.000000000000000000, -1.000000000000000000, -0.000000000000000000 ) ) ;
#593 = DIRECTION ( 'NONE',  ( 0.000000000000000000, 0.000000000000000000, 1.000000000000000000 ) ) ;
#594 = CARTESIAN_POINT ( 'NONE',  ( -16.10000000000000142, 0.000000000000000000, 6.150000000000000355 ) ) ;
#595 = EDGE_LOOP ( 'NONE', ( #653, #63, #670, #84 ) ) ;
#596 =( GEOMETRIC_REPRESENTATION_CONTEXT ( 3 ) GLOBAL_UNCERTAINTY_ASSIGNED_CONTEXT ( ( #757 ) ) GLOBAL_UNIT_ASSIGNED_CONTEXT ( ( #989, #445, #456 ) ) REPRESENTATION_CONTEXT ( 'NONE', 'WORKASPACE' ) );
#597 = DIRECTION ( 'NONE',  ( 0.000000000000000000, -0.000000000000000000, 1.000000000000000000 ) ) ;
#598 = DIRECTION ( 'NONE',  ( 0.000000000000000000, 0.000000000000000000, 1.000000000000000000 ) ) ;
#599 = CARTESIAN_POINT ( 'NONE',  ( 5.100000000000001421, 36.08772003600251566, 0.000000000000000000 ) ) ;
#600 = LINE ( 'NONE', #240, #602 ) ;
#601 = ORIENTED_EDGE ( 'NONE', *, *, #561, .T. ) ;
#602 = VECTOR ( 'NONE', #842, 1000.000000000000000 ) ;
#603 = AXIS2_PLACEMENT_3D ( 'NONE', #566, #732, #712 ) ;
#604 = FACE_OUTER_BOUND ( 'NONE', #145, .T. ) ;
#605 =( NAMED_UNIT ( * ) PLANE_ANGLE_UNIT ( ) SI_UNIT ( $, .RADIAN. ) );
#606 = CARTESIAN_POINT ( 'NONE',  ( -13.74999999999999822, 0.000000000000000000, 1.350000000000004086 ) ) ;
#607 = DIRECTION ( 'NONE',  ( -0.000000000000000000, -1.000000000000000000, -0.000000000000000000 ) ) ;
#608 = CARTESIAN_POINT ( 'NONE',  ( 16.10000000000000142, 0.000000000000000000, 6.149999999999995914 ) ) ;
#609 = ORIENTED_EDGE ( 'NONE', *, *, #312, .T. ) ;
#610 = CARTESIAN_POINT ( 'NONE',  ( 5.100000000000001421, 36.08772003600251566, 0.000000000000000000 ) ) ;
#611 = CARTESIAN_POINT ( 'NONE',  ( -16.10000000000000142, 0.000000000000000000, 6.150000000000000355 ) ) ;
#612 = EDGE_CURVE ( 'NONE', #650, #261, #969, .T. ) ;
#613 = ORIENTED_EDGE ( 'NONE', *, *, #661, .F. ) ;
#614 = EDGE_CURVE ( 'NONE', #3, #686, #385, .T. ) ;
#615 = ORIENTED_EDGE ( 'NONE', *, *, #976, .T. ) ;
#616 =( GEOMETRIC_REPRESENTATION_CONTEXT ( 3 ) GLOBAL_UNCERTAINTY_ASSIGNED_CONTEXT ( ( #398 ) ) GLOBAL_UNIT_ASSIGNED_CONTEXT ( ( #903, #605, #814 ) ) REPRESENTATION_CONTEXT ( 'NONE', 'WORKASPACE' ) );
#617 = DIRECTION ( 'NONE',  ( 0.000000000000000000, -0.000000000000000000, 1.000000000000000000 ) ) ;
#618 = ORIENTED_EDGE ( 'NONE', *, *, #300, .T. ) ;
#619 = EDGE_LOOP ( 'NONE', ( #295, #495, #924, #433 ) ) ;
#620 = STYLED_ITEM ( 'NONE', ( #717 ), #123 ) ;
#621 = CYLINDRICAL_SURFACE ( 'NONE', #916, 2.899999999999999911 ) ;
#622 = ORIENTED_EDGE ( 'NONE', *, *, #680, .F. ) ;
#623 = EDGE_LOOP ( 'NONE', ( #702, #196 ) ) ;
#624 = EDGE_CURVE ( 'NONE', #439, #334, #647, .T. ) ;
#625 = LINE ( 'NONE', #487, #676 ) ;
#626 = CYLINDRICAL_SURFACE ( 'NONE', #139, 1.350000000000000533 ) ;
#627 = CARTESIAN_POINT ( 'NONE',  ( -16.10000000000000142, 0.000000000000000000, -6.150000000000000355 ) ) ;
#628 = ORIENTED_EDGE ( 'NONE', *, *, #850, .T. ) ;
#629 = DIRECTION ( 'NONE',  ( 0.000000000000000000, 0.000000000000000000, 1.000000000000000000 ) ) ;
#630 = CARTESIAN_POINT ( 'NONE',  ( -16.10000000000000142, 2.399999999999999911, -6.150000000000000355 ) ) ;
#631 = ORIENTED_EDGE ( 'NONE', *, *, #827, .F. ) ;
#632 = VECTOR ( 'NONE', #794, 1000.000000000000000 ) ;
#633 = VECTOR ( 'NONE', #140, 1000.000000000000000 ) ;
#634 = CARTESIAN_POINT ( 'NONE',  ( -0.03809303146604884477, 6.800000000000000711, 2.900000000000000799 ) ) ;
#635 = DIRECTION ( 'NONE',  ( 0.000000000000000000, -0.000000000000000000, 1.000000000000000000 ) ) ;
#636 = ORIENTED_EDGE ( 'NONE', *, *, #97, .T. ) ;
#637 = CARTESIAN_POINT ( 'NONE',  ( 13.75000000000000178, 0.000000000000000000, 0.000000000000000000 ) ) ;
#638 = DIRECTION ( 'NONE',  ( -0.000000000000000000, 1.000000000000000000, 0.000000000000000000 ) ) ;
#639 = LINE ( 'NONE', #165, #366 ) ;
#640 = ADVANCED_FACE ( 'NONE', ( #235 ), #621, .T. ) ;
#641 = ORIENTED_EDGE ( 'NONE', *, *, #238, .T. ) ;
#642 = CARTESIAN_POINT ( 'NONE',  ( 5.100000000000000533, 10.90000000000000036, -2.899999999999999911 ) ) ;
#643 = CARTESIAN_POINT ( 'NONE',  ( -11.25000000000000000, 2.399999999999999911, 6.149999999999999467 ) ) ;
#644 = VERTEX_POINT ( 'NONE', #396 ) ;
#645 = LINE ( 'NONE', #952, #707 ) ;
#646 = CARTESIAN_POINT ( 'NONE',  ( 11.25000000000000000, -16.00000000000000000, -6.150000000000000355 ) ) ;
#647 = CIRCLE ( 'NONE', #90, 2.429999999999998384 ) ;
#648 = DIRECTION ( 'NONE',  ( 0.000000000000000000, 0.000000000000000000, -1.000000000000000000 ) ) ;
#649 = VECTOR ( 'NONE', #713, 1000.000000000000000 ) ;
#650 = VERTEX_POINT ( 'NONE', #772 ) ;
#651 = CARTESIAN_POINT ( 'NONE',  ( -0.03809303146604797741, 36.08772003600251566, -2.899999999999999023 ) ) ;
#652 = LINE ( 'NONE', #354, #303 ) ;
#653 = ORIENTED_EDGE ( 'NONE', *, *, #312, .F. ) ;
#654 = AXIS2_PLACEMENT_3D ( 'NONE', #853, #410, #704 ) ;
#655 = PLANE ( 'NONE',  #492 ) ;
#656 = ADVANCED_FACE ( 'NONE', ( #921 ), #756, .F. ) ;
#657 = DIRECTION ( 'NONE',  ( -0.000000000000000000, -1.000000000000000000, -0.000000000000000000 ) ) ;
#658 = ORIENTED_EDGE ( 'NONE', *, *, #244, .T. ) ;
#659 = CYLINDRICAL_SURFACE ( 'NONE', #169, 1.350000000000000533 ) ;
#660 = VERTEX_POINT ( 'NONE', #693 ) ;
#661 = EDGE_CURVE ( 'NONE', #186, #722, #316, .T. ) ;
#662 = CYLINDRICAL_SURFACE ( 'NONE', #16, 5.899999999999997691 ) ;
#663 = DIRECTION ( 'NONE',  ( 0.000000000000000000, 0.000000000000000000, -1.000000000000000000 ) ) ;
#664 = ORIENTED_EDGE ( 'NONE', *, *, #77, .F. ) ;
#665 = EDGE_CURVE ( 'NONE', #46, #650, #389, .T. ) ;
#666 = DIRECTION ( 'NONE',  ( 1.000000000000000000, 0.000000000000000000, 0.000000000000000000 ) ) ;
#667 = DIRECTION ( 'NONE',  ( 0.000000000000000000, 1.000000000000000000, 0.000000000000000000 ) ) ;
#668 = FACE_OUTER_BOUND ( 'NONE', #248, .T. ) ;
#669 = DIRECTION ( 'NONE',  ( 0.000000000000000000, 0.000000000000000000, 1.000000000000000000 ) ) ;
#670 = ORIENTED_EDGE ( 'NONE', *, *, #729, .T. ) ;
#671 = DIRECTION ( 'NONE',  ( 1.000000000000000000, 0.000000000000000000, -1.445602896647339163E-16 ) ) ;
#672 = EDGE_CURVE ( 'NONE', #765, #644, #685, .T. ) ;
#673 = CARTESIAN_POINT ( 'NONE',  ( 5.100000000000000533, -6.348383931114878642, -2.899999999999999911 ) ) ;
#674 = VECTOR ( 'NONE', #62, 1000.000000000000000 ) ;
#675 = ORIENTED_EDGE ( 'NONE', *, *, #705, .T. ) ;
#676 = VECTOR ( 'NONE', #245, 1000.000000000000000 ) ;
#677 = DIRECTION ( 'NONE',  ( 0.000000000000000000, -1.000000000000000000, -0.000000000000000000 ) ) ;
#678 = ORIENTED_EDGE ( 'NONE', *, *, #698, .T. ) ;
#679 = VECTOR ( 'NONE', #537, 1000.000000000000000 ) ;
#680 = EDGE_CURVE ( 'NONE', #349, #150, #560, .T. ) ;
#681 = CARTESIAN_POINT ( 'NONE',  ( -16.10000000000000142, 2.399999999999999911, -6.150000000000000355 ) ) ;
#682 = EDGE_CURVE ( 'NONE', #915, #402, #479, .T. ) ;
#683 = ORIENTED_EDGE ( 'NONE', *, *, #361, .F. ) ;
#684 = EDGE_LOOP ( 'NONE', ( #928, #265 ) ) ;
#685 = LINE ( 'NONE', #834, #216 ) ;
#686 = VERTEX_POINT ( 'NONE', #550 ) ;
#687 = ORIENTED_EDGE ( 'NONE', *, *, #390, .T. ) ;
#688 = DIRECTION ( 'NONE',  ( -0.000000000000000000, 1.000000000000000000, -0.000000000000000000 ) ) ;
#689 = VERTEX_POINT ( 'NONE', #167 ) ;
#690 = ORIENTED_EDGE ( 'NONE', *, *, #484, .F. ) ;
#691 = CIRCLE ( 'NONE', #397, 1.350000000000000533 ) ;
#692 = CIRCLE ( 'NONE', #897, 2.429999999999998384 ) ;
#693 = CARTESIAN_POINT ( 'NONE',  ( 5.100000000000001421, 13.99999999999999822, -2.429999999999998384 ) ) ;
#694 = CARTESIAN_POINT ( 'NONE',  ( 13.75000000000000178, 0.000000000000000000, 0.000000000000000000 ) ) ;
#695 = FILL_AREA_STYLE ('',( #784 ) ) ;
#696 = EDGE_CURVE ( 'NONE', #150, #131, #470, .T. ) ;
#697 = EDGE_LOOP ( 'NONE', ( #779, #230, #120, #41 ) ) ;
#698 = EDGE_CURVE ( 'NONE', #689, #583, #625, .T. ) ;
#699 = DIRECTION ( 'NONE',  ( 0.000000000000000000, 1.000000000000000000, -0.000000000000000000 ) ) ;
#700 = CARTESIAN_POINT ( 'NONE',  ( -11.25000000000000000, -16.00000000000000000, 6.150000000000000355 ) ) ;
#701 = DIRECTION ( 'NONE',  ( 0.000000000000000000, 0.000000000000000000, -1.000000000000000000 ) ) ;
#702 = ORIENTED_EDGE ( 'NONE', *, *, #561, .F. ) ;
#703 = PRODUCT_DEFINITION_FORMATION_WITH_SPECIFIED_SOURCE ( 'ANY', '', #225, .NOT_KNOWN. ) ;
#704 = DIRECTION ( 'NONE',  ( 0.000000000000000000, 0.000000000000000000, 1.000000000000000000 ) ) ;
#705 = EDGE_CURVE ( 'NONE', #172, #832, #254, .T. ) ;
#706 = FACE_OUTER_BOUND ( 'NONE', #907, .T. ) ;
#707 = VECTOR ( 'NONE', #565, 1000.000000000000000 ) ;
#708 = DIRECTION ( 'NONE',  ( 0.000000000000000000, 0.000000000000000000, 1.000000000000000000 ) ) ;
#709 = ORIENTED_EDGE ( 'NONE', *, *, #672, .F. ) ;
#710 = CYLINDRICAL_SURFACE ( 'NONE', #753, 1.350000000000000533 ) ;
#711 = VECTOR ( 'NONE', #276, 1000.000000000000000 ) ;
#712 = DIRECTION ( 'NONE',  ( 0.000000000000000000, -0.000000000000000000, 1.000000000000000000 ) ) ;
#713 = DIRECTION ( 'NONE',  ( 1.000000000000000000, 0.000000000000000000, -1.346834996876403062E-16 ) ) ;
#714 = EDGE_LOOP ( 'NONE', ( #675, #628 ) ) ;
#715 = DIRECTION ( 'NONE',  ( -0.000000000000000000, 1.000000000000000000, 0.000000000000000000 ) ) ;
#716 = FACE_OUTER_BOUND ( 'NONE', #595, .T. ) ;
#717 = PRESENTATION_STYLE_ASSIGNMENT (( #557 ) ) ;
#718 = ORIENTED_EDGE ( 'NONE', *, *, #148, .T. ) ;
#719 = CARTESIAN_POINT ( 'NONE',  ( -11.25000000000000000, 6.799999999999999822, -6.150000000000000355 ) ) ;
#720 = DIRECTION ( 'NONE',  ( -0.000000000000000000, 1.000000000000000000, -0.000000000000000000 ) ) ;
#721 = DIRECTION ( 'NONE',  ( 0.000000000000000000, 1.000000000000000000, 0.000000000000000000 ) ) ;
#722 = VERTEX_POINT ( 'NONE', #475 ) ;
#723 = LINE ( 'NONE', #43, #243 ) ;
#724 = VECTOR ( 'NONE', #750, 1000.000000000000000 ) ;
#725 = FACE_OUTER_BOUND ( 'NONE', #868, .T. ) ;
#726 = VECTOR ( 'NONE', #854, 1000.000000000000000 ) ;
#727 = AXIS2_PLACEMENT_3D ( 'NONE', #189, #788, #258 ) ;
#728 = ORIENTED_EDGE ( 'NONE', *, *, #808, .F. ) ;
#729 = EDGE_CURVE ( 'NONE', #660, #334, #13, .T. ) ;
#730 = EDGE_CURVE ( 'NONE', #150, #983, #986, .T. ) ;
#731 = FACE_OUTER_BOUND ( 'NONE', #111, .T. ) ;
#732 = DIRECTION ( 'NONE',  ( -0.000000000000000000, 1.000000000000000000, 0.000000000000000000 ) ) ;
#733 = EDGE_LOOP ( 'NONE', ( #631, #319, #320, #615, #69, #687, #281, #463, #344, #460, #790, #147 ) ) ;
#734 = FACE_OUTER_BOUND ( 'NONE', #955, .T. ) ;
#735 = ORIENTED_EDGE ( 'NONE', *, *, #850, .F. ) ;
#736 = FACE_BOUND ( 'NONE', #75, .T. ) ;
#737 = DIRECTION ( 'NONE',  ( 0.000000000000000000, 1.000000000000000000, 0.000000000000000000 ) ) ;
#738 = VECTOR ( 'NONE', #805, 1000.000000000000000 ) ;
#739 = ORIENTED_EDGE ( 'NONE', *, *, #763, .T. ) ;
#740 = CARTESIAN_POINT ( 'NONE',  ( 0.000000000000000000, 0.000000000000000000, 0.000000000000000000 ) ) ;
#741 = CARTESIAN_POINT ( 'NONE',  ( 11.25000000000000000, -16.00000000000000000, 6.150000000000000355 ) ) ;
#742 = ORIENTED_EDGE ( 'NONE', *, *, #227, .F. ) ;
#743 = DIRECTION ( 'NONE',  ( 0.000000000000000000, 1.000000000000000000, -0.000000000000000000 ) ) ;
#744 = PLANE ( 'NONE',  #51 ) ;
#745 = CARTESIAN_POINT ( 'NONE',  ( -0.03809303146604797741, 36.08772003600251566, 2.900000000000000799 ) ) ;
#746 = VERTEX_POINT ( 'NONE', #307 ) ;
#747 = STYLED_ITEM ( 'NONE', ( #137 ), #353 ) ;
#748 = LINE ( 'NONE', #483, #529 ) ;
#749 = ORIENTED_EDGE ( 'NONE', *, *, #905, .T. ) ;
#750 = DIRECTION ( 'NONE',  ( -0.000000000000000000, -1.000000000000000000, -0.000000000000000000 ) ) ;
#751 = VECTOR ( 'NONE', #737, 1000.000000000000000 ) ;
#752 = ORIENTED_EDGE ( 'NONE', *, *, #698, .F. ) ;
#753 = AXIS2_PLACEMENT_3D ( 'NONE', #637, #271, #31 ) ;
#754 = VERTEX_POINT ( 'NONE', #611 ) ;
#755 = VECTOR ( 'NONE', #190, 1000.000000000000000 ) ;
#756 = CYLINDRICAL_SURFACE ( 'NONE', #416, 0.8000000000000009326 ) ;
#757 = UNCERTAINTY_MEASURE_WITH_UNIT (LENGTH_MEASURE( 1.000000000000000082E-05 ), #989, 'distance_accuracy_value', 'NONE');
#758 = ORIENTED_EDGE ( 'NONE', *, *, #672, .T. ) ;
#759 = ORIENTED_EDGE ( 'NONE', *, *, #260, .F. ) ;
#760 = AXIS2_PLACEMENT_3D ( 'NONE', #863, #782, #577 ) ;
#761 = CARTESIAN_POINT ( 'NONE',  ( 0.000000000000000000, 10.90000000000000036, 0.000000000000000000 ) ) ;
#762 = ADVANCED_FACE ( 'NONE', ( #830 ), #78, .T. ) ;
#763 = EDGE_CURVE ( 'NONE', #785, #223, #914, .T. ) ;
#764 = VERTEX_POINT ( 'NONE', #4 ) ;
#765 = VERTEX_POINT ( 'NONE', #491 ) ;
#766 = CARTESIAN_POINT ( 'NONE',  ( 11.25000000000000000, 0.000000000000000000, -6.150000000000000355 ) ) ;
#767 = ADVANCED_FACE ( 'NONE', ( #936 ), #710, .F. ) ;
#768 = DIRECTION ( 'NONE',  ( 0.000000000000000000, 1.000000000000000000, 0.000000000000000000 ) ) ;
#769 = DIRECTION ( 'NONE',  ( -0.000000000000000000, 1.000000000000000000, 0.000000000000000000 ) ) ;
#770 = ORIENTED_EDGE ( 'NONE', *, *, #956, .F. ) ;
#771 = MECHANICAL_DESIGN_GEOMETRIC_PRESENTATION_REPRESENTATION (  '', ( #620 ), #318 ) ;
#772 = CARTESIAN_POINT ( 'NONE',  ( 11.25000000000000000, 0.000000000000000000, 6.150000000000000355 ) ) ;
#773 = DIRECTION ( 'NONE',  ( -0.000000000000000000, -1.000000000000000000, -0.000000000000000000 ) ) ;
#774 = LINE ( 'NONE', #849, #220 ) ;
#775 = ORIENTED_EDGE ( 'NONE', *, *, #807, .F. ) ;
#776 = DIRECTION ( 'NONE',  ( 0.000000000000000000, 0.000000000000000000, 1.000000000000000000 ) ) ;
#777 = FACE_OUTER_BOUND ( 'NONE', #358, .T. ) ;
#778 = CARTESIAN_POINT ( 'NONE',  ( 11.25000000000000000, 2.399999999999999911, -6.149999999999996803 ) ) ;
#779 = ORIENTED_EDGE ( 'NONE', *, *, #54, .T. ) ;
#780 = EDGE_CURVE ( 'NONE', #443, #590, #27, .T. ) ;
#781 = CIRCLE ( 'NONE', #343, 2.429999999999998384 ) ;
#782 = DIRECTION ( 'NONE',  ( 0.000000000000000000, 1.000000000000000000, -0.000000000000000000 ) ) ;
#783 = DIRECTION ( 'NONE',  ( 0.000000000000000000, 0.000000000000000000, -1.000000000000000000 ) ) ;
#784 = FILL_AREA_STYLE_COLOUR ( '', #59 ) ;
#785 = VERTEX_POINT ( 'NONE', #37 ) ;
#786 = VECTOR ( 'NONE', #925, 1000.000000000000000 ) ;
#787 = DIRECTION ( 'NONE',  ( 0.000000000000000000, 0.000000000000000000, -1.000000000000000000 ) ) ;
#788 = DIRECTION ( 'NONE',  ( 0.000000000000000000, 1.000000000000000000, 0.000000000000000000 ) ) ;
#789 = DIRECTION ( 'NONE',  ( -1.000000000000000000, 0.000000000000000000, 0.000000000000000000 ) ) ;
#790 = ORIENTED_EDGE ( 'NONE', *, *, #484, .T. ) ;
#791 = CARTESIAN_POINT ( 'NONE',  ( 16.10000000000000142, 2.399999999999999911, 6.149999999999995914 ) ) ;
#792 = CARTESIAN_POINT ( 'NONE',  ( 13.75000000000000178, 0.000000000000000000, 0.000000000000000000 ) ) ;
#793 = ORIENTED_EDGE ( 'NONE', *, *, #827, .T. ) ;
#794 = DIRECTION ( 'NONE',  ( -1.000000000000000000, 0.000000000000000000, 1.445602896647339163E-16 ) ) ;
#795 = LINE ( 'NONE', #184, #726 ) ;
#796 = EDGE_CURVE ( 'NONE', #391, #806, #340, .T. ) ;
#797 = AXIS2_PLACEMENT_3D ( 'NONE', #425, #511, #946 ) ;
#798 = EDGE_LOOP ( 'NONE', ( #79, #135 ) ) ;
#799 = EDGE_CURVE ( 'NONE', #402, #915, #38, .T. ) ;
#800 = LINE ( 'NONE', #523, #891 ) ;
#801 = AXIS2_PLACEMENT_3D ( 'NONE', #163, #699, #480 ) ;
#802 = DIRECTION ( 'NONE',  ( 0.000000000000000000, 1.000000000000000000, 0.000000000000000000 ) ) ;
#803 = VECTOR ( 'NONE', #29, 1000.000000000000000 ) ;
#804 = ORIENTED_EDGE ( 'NONE', *, *, #89, .F. ) ;
#805 = DIRECTION ( 'NONE',  ( -0.000000000000000000, 1.000000000000000000, -0.000000000000000000 ) ) ;
#806 = VERTEX_POINT ( 'NONE', #183 ) ;
#807 = EDGE_CURVE ( 'NONE', #237, #394, #378, .T. ) ;
#808 = EDGE_CURVE ( 'NONE', #959, #424, #197, .T. ) ;
#809 = PLANE ( 'NONE',  #359 ) ;
#810 = DIRECTION ( 'NONE',  ( 0.000000000000000000, -0.000000000000000000, 1.000000000000000000 ) ) ;
#811 = ORIENTED_EDGE ( 'NONE', *, *, #807, .T. ) ;
#812 = ORIENTED_EDGE ( 'NONE', *, *, #65, .F. ) ;
#813 = DIRECTION ( 'NONE',  ( -0.000000000000000000, -1.000000000000000000, -0.000000000000000000 ) ) ;
#814 =( NAMED_UNIT ( * ) SI_UNIT ( $, .STERADIAN. ) SOLID_ANGLE_UNIT ( ) );
#815 = CARTESIAN_POINT ( 'NONE',  ( 5.100000000000001421, 6.799999999999999822, 0.000000000000000000 ) ) ;
#816 = CARTESIAN_POINT ( 'NONE',  ( -16.10000000000000142, 2.399999999999999911, -6.150000000000000355 ) ) ;
#817 = VECTOR ( 'NONE', #943, 1000.000000000000000 ) ;
#818 = DIRECTION ( 'NONE',  ( 0.000000000000000000, -0.000000000000000000, 1.000000000000000000 ) ) ;
#819 = DIRECTION ( 'NONE',  ( 1.000000000000000000, -0.000000000000000000, -1.445602896647339163E-16 ) ) ;
#820 = DIRECTION ( 'NONE',  ( -1.445602896647339163E-16, 0.000000000000000000, -1.000000000000000000 ) ) ;
#821 = ORIENTED_EDGE ( 'NONE', *, *, #134, .T. ) ;
#822 = DIRECTION ( 'NONE',  ( 0.000000000000000000, 1.000000000000000000, 0.000000000000000000 ) ) ;
#823 = ORIENTED_EDGE ( 'NONE', *, *, #696, .F. ) ;
#824 = CARTESIAN_POINT ( 'NONE',  ( 13.75000000000000178, 2.399999999999999911, 0.000000000000000000 ) ) ;
#825 = PRESENTATION_LAYER_ASSIGNMENT (  '', '', ( #747 ) ) ;
#826 = ORIENTED_EDGE ( 'NONE', *, *, #275, .F. ) ;
#827 = EDGE_CURVE ( 'NONE', #313, #806, #645, .T. ) ;
#828 = ORIENTED_EDGE ( 'NONE', *, *, #852, .F. ) ;
#829 = DIRECTION ( 'NONE',  ( 0.000000000000000000, 1.000000000000000000, 0.000000000000000000 ) ) ;
#830 = FACE_OUTER_BOUND ( 'NONE', #623, .T. ) ;
#831 = ORIENTED_EDGE ( 'NONE', *, *, #436, .T. ) ;
#832 = VERTEX_POINT ( 'NONE', #430 ) ;
#833 = AXIS2_PLACEMENT_3D ( 'NONE', #599, #607, #898 ) ;
#834 = CARTESIAN_POINT ( 'NONE',  ( 5.100000000000001421, 8.637258300203045636, 0.8000000000000009326 ) ) ;
#835 = ORIENTED_EDGE ( 'NONE', *, *, #451, .F. ) ;
#836 = ORIENTED_EDGE ( 'NONE', *, *, #705, .F. ) ;
#837 = CARTESIAN_POINT ( 'NONE',  ( 5.100000000000001421, 10.90000000000000036, 0.000000000000000000 ) ) ;
#838 = CARTESIAN_POINT ( 'NONE',  ( 5.100000000000002309, 6.799999999999999822, 5.899999999999997691 ) ) ;
#839 = PLANE ( 'NONE',  #399 ) ;
#840 = ORIENTED_EDGE ( 'NONE', *, *, #485, .T. ) ;
#841 = CARTESIAN_POINT ( 'NONE',  ( -16.10000000000000142, 0.000000000000000000, -6.150000000000000355 ) ) ;
#842 = DIRECTION ( 'NONE',  ( 1.000000000000000000, 0.000000000000000000, -1.346834996876403062E-16 ) ) ;
#843 =( LENGTH_UNIT ( ) NAMED_UNIT ( * ) SI_UNIT ( .MILLI., .METRE. ) );
#844 = ORIENTED_EDGE ( 'NONE', *, *, #730, .F. ) ;
#845 = VECTOR ( 'NONE', #578, 1000.000000000000000 ) ;
#846 = VECTOR ( 'NONE', #802, 1000.000000000000000 ) ;
#847 = CARTESIAN_POINT ( 'NONE',  ( -0.8999999999999989120, -6.348383931114878642, 8.143901214329899777E-16 ) ) ;
#848 = PLANE ( 'NONE',  #935 ) ;
#849 = CARTESIAN_POINT ( 'NONE',  ( -0.8999999999999986899, -6.348383931114878642, 2.900000000000000799 ) ) ;
#850 = EDGE_CURVE ( 'NONE', #832, #172, #82, .T. ) ;
#851 = EDGE_LOOP ( 'NONE', ( #828, #579, #519, #507 ) ) ;
#852 = EDGE_CURVE ( 'NONE', #746, #443, #330, .T. ) ;
#853 = CARTESIAN_POINT ( 'NONE',  ( -11.25000000000000000, -16.00000000000000000, -6.150000000000000355 ) ) ;
#854 = DIRECTION ( 'NONE',  ( -0.000000000000000000, -1.000000000000000000, -0.000000000000000000 ) ) ;
#855 = DIRECTION ( 'NONE',  ( -0.000000000000000000, -0.000000000000000000, -1.000000000000000000 ) ) ;
#856 = VERTEX_POINT ( 'NONE', #580 ) ;
#857 = VECTOR ( 'NONE', #218, 1000.000000000000000 ) ;
#858 = FACE_OUTER_BOUND ( 'NONE', #286, .T. ) ;
#859 = CARTESIAN_POINT ( 'NONE',  ( 0.000000000000000000, 6.799999999999999822, 0.000000000000000000 ) ) ;
#860 = PLANE ( 'NONE',  #418 ) ;
#861 = ORIENTED_EDGE ( 'NONE', *, *, #680, .T. ) ;
#862 = AXIS2_PLACEMENT_3D ( 'NONE', #280, #904, #226 ) ;
#863 = CARTESIAN_POINT ( 'NONE',  ( -13.74999999999999822, 0.000000000000000000, 3.367778697655221307E-15 ) ) ;
#864 = AXIS2_PLACEMENT_3D ( 'NONE', #322, #822, #141 ) ;
#865 = ADVANCED_FACE ( 'NONE', ( #188 ), #869, .F. ) ;
#866 = CARTESIAN_POINT ( 'NONE',  ( 5.100000000000001421, 50.87307791313322980, 0.000000000000000000 ) ) ;
#867 = LINE ( 'NONE', #347, #755 ) ;
#868 = EDGE_LOOP ( 'NONE', ( #486, #549, #7, #30 ) ) ;
#869 = PLANE ( 'NONE',  #538 ) ;
#870 = EDGE_CURVE ( 'NONE', #910, #391, #257, .T. ) ;
#871 = PLANE ( 'NONE',  #980 ) ;
#872 = EDGE_LOOP ( 'NONE', ( #522, #923, #306, #386 ) ) ;
#873 = AXIS2_PLACEMENT_3D ( 'NONE', #203, #666, #530 ) ;
#874 = ADVANCED_FACE ( 'NONE', ( #103 ), #100, .T. ) ;
#875 = FACE_BOUND ( 'NONE', #392, .T. ) ;
#876 = EDGE_CURVE ( 'NONE', #394, #590, #723, .T. ) ;
#877 = ADVANCED_FACE ( 'NONE', ( #858 ), #262, .T. ) ;
#878 = VECTOR ( 'NONE', #352, 1000.000000000000000 ) ;
#879 = ORIENTED_EDGE ( 'NONE', *, *, #34, .T. ) ;
#880 = LINE ( 'NONE', #367, #428 ) ;
#881 = AXIS2_PLACEMENT_3D ( 'NONE', #673, #820, #73 ) ;
#882 = FACE_OUTER_BOUND ( 'NONE', #91, .T. ) ;
#883 = VECTOR ( 'NONE', #332, 1000.000000000000000 ) ;
#884 = ORIENTED_EDGE ( 'NONE', *, *, #591, .F. ) ;
#885 = EDGE_CURVE ( 'NONE', #234, #443, #408, .T. ) ;
#886 = PRODUCT_DEFINITION_SHAPE ( 'NONE', 'NONE',  #489 ) ;
#887 = CARTESIAN_POINT ( 'NONE',  ( 13.75000000000000178, 0.000000000000000000, 1.350000000000000533 ) ) ;
#888 = ORIENTED_EDGE ( 'NONE', *, *, #533, .F. ) ;
#889 = DIRECTION ( 'NONE',  ( 0.000000000000000000, 0.000000000000000000, 1.000000000000000000 ) ) ;
#890 = DIRECTION ( 'NONE',  ( 0.000000000000000000, 1.000000000000000000, 0.000000000000000000 ) ) ;
#891 = VECTOR ( 'NONE', #813, 1000.000000000000000 ) ;
#892 = ORIENTED_EDGE ( 'NONE', *, *, #153, .F. ) ;
#893 = FACE_OUTER_BOUND ( 'NONE', #419, .T. ) ;
#894 = CARTESIAN_POINT ( 'NONE',  ( 5.100000000000001421, 36.08772003600251566, -5.899999999999997691 ) ) ;
#895 = VECTOR ( 'NONE', #9, 1000.000000000000000 ) ;
#896 = PRODUCT_DEFINITION_CONTEXT ( 'detailed design', #939, 'design' ) ;
#897 = AXIS2_PLACEMENT_3D ( 'NONE', #95, #253, #405 ) ;
#898 = DIRECTION ( 'NONE',  ( 0.000000000000000000, 0.000000000000000000, -1.000000000000000000 ) ) ;
#899 = AXIS2_PLACEMENT_3D ( 'NONE', #422, #412, #708 ) ;
#900 = CARTESIAN_POINT ( 'NONE',  ( -11.25000000000000000, 2.399999999999999467, -6.150000000000000355 ) ) ;
#901 = ORIENTED_EDGE ( 'NONE', *, *, #403, .F. ) ;
#902 = DIRECTION ( 'NONE',  ( 0.000000000000000000, 0.000000000000000000, -1.000000000000000000 ) ) ;
#903 =( LENGTH_UNIT ( ) NAMED_UNIT ( * ) SI_UNIT ( .MILLI., .METRE. ) );
#904 = DIRECTION ( 'NONE',  ( 0.000000000000000000, 1.000000000000000000, 0.000000000000000000 ) ) ;
#905 = EDGE_CURVE ( 'NONE', #510, #200, #800, .T. ) ;
#906 = EDGE_LOOP ( 'NONE', ( #735, #879, #157, #241 ) ) ;
#907 = EDGE_LOOP ( 'NONE', ( #901, #540, #573, #127 ) ) ;
#908 = DIRECTION ( 'NONE',  ( 0.000000000000000000, 1.000000000000000000, -0.000000000000000000 ) ) ;
#909 = AXIS2_PLACEMENT_3D ( 'NONE', #420, #715, #889 ) ;
#910 = VERTEX_POINT ( 'NONE', #124 ) ;
#911 = ADVANCED_FACE ( 'NONE', ( #965 ), #56, .T. ) ;
#912 = ORIENTED_EDGE ( 'NONE', *, *, #696, .T. ) ;
#913 = ADVANCED_FACE ( 'NONE', ( #299, #356 ), #207, .T. ) ;
#914 = LINE ( 'NONE', #393, #106 ) ;
#915 = VERTEX_POINT ( 'NONE', #584 ) ;
#916 = AXIS2_PLACEMENT_3D ( 'NONE', #847, #86, #547 ) ;
#917 = EDGE_CURVE ( 'NONE', #394, #746, #880, .T. ) ;
#918 = ORIENTED_EDGE ( 'NONE', *, *, #917, .T. ) ;
#919 = VECTOR ( 'NONE', #855, 1000.000000000000000 ) ;
#920 = ADVANCED_FACE ( 'NONE', ( #731 ), #520, .T. ) ;
#921 = FACE_OUTER_BOUND ( 'NONE', #297, .T. ) ;
#922 = DIRECTION ( 'NONE',  ( 0.000000000000000000, 0.000000000000000000, 1.000000000000000000 ) ) ;
#923 = ORIENTED_EDGE ( 'NONE', *, *, #403, .T. ) ;
#924 = ORIENTED_EDGE ( 'NONE', *, *, #533, .T. ) ;
#925 = DIRECTION ( 'NONE',  ( 1.000000000000000000, 0.000000000000000000, -1.346834996876403062E-16 ) ) ;
#926 = FACE_BOUND ( 'NONE', #714, .T. ) ;
#927 = FACE_OUTER_BOUND ( 'NONE', #975, .T. ) ;
#928 = ORIENTED_EDGE ( 'NONE', *, *, #199, .F. ) ;
#929 = AXIS2_PLACEMENT_3D ( 'NONE', #210, #288, #597 ) ;
#930 = CARTESIAN_POINT ( 'NONE',  ( 16.10000000000000142, 2.399999999999999911, -6.149999999999995914 ) ) ;
#931 = DIRECTION ( 'NONE',  ( -0.000000000000000000, 1.000000000000000000, -0.000000000000000000 ) ) ;
#932 = EDGE_CURVE ( 'NONE', #764, #105, #52, .T. ) ;
#933 = ORIENTED_EDGE ( 'NONE', *, *, #498, .F. ) ;
#934 = VECTOR ( 'NONE', #251, 1000.000000000000000 ) ;
#935 = AXIS2_PLACEMENT_3D ( 'NONE', #700, #922, #454 ) ;
#936 = FACE_OUTER_BOUND ( 'NONE', #309, .T. ) ;
#937 = CARTESIAN_POINT ( 'NONE',  ( -11.25000000000000000, -16.00000000000000000, -6.150000000000000355 ) ) ;
#938 = CARTESIAN_POINT ( 'NONE',  ( -0.03809303146604884477, 10.90000000000000036, 2.900000000000000799 ) ) ;
#939 = APPLICATION_CONTEXT ( 'automotive_design' ) ;
#940 = VERTEX_POINT ( 'NONE', #360 ) ;
#941 = CARTESIAN_POINT ( 'NONE',  ( -11.25000000000000000, 6.799999999999999822, -6.150000000000000355 ) ) ;
#942 = CARTESIAN_POINT ( 'NONE',  ( -11.25000000000000000, 0.000000000000000000, -6.150000000000000355 ) ) ;
#943 = DIRECTION ( 'NONE',  ( -1.000000000000000000, -0.000000000000000000, -1.346834996876403062E-16 ) ) ;
#944 = ORIENTED_EDGE ( 'NONE', *, *, #682, .T. ) ;
#945 = ADVANCED_FACE ( 'NONE', ( #588 ), #809, .F. ) ;
#946 = DIRECTION ( 'NONE',  ( 0.000000000000000000, 0.000000000000000000, -1.000000000000000000 ) ) ;
#947 = LINE ( 'NONE', #421, #435 ) ;
#948 = CARTESIAN_POINT ( 'NONE',  ( 5.100000000000001421, 10.90000000000000036, 0.000000000000000000 ) ) ;
#949 = ORIENTED_EDGE ( 'NONE', *, *, #504, .T. ) ;
#950 = ADVANCED_FACE ( 'NONE', ( #736, #604 ), #655, .F. ) ;
#951 = CIRCLE ( 'NONE', #57, 5.899999999999997691 ) ;
#952 = CARTESIAN_POINT ( 'NONE',  ( -11.25000000000000000, -16.00000000000000000, 6.150000000000000355 ) ) ;
#953 = VECTOR ( 'NONE', #535, 1000.000000000000000 ) ;
#954 = DIRECTION ( 'NONE',  ( -0.000000000000000000, -0.000000000000000000, -1.000000000000000000 ) ) ;
#955 = EDGE_LOOP ( 'NONE', ( #728, #742, #664, #536 ) ) ;
#956 = EDGE_CURVE ( 'NONE', #785, #158, #474, .T. ) ;
#957 = CARTESIAN_POINT ( 'NONE',  ( -11.25000000000000000, -16.00000000000000000, -6.150000000000000355 ) ) ;
#958 = CARTESIAN_POINT ( 'NONE',  ( -11.25000000000000000, 6.799999999999999822, -6.150000000000000355 ) ) ;
#959 = VERTEX_POINT ( 'NONE', #142 ) ;
#960 = DIRECTION ( 'NONE',  ( 0.000000000000000000, -0.000000000000000000, 1.000000000000000000 ) ) ;
#961 = ADVANCED_FACE ( 'NONE', ( #893 ), #279, .T. ) ;
#962 = CARTESIAN_POINT ( 'NONE',  ( 11.25000000000000000, -16.00000000000000000, -6.150000000000000355 ) ) ;
#963 = ADVANCED_FACE ( 'NONE', ( #375 ), #744, .T. ) ;
#964 = ORIENTED_EDGE ( 'NONE', *, *, #496, .F. ) ;
#965 = FACE_OUTER_BOUND ( 'NONE', #568, .T. ) ;
#966 = DIRECTION ( 'NONE',  ( -0.000000000000000000, 1.000000000000000000, -0.000000000000000000 ) ) ;
#967 = VECTOR ( 'NONE', #214, 1000.000000000000000 ) ;
#968 = ORIENTED_EDGE ( 'NONE', *, *, #730, .T. ) ;
#969 = LINE ( 'NONE', #594, #786 ) ;
#970 = ORIENTED_EDGE ( 'NONE', *, *, #384, .F. ) ;
#971 = DIRECTION ( 'NONE',  ( 0.000000000000000000, 1.000000000000000000, 0.000000000000000000 ) ) ;
#972 = DIRECTION ( 'NONE',  ( 0.000000000000000000, 0.000000000000000000, -1.000000000000000000 ) ) ;
#973 = CYLINDRICAL_SURFACE ( 'NONE', #833, 5.899999999999997691 ) ;
#974 = CARTESIAN_POINT ( 'NONE',  ( 5.100000000000001421, 10.90000000000000036, 0.000000000000000000 ) ) ;
#975 = EDGE_LOOP ( 'NONE', ( #826, #793, #242, #308 ) ) ;
#976 = EDGE_CURVE ( 'NONE', #754, #161, #977, .T. ) ;
#977 = LINE ( 'NONE', #67, #857 ) ;
#978 = EDGE_CURVE ( 'NONE', #660, #526, #781, .T. ) ;
#979 = CARTESIAN_POINT ( 'NONE',  ( 11.25000000000000000, -16.00000000000000000, 6.150000000000000355 ) ) ;
#980 = AXIS2_PLACEMENT_3D ( 'NONE', #859, #195, #28 ) ;
#981 = ORIENTED_EDGE ( 'NONE', *, *, #287, .T. ) ;
#982 = CARTESIAN_POINT ( 'NONE',  ( 11.25000000000000000, 6.799999999999999822, -6.150000000000000355 ) ) ;
#983 = VERTEX_POINT ( 'NONE', #984 ) ;
#984 = CARTESIAN_POINT ( 'NONE',  ( 16.10000000000000142, 0.000000000000000000, -6.149999999999995914 ) ) ;
#985 = ADVANCED_FACE ( 'NONE', ( #293 ), #662, .T. ) ;
#986 = LINE ( 'NONE', #930, #934 ) ;
#987 = ORIENTED_EDGE ( 'NONE', *, *, #384, .T. ) ;
#988 = ORIENTED_EDGE ( 'NONE', *, *, #361, .T. ) ;
#989 =( LENGTH_UNIT ( ) NAMED_UNIT ( * ) SI_UNIT ( .MILLI., .METRE. ) );
#990 = DIRECTION ( 'NONE',  ( -0.000000000000000000, 1.000000000000000000, -0.000000000000000000 ) ) ;
ENDSEC;
END-ISO-10303-21;
