ISO-10303-21;
HEADER;
FILE_DESCRIPTION(('FreeCAD Model'),'2;1');
FILE_NAME('Open CASCADE Shape Model','2025-07-09T20:43:22',(''),(''),
  'Open CASCADE STEP processor 7.6','FreeCAD','Unknown');
FILE_SCHEMA(('AUTOMOTIVE_DESIGN { 1 0 10303 214 1 1 1 1 }'));
ENDSEC;
DATA;
#1 = APPLICATION_PROTOCOL_DEFINITION('international standard',
  'automotive_design',2000,#2);
#2 = APPLICATION_CONTEXT(
  'core data for automotive mechanical design processes');
#3 = SHAPE_DEFINITION_REPRESENTATION(#4,#10);
#4 = PRODUCT_DEFINITION_SHAPE('','',#5);
#5 = PRODUCT_DEFINITION('design','',#6,#9);
#6 = PRODUCT_DEFINITION_FORMATION('','',#7);
#7 = PRODUCT('Gear Box Motor','Gear Box Motor','',(#8));
#8 = PRODUCT_CONTEXT('',#2,'mechanical');
#9 = PRODUCT_DEFINITION_CONTEXT('part definition',#2,'design');
#10 = ADVANCED_BREP_SHAPE_REPRESENTATION('',(#11,#15),#1694);
#11 = AXIS2_PLACEMENT_3D('',#12,#13,#14);
#12 = CARTESIAN_POINT('',(0.,0.,0.));
#13 = DIRECTION('',(0.,0.,1.));
#14 = DIRECTION('',(1.,0.,-0.));
#15 = MANIFOLD_SOLID_BREP('',#16);
#16 = CLOSED_SHELL('',(#17,#57,#90,#169,#230,#255,#299,#316,#360,#401,
    #451,#475,#499,#535,#547,#578,#596,#629,#644,#667,#758,#774,#789,
    #810,#836,#922,#941,#958,#1009,#1021,#1038,#1055,#1089,#1114,#1139,
    #1173,#1204,#1239,#1263,#1291,#1324,#1357,#1366,#1375,#1408,#1441,
    #1453,#1470,#1503,#1527,#1553,#1570,#1603,#1627,#1653,#1670,#1682));
#17 = ADVANCED_FACE('',(#18),#52,.T.);
#18 = FACE_BOUND('',#19,.T.);
#19 = EDGE_LOOP('',(#20,#30,#38,#46));
#20 = ORIENTED_EDGE('',*,*,#21,.T.);
#21 = EDGE_CURVE('',#22,#24,#26,.T.);
#22 = VERTEX_POINT('',#23);
#23 = CARTESIAN_POINT('',(-37.5,-16.288,6.9));
#24 = VERTEX_POINT('',#25);
#25 = CARTESIAN_POINT('',(-50.25,-16.288,6.9));
#26 = LINE('',#27,#28);
#27 = CARTESIAN_POINT('',(-37.5,-16.288,6.9));
#28 = VECTOR('',#29,1.);
#29 = DIRECTION('',(-1.,8.883385247768E-18,-2.22044604925E-16));
#30 = ORIENTED_EDGE('',*,*,#31,.T.);
#31 = EDGE_CURVE('',#24,#32,#34,.T.);
#32 = VERTEX_POINT('',#33);
#33 = CARTESIAN_POINT('',(-50.25,-16.288,-6.9));
#34 = LINE('',#35,#36);
#35 = CARTESIAN_POINT('',(-50.25,-16.288,6.9));
#36 = VECTOR('',#37,1.);
#37 = DIRECTION('',(2.22044604925E-16,-5.551115123126E-16,-1.));
#38 = ORIENTED_EDGE('',*,*,#39,.F.);
#39 = EDGE_CURVE('',#40,#32,#42,.T.);
#40 = VERTEX_POINT('',#41);
#41 = CARTESIAN_POINT('',(-37.5,-16.288,-6.9));
#42 = LINE('',#43,#44);
#43 = CARTESIAN_POINT('',(-37.5,-16.288,-6.9));
#44 = VECTOR('',#45,1.);
#45 = DIRECTION('',(-1.,8.883385247768E-18,-2.22044604925E-16));
#46 = ORIENTED_EDGE('',*,*,#47,.F.);
#47 = EDGE_CURVE('',#22,#40,#48,.T.);
#48 = LINE('',#49,#50);
#49 = CARTESIAN_POINT('',(-37.5,-16.288,6.9));
#50 = VECTOR('',#51,1.);
#51 = DIRECTION('',(2.22044604925E-16,-5.551115123126E-16,-1.));
#52 = PLANE('',#53);
#53 = AXIS2_PLACEMENT_3D('',#54,#55,#56);
#54 = CARTESIAN_POINT('',(-37.5,-16.288,6.9));
#55 = DIRECTION('',(-8.883385247768E-18,-1.,5.551115123126E-16));
#56 = DIRECTION('',(2.22044604925E-16,-5.551115123126E-16,-1.));
#57 = ADVANCED_FACE('',(#58),#85,.T.);
#58 = FACE_BOUND('',#59,.F.);
#59 = EDGE_LOOP('',(#60,#61,#70,#78));
#60 = ORIENTED_EDGE('',*,*,#21,.T.);
#61 = ORIENTED_EDGE('',*,*,#62,.T.);
#62 = EDGE_CURVE('',#24,#63,#65,.T.);
#63 = VERTEX_POINT('',#64);
#64 = CARTESIAN_POINT('',(-50.25,-1.9,6.9));
#65 = CIRCLE('',#66,12.780117733881);
#66 = AXIS2_PLACEMENT_3D('',#67,#68,#69);
#67 = CARTESIAN_POINT('',(-50.25,-9.094,-3.663038071117));
#68 = DIRECTION('',(-1.,4.811933038696E-31,-2.574960052601E-32));
#69 = DIRECTION('',(-2.921490017898E-31,-0.562905612436,0.826521186351)
  );
#70 = ORIENTED_EDGE('',*,*,#71,.F.);
#71 = EDGE_CURVE('',#72,#63,#74,.T.);
#72 = VERTEX_POINT('',#73);
#73 = CARTESIAN_POINT('',(-37.5,-1.9,6.9));
#74 = LINE('',#75,#76);
#75 = CARTESIAN_POINT('',(-37.5,-1.9,6.9));
#76 = VECTOR('',#77,1.);
#77 = DIRECTION('',(-1.,8.883385247768E-18,-2.22044604925E-16));
#78 = ORIENTED_EDGE('',*,*,#79,.F.);
#79 = EDGE_CURVE('',#22,#72,#80,.T.);
#80 = CIRCLE('',#81,12.780117733881);
#81 = AXIS2_PLACEMENT_3D('',#82,#83,#84);
#82 = CARTESIAN_POINT('',(-37.5,-9.094,-3.663038071117));
#83 = DIRECTION('',(-1.,8.883385247768E-18,-2.22044604925E-16));
#84 = DIRECTION('',(2.22044604925E-16,-5.551115123126E-16,-1.));
#85 = CYLINDRICAL_SURFACE('',#86,12.780117733881);
#86 = AXIS2_PLACEMENT_3D('',#87,#88,#89);
#87 = CARTESIAN_POINT('',(-37.5,-9.094,-3.663038071117));
#88 = DIRECTION('',(1.,-8.883385247768E-18,2.22044604925E-16));
#89 = DIRECTION('',(2.22044604925E-16,-5.551115123126E-16,-1.));
#90 = ADVANCED_FACE('',(#91),#164,.T.);
#91 = FACE_BOUND('',#92,.T.);
#92 = EDGE_LOOP('',(#93,#125,#133,#163));
#93 = ORIENTED_EDGE('',*,*,#94,.T.);
#94 = EDGE_CURVE('',#24,#95,#97,.T.);
#95 = VERTEX_POINT('',#96);
#96 = CARTESIAN_POINT('',(-52.5,-14.038,5.634286462823));
#97 = B_SPLINE_CURVE_WITH_KNOTS('',6,(#98,#99,#100,#101,#102,#103,#104,
    #105,#106,#107,#108,#109,#110,#111,#112,#113,#114,#115,#116,#117,
    #118,#119,#120,#121,#122,#123,#124),.UNSPECIFIED.,.F.,.F.,(7,5,5,5,5
    ,7),(0.,0.280034919252,0.443972529189,0.63406297875,0.967338125681,
    1.),.UNSPECIFIED.);
#98 = CARTESIAN_POINT('',(-50.25,-16.288,6.9));
#99 = CARTESIAN_POINT('',(-50.4326790668,-16.288,6.9));
#100 = CARTESIAN_POINT('',(-50.61544974027,-16.27020115323,
    6.890587243217));
#101 = CARTESIAN_POINT('',(-50.79500879171,-16.23457456911,
    6.871747029067));
#102 = CARTESIAN_POINT('',(-50.96857101809,-16.18215911637,
    6.843963691308));
#103 = CARTESIAN_POINT('',(-51.13387249993,-16.11451860981,
    6.807944462935));
#104 = CARTESIAN_POINT('',(-51.38009752503,-15.98630368893,
    6.739259477902));
#105 = CARTESIAN_POINT('',(-51.46763322603,-15.93440328976,
    6.711382331711));
#106 = CARTESIAN_POINT('',(-51.55147775904,-15.87831467642,
    6.681159919453));
#107 = CARTESIAN_POINT('',(-51.63140659337,-15.8184205662,6.648768683609
    ));
#108 = CARTESIAN_POINT('',(-51.70726310002,-15.75509937319,
    6.614383467083));
#109 = CARTESIAN_POINT('',(-51.8620582053,-15.61172266185,6.536177923487
    ));
#110 = CARTESIAN_POINT('',(-51.93955573131,-15.53061121136,
    6.491728710792));
#111 = CARTESIAN_POINT('',(-52.01128196959,-15.44592242553,
    6.445076100199));
#112 = CARTESIAN_POINT('',(-52.0771652349,-15.35817351378,6.396461183823
    ));
#113 = CARTESIAN_POINT('',(-52.1371927978,-15.26783675193,6.346105885739
    ));
#114 = CARTESIAN_POINT('',(-52.28640490435,-15.01313561434,
    6.203215908451));
#115 = CARTESIAN_POINT('',(-52.36346259585,-14.84431868448,
    6.107510076905));
#116 = CARTESIAN_POINT('',(-52.42275021398,-14.67105305245,6.00811675051
    ));
#117 = CARTESIAN_POINT('',(-52.46460505682,-14.49520658888,
    5.905948547344));
#118 = CARTESIAN_POINT('',(-52.48945359853,-14.31835017259,
    5.801817413682));
#119 = CARTESIAN_POINT('',(-52.49840495955,-14.12445962364,
    5.686095442086));
#120 = CARTESIAN_POINT('',(-52.499043543,-14.1071567641,5.675754691877)
  );
#121 = CARTESIAN_POINT('',(-52.49952205123,-14.08985810935,
    5.665402718262));
#122 = CARTESIAN_POINT('',(-52.49984077563,-14.07256492696,
    5.655040224618));
#123 = CARTESIAN_POINT('',(-52.49999999989,-14.05527847633,
    5.644667907808));
#124 = CARTESIAN_POINT('',(-52.5,-14.03800000873,5.634286458178));
#125 = ORIENTED_EDGE('',*,*,#126,.T.);
#126 = EDGE_CURVE('',#95,#127,#129,.T.);
#127 = VERTEX_POINT('',#128);
#128 = CARTESIAN_POINT('',(-52.5,-14.038,-5.626833578851));
#129 = LINE('',#130,#131);
#130 = CARTESIAN_POINT('',(-52.5,-14.038,6.9));
#131 = VECTOR('',#132,1.);
#132 = DIRECTION('',(2.22044604925E-16,-5.551115123126E-16,-1.));
#133 = ORIENTED_EDGE('',*,*,#134,.F.);
#134 = EDGE_CURVE('',#32,#127,#135,.T.);
#135 = B_SPLINE_CURVE_WITH_KNOTS('',6,(#136,#137,#138,#139,#140,#141,
    #142,#143,#144,#145,#146,#147,#148,#149,#150,#151,#152,#153,#154,
    #155,#156,#157,#158,#159,#160,#161,#162),.UNSPECIFIED.,.F.,.F.,(7,5,
    5,5,5,7),(0.,0.278849500297,0.442690954814,0.632764197104,
    0.967311303862,1.),.UNSPECIFIED.);
#136 = CARTESIAN_POINT('',(-50.25,-16.288,-6.9));
#137 = CARTESIAN_POINT('',(-50.43209698448,-16.288,-6.9));
#138 = CARTESIAN_POINT('',(-50.61428524282,-16.27031440129,
    -6.890588959818));
#139 = CARTESIAN_POINT('',(-50.79328041905,-16.23491449933,
    -6.871752181269));
#140 = CARTESIAN_POINT('',(-50.96631532586,-16.18283390068,
    -6.843975336897));
#141 = CARTESIAN_POINT('',(-51.13114282055,-16.11562784839,
    -6.807967647197));
#142 = CARTESIAN_POINT('',(-51.37705570501,-15.98806608233,
    -6.739217602154));
#143 = CARTESIAN_POINT('',(-51.46468402393,-15.93629466525,
    -6.711241487971));
#144 = CARTESIAN_POINT('',(-51.54861908771,-15.88033301055,
    -6.680905778938));
#145 = CARTESIAN_POINT('',(-51.62863660825,-15.82056526491,
    -6.648388981823));
#146 = CARTESIAN_POINT('',(-51.70458072195,-15.75737096258,
    -6.613867835786));
#147 = CARTESIAN_POINT('',(-51.85960628662,-15.61423255738,
    -6.535328787389));
#148 = CARTESIAN_POINT('',(-51.93724099156,-15.53322889281,
    -6.490676561986));
#149 = CARTESIAN_POINT('',(-52.00910028,-15.44864709356,-6.443809452033)
  );
#150 = CARTESIAN_POINT('',(-52.07511429121,-15.36100543826,
    -6.394970896391));
#151 = CARTESIAN_POINT('',(-52.1352721964,-15.27077658949,
    -6.344384664214));
#152 = CARTESIAN_POINT('',(-52.28521915241,-15.0157404357,
    -6.200485092224));
#153 = CARTESIAN_POINT('',(-52.36274286952,-14.84643049127,
    -6.103951828908));
#154 = CARTESIAN_POINT('',(-52.42237256474,-14.67264502631,
    -6.003694571699));
#155 = CARTESIAN_POINT('',(-52.464456016,-14.49626753208,-5.900640035292
    ));
#156 = CARTESIAN_POINT('',(-52.48942919707,-14.31887888749,
    -5.795610914951));
#157 = CARTESIAN_POINT('',(-52.49840496474,-14.12445949461,
    -5.678928907833));
#158 = CARTESIAN_POINT('',(-52.49904354711,-14.1071566328,
    -5.668530810615));
#159 = CARTESIAN_POINT('',(-52.49952205362,-14.08985799244,
    -5.658121529439));
#160 = CARTESIAN_POINT('',(-52.49984077647,-14.07256483626,
    -5.647701769421));
#161 = CARTESIAN_POINT('',(-52.49999999987,-14.05527842571,
    -5.637272222569));
#162 = CARTESIAN_POINT('',(-52.5,-14.03800002105,-5.626833567788));
#163 = ORIENTED_EDGE('',*,*,#31,.F.);
#164 = CYLINDRICAL_SURFACE('',#165,2.25);
#165 = AXIS2_PLACEMENT_3D('',#166,#167,#168);
#166 = CARTESIAN_POINT('',(-50.25,-14.038,6.9));
#167 = DIRECTION('',(2.22044604925E-16,-5.551115123126E-16,-1.));
#168 = DIRECTION('',(-8.883385247768E-18,-1.,5.551115123126E-16));
#169 = ADVANCED_FACE('',(#170,#206),#225,.F.);
#170 = FACE_BOUND('',#171,.F.);
#171 = EDGE_LOOP('',(#172,#183,#191,#200));
#172 = ORIENTED_EDGE('',*,*,#173,.F.);
#173 = EDGE_CURVE('',#174,#176,#178,.T.);
#174 = VERTEX_POINT('',#175);
#175 = CARTESIAN_POINT('',(-37.5,-18.188,6.812516060667));
#176 = VERTEX_POINT('',#177);
#177 = CARTESIAN_POINT('',(-37.5,3.215098631707E-15,7.493172333238));
#178 = CIRCLE('',#179,12.652177009515);
#179 = AXIS2_PLACEMENT_3D('',#180,#181,#182);
#180 = CARTESIAN_POINT('',(-37.5,-8.765285433091,-1.630826480689));
#181 = DIRECTION('',(-1.,-1.479114197289E-31,-2.22044604925E-16));
#182 = DIRECTION('',(2.22044604925E-16,-6.661338147751E-16,-1.));
#183 = ORIENTED_EDGE('',*,*,#184,.T.);
#184 = EDGE_CURVE('',#174,#185,#187,.T.);
#185 = VERTEX_POINT('',#186);
#186 = CARTESIAN_POINT('',(-37.5,-18.188,-7.187483939333));
#187 = LINE('',#188,#189);
#188 = CARTESIAN_POINT('',(-37.5,-18.188,6.812516060667));
#189 = VECTOR('',#190,1.);
#190 = DIRECTION('',(2.22044604925E-16,-6.661338147751E-16,-1.));
#191 = ORIENTED_EDGE('',*,*,#192,.F.);
#192 = EDGE_CURVE('',#193,#185,#195,.T.);
#193 = VERTEX_POINT('',#194);
#194 = CARTESIAN_POINT('',(-37.5,-4.334417935744E-15,-6.506827666762));
#195 = CIRCLE('',#196,12.05707392023);
#196 = AXIS2_PLACEMENT_3D('',#197,#198,#199);
#197 = CARTESIAN_POINT('',(-37.5,-9.389784069267,1.056570157657));
#198 = DIRECTION('',(-1.,-1.479114197289E-31,-2.22044604925E-16));
#199 = DIRECTION('',(2.22044604925E-16,-6.661338147751E-16,-1.));
#200 = ORIENTED_EDGE('',*,*,#201,.F.);
#201 = EDGE_CURVE('',#176,#193,#202,.T.);
#202 = LINE('',#203,#204);
#203 = CARTESIAN_POINT('',(-37.5,3.215098631707E-15,7.493172333238));
#204 = VECTOR('',#205,1.);
#205 = DIRECTION('',(2.22044604925E-16,-5.392511833894E-16,-1.));
#206 = FACE_BOUND('',#207,.F.);
#207 = EDGE_LOOP('',(#208,#209,#210,#218));
#208 = ORIENTED_EDGE('',*,*,#47,.F.);
#209 = ORIENTED_EDGE('',*,*,#79,.T.);
#210 = ORIENTED_EDGE('',*,*,#211,.T.);
#211 = EDGE_CURVE('',#72,#212,#214,.T.);
#212 = VERTEX_POINT('',#213);
#213 = CARTESIAN_POINT('',(-37.5,-1.9,-6.9));
#214 = LINE('',#215,#216);
#215 = CARTESIAN_POINT('',(-37.5,-1.9,6.9));
#216 = VECTOR('',#217,1.);
#217 = DIRECTION('',(2.22044604925E-16,-8.125545325155E-16,-1.));
#218 = ORIENTED_EDGE('',*,*,#219,.T.);
#219 = EDGE_CURVE('',#212,#40,#220,.T.);
#220 = CIRCLE('',#221,12.877358290514);
#221 = AXIS2_PLACEMENT_3D('',#222,#223,#224);
#222 = CARTESIAN_POINT('',(-37.5,-9.094,3.780483160526));
#223 = DIRECTION('',(-1.,8.883385247768E-18,-2.22044604925E-16));
#224 = DIRECTION('',(2.22044604925E-16,-5.551115123126E-16,-1.));
#225 = PLANE('',#226);
#226 = AXIS2_PLACEMENT_3D('',#227,#228,#229);
#227 = CARTESIAN_POINT('',(-37.5,-9.091811696814,6.622106211162E-02));
#228 = DIRECTION('',(1.,-8.883385247768E-18,2.007536880378E-16));
#229 = DIRECTION('',(-2.007536880378E-16,4.440892098501E-16,1.));
#230 = ADVANCED_FACE('',(#231),#250,.T.);
#231 = FACE_BOUND('',#232,.F.);
#232 = EDGE_LOOP('',(#233,#241,#248,#249));
#233 = ORIENTED_EDGE('',*,*,#234,.T.);
#234 = EDGE_CURVE('',#212,#235,#237,.T.);
#235 = VERTEX_POINT('',#236);
#236 = CARTESIAN_POINT('',(-50.25,-1.9,-6.9));
#237 = LINE('',#238,#239);
#238 = CARTESIAN_POINT('',(-37.5,-1.9,-6.9));
#239 = VECTOR('',#240,1.);
#240 = DIRECTION('',(-1.,8.883385247768E-18,-2.22044604925E-16));
#241 = ORIENTED_EDGE('',*,*,#242,.T.);
#242 = EDGE_CURVE('',#235,#32,#243,.T.);
#243 = CIRCLE('',#244,12.877358290514);
#244 = AXIS2_PLACEMENT_3D('',#245,#246,#247);
#245 = CARTESIAN_POINT('',(-50.25,-9.094,3.780483160526));
#246 = DIRECTION('',(-1.,4.811933038696E-31,-2.574960052601E-32));
#247 = DIRECTION('',(2.901777459744E-31,0.558654953734,-0.829400170406)
  );
#248 = ORIENTED_EDGE('',*,*,#39,.F.);
#249 = ORIENTED_EDGE('',*,*,#219,.F.);
#250 = CYLINDRICAL_SURFACE('',#251,12.877358290514);
#251 = AXIS2_PLACEMENT_3D('',#252,#253,#254);
#252 = CARTESIAN_POINT('',(-37.5,-9.094,3.780483160526));
#253 = DIRECTION('',(1.,-8.883385247768E-18,2.22044604925E-16));
#254 = DIRECTION('',(2.22044604925E-16,-5.551115123126E-16,-1.));
#255 = ADVANCED_FACE('',(#256),#294,.T.);
#256 = FACE_BOUND('',#257,.T.);
#257 = EDGE_LOOP('',(#258,#259,#260,#287));
#258 = ORIENTED_EDGE('',*,*,#94,.F.);
#259 = ORIENTED_EDGE('',*,*,#62,.T.);
#260 = ORIENTED_EDGE('',*,*,#261,.T.);
#261 = EDGE_CURVE('',#63,#262,#264,.T.);
#262 = VERTEX_POINT('',#263);
#263 = CARTESIAN_POINT('',(-52.5,-4.15,5.634286462823));
#264 = B_SPLINE_CURVE_WITH_KNOTS('',6,(#265,#266,#267,#268,#269,#270,
    #271,#272,#273,#274,#275,#276,#277,#278,#279,#280,#281,#282,#283,
    #284,#285,#286),.UNSPECIFIED.,.F.,.F.,(7,5,5,5,7),(0.,0.280974937387
    ,0.444958362912,0.635104187964,1.),.UNSPECIFIED.);
#265 = CARTESIAN_POINT('',(-50.25,-1.9,6.9));
#266 = CARTESIAN_POINT('',(-50.43329344573,-1.9,6.9));
#267 = CARTESIAN_POINT('',(-50.61667964614,-1.917918780238,
    6.890523816108));
#268 = CARTESIAN_POINT('',(-50.79682074026,-1.953785651521,
    6.871556539425));
#269 = CARTESIAN_POINT('',(-50.97090526475,-2.00654719915,6.843589293264
    ));
#270 = CARTESIAN_POINT('',(-51.13665088935,-2.074620224338,
    6.807338011693));
#271 = CARTESIAN_POINT('',(-51.38315936491,-2.203475354641,
    6.738304267206));
#272 = CARTESIAN_POINT('',(-51.47061443361,-2.255514110058,
    6.710350191305));
#273 = CARTESIAN_POINT('',(-51.55437051415,-2.311734576725,
    6.680053612672));
#274 = CARTESIAN_POINT('',(-51.63420418521,-2.371753716218,
    6.647591127428));
#275 = CARTESIAN_POINT('',(-51.70995982278,-2.43519302439,6.613137628307
    ));
#276 = CARTESIAN_POINT('',(-51.86452765237,-2.578810971418,
    6.534790470693));
#277 = CARTESIAN_POINT('',(-51.94189695491,-2.660043260593,
    6.490268894541));
#278 = CARTESIAN_POINT('',(-52.01348964502,-2.744843870216,
    6.443547794987));
#279 = CARTESIAN_POINT('',(-52.07923506241,-2.832695872882,
    6.394868158576));
#280 = CARTESIAN_POINT('',(-52.13912124841,-2.923127374052,
    6.344451764979));
#281 = CARTESIAN_POINT('',(-52.29689679019,-3.19341863258,6.192789496219
    ));
#282 = CARTESIAN_POINT('',(-52.3790919057,-3.379017470738,6.087450459579
    ));
#283 = CARTESIAN_POINT('',(-52.44001404719,-3.569673386366,
    5.977821592045));
#284 = CARTESIAN_POINT('',(-52.48012601743,-3.76298305122,5.86508179075)
  );
#285 = CARTESIAN_POINT('',(-52.49999994962,-3.956960464085,
    5.750270547326));
#286 = CARTESIAN_POINT('',(-52.5,-4.149999999406,5.634286462507));
#287 = ORIENTED_EDGE('',*,*,#288,.F.);
#288 = EDGE_CURVE('',#95,#262,#289,.T.);
#289 = CIRCLE('',#290,10.530117733881);
#290 = AXIS2_PLACEMENT_3D('',#291,#292,#293);
#291 = CARTESIAN_POINT('',(-52.5,-9.094,-3.663038071117));
#292 = DIRECTION('',(-1.,4.811933038696E-31,-2.574960052601E-32));
#293 = DIRECTION('',(-2.921490017898E-31,-0.562905612436,0.826521186351)
  );
#294 = TOROIDAL_SURFACE('',#295,10.530117733881,2.25);
#295 = AXIS2_PLACEMENT_3D('',#296,#297,#298);
#296 = CARTESIAN_POINT('',(-50.25,-9.094,-3.663038071117));
#297 = DIRECTION('',(-1.,4.811933038696E-31,-2.574960052601E-32));
#298 = DIRECTION('',(-2.921490017898E-31,-0.562905612436,0.826521186351)
  );
#299 = ADVANCED_FACE('',(#300),#311,.F.);
#300 = FACE_BOUND('',#301,.F.);
#301 = EDGE_LOOP('',(#302,#303,#309,#310));
#302 = ORIENTED_EDGE('',*,*,#71,.T.);
#303 = ORIENTED_EDGE('',*,*,#304,.T.);
#304 = EDGE_CURVE('',#63,#235,#305,.T.);
#305 = LINE('',#306,#307);
#306 = CARTESIAN_POINT('',(-50.25,-1.9,6.9));
#307 = VECTOR('',#308,1.);
#308 = DIRECTION('',(2.22044604925E-16,-8.125545325155E-16,-1.));
#309 = ORIENTED_EDGE('',*,*,#234,.F.);
#310 = ORIENTED_EDGE('',*,*,#211,.F.);
#311 = PLANE('',#312);
#312 = AXIS2_PLACEMENT_3D('',#313,#314,#315);
#313 = CARTESIAN_POINT('',(-37.5,-1.9,6.9));
#314 = DIRECTION('',(-8.883385247768E-18,-1.,8.125545325155E-16));
#315 = DIRECTION('',(2.22044604925E-16,-8.125545325155E-16,-1.));
#316 = ADVANCED_FACE('',(#317,#336),#355,.F.);
#317 = FACE_BOUND('',#318,.F.);
#318 = EDGE_LOOP('',(#319,#320,#321,#330));
#319 = ORIENTED_EDGE('',*,*,#288,.F.);
#320 = ORIENTED_EDGE('',*,*,#126,.T.);
#321 = ORIENTED_EDGE('',*,*,#322,.F.);
#322 = EDGE_CURVE('',#323,#127,#325,.T.);
#323 = VERTEX_POINT('',#324);
#324 = CARTESIAN_POINT('',(-52.5,-4.15,-5.626833578851));
#325 = CIRCLE('',#326,10.627358290514);
#326 = AXIS2_PLACEMENT_3D('',#327,#328,#329);
#327 = CARTESIAN_POINT('',(-52.5,-9.094,3.780483160526));
#328 = DIRECTION('',(-1.,4.811933038696E-31,-2.574960052601E-32));
#329 = DIRECTION('',(2.901777459744E-31,0.558654953734,-0.829400170406)
  );
#330 = ORIENTED_EDGE('',*,*,#331,.F.);
#331 = EDGE_CURVE('',#262,#323,#332,.T.);
#332 = LINE('',#333,#334);
#333 = CARTESIAN_POINT('',(-52.5,-4.15,6.9));
#334 = VECTOR('',#335,1.);
#335 = DIRECTION('',(2.22044604925E-16,-8.125545325155E-16,-1.));
#336 = FACE_BOUND('',#337,.F.);
#337 = EDGE_LOOP('',(#338,#348));
#338 = ORIENTED_EDGE('',*,*,#339,.F.);
#339 = EDGE_CURVE('',#340,#342,#344,.T.);
#340 = VERTEX_POINT('',#341);
#341 = CARTESIAN_POINT('',(-52.5,-12.094,3.35410196625));
#342 = VERTEX_POINT('',#343);
#343 = CARTESIAN_POINT('',(-52.5,-12.094,-3.35410196625));
#344 = LINE('',#345,#346);
#345 = CARTESIAN_POINT('',(-52.5,-12.094,3.35410196625));
#346 = VECTOR('',#347,1.);
#347 = DIRECTION('',(2.22044604925E-16,-4.440892098501E-16,-1.));
#348 = ORIENTED_EDGE('',*,*,#349,.T.);
#349 = EDGE_CURVE('',#340,#342,#350,.T.);
#350 = CIRCLE('',#351,4.5);
#351 = AXIS2_PLACEMENT_3D('',#352,#353,#354);
#352 = CARTESIAN_POINT('',(-52.5,-9.094,4.038547274376E-15));
#353 = DIRECTION('',(-1.,3.944304526105E-31,-2.22044604925E-16));
#354 = DIRECTION('',(2.22044604925E-16,-4.440892098501E-16,-1.));
#355 = PLANE('',#356);
#356 = AXIS2_PLACEMENT_3D('',#357,#358,#359);
#357 = CARTESIAN_POINT('',(-52.5,-9.094,5.102966316934E-03));
#358 = DIRECTION('',(1.,-4.811933038696E-31,2.574960052601E-32));
#359 = DIRECTION('',(4.811933038696E-31,1.,-3.330669073875E-16));
#360 = ADVANCED_FACE('',(#361),#396,.T.);
#361 = FACE_BOUND('',#362,.T.);
#362 = EDGE_LOOP('',(#363,#393,#394,#395));
#363 = ORIENTED_EDGE('',*,*,#364,.F.);
#364 = EDGE_CURVE('',#235,#323,#365,.T.);
#365 = B_SPLINE_CURVE_WITH_KNOTS('',6,(#366,#367,#368,#369,#370,#371,
    #372,#373,#374,#375,#376,#377,#378,#379,#380,#381,#382,#383,#384,
    #385,#386,#387,#388,#389,#390,#391,#392),.UNSPECIFIED.,.F.,.F.,(7,5,
    5,5,5,7),(0.,0.278849500044,0.442690954405,0.632764196516,
    0.967311302957,1.),.UNSPECIFIED.);
#366 = CARTESIAN_POINT('',(-50.25,-1.9,-6.9));
#367 = CARTESIAN_POINT('',(-50.43209698449,-1.9,-6.9));
#368 = CARTESIAN_POINT('',(-50.61428524283,-1.917685598704,
    -6.890588959817));
#369 = CARTESIAN_POINT('',(-50.79328041907,-1.95308550067,
    -6.871752181266));
#370 = CARTESIAN_POINT('',(-50.96631532589,-2.005166099329,
    -6.843975336892));
#371 = CARTESIAN_POINT('',(-51.13114282059,-2.072372151617,
    -6.807967647189));
#372 = CARTESIAN_POINT('',(-51.37705570505,-2.199933917687,
    -6.739217602141));
#373 = CARTESIAN_POINT('',(-51.46468402397,-2.251705334766,
    -6.711241487958));
#374 = CARTESIAN_POINT('',(-51.54861908775,-2.307666989472,
    -6.680905778923));
#375 = CARTESIAN_POINT('',(-51.62863660829,-2.367434735112,
    -6.648388981808));
#376 = CARTESIAN_POINT('',(-51.70458072198,-2.430629037443,
    -6.61386783577));
#377 = CARTESIAN_POINT('',(-51.85960628665,-2.57376744265,
    -6.535328787372));
#378 = CARTESIAN_POINT('',(-51.93724099159,-2.654771107215,
    -6.490676561967));
#379 = CARTESIAN_POINT('',(-52.00910028003,-2.739352906472,
    -6.443809452013));
#380 = CARTESIAN_POINT('',(-52.07511429123,-2.826994561771,
    -6.39497089637));
#381 = CARTESIAN_POINT('',(-52.13527219642,-2.917223410547,
    -6.344384664193));
#382 = CARTESIAN_POINT('',(-52.28521915243,-3.172259564341,-6.2004850922
    ));
#383 = CARTESIAN_POINT('',(-52.36274286953,-3.34156950877,
    -6.103951828884));
#384 = CARTESIAN_POINT('',(-52.42237256475,-3.51535497373,
    -6.003694571674));
#385 = CARTESIAN_POINT('',(-52.46445601601,-3.691732467959,
    -5.900640035266));
#386 = CARTESIAN_POINT('',(-52.48942919707,-3.869121112549,
    -5.795610914924));
#387 = CARTESIAN_POINT('',(-52.49840496477,-4.063540505927,
    -5.678928907509));
#388 = CARTESIAN_POINT('',(-52.49904354715,-4.080843371035,
    -5.668530812555));
#389 = CARTESIAN_POINT('',(-52.49952205366,-4.098142010783,
    -5.658121529998));
#390 = CARTESIAN_POINT('',(-52.49984077651,-4.115435162476,
    -5.64770176499));
#391 = CARTESIAN_POINT('',(-52.49999999989,-4.13272157137,
    -5.637272215827));
#392 = CARTESIAN_POINT('',(-52.5,-4.149999990665,-5.626833573945));
#393 = ORIENTED_EDGE('',*,*,#242,.T.);
#394 = ORIENTED_EDGE('',*,*,#134,.T.);
#395 = ORIENTED_EDGE('',*,*,#322,.F.);
#396 = TOROIDAL_SURFACE('',#397,10.627358290514,2.25);
#397 = AXIS2_PLACEMENT_3D('',#398,#399,#400);
#398 = CARTESIAN_POINT('',(-50.25,-9.094,3.780483160526));
#399 = DIRECTION('',(-1.,4.811933038696E-31,-2.574960052601E-32));
#400 = DIRECTION('',(2.901777459744E-31,0.558654953734,-0.829400170406)
  );
#401 = ADVANCED_FACE('',(#402),#446,.T.);
#402 = FACE_BOUND('',#403,.F.);
#403 = EDGE_LOOP('',(#404,#412,#413,#421,#430,#439));
#404 = ORIENTED_EDGE('',*,*,#405,.T.);
#405 = EDGE_CURVE('',#406,#174,#408,.T.);
#406 = VERTEX_POINT('',#407);
#407 = CARTESIAN_POINT('',(-26.,-18.188,6.812516060667));
#408 = LINE('',#409,#410);
#409 = CARTESIAN_POINT('',(-26.,-18.188,6.812516060667));
#410 = VECTOR('',#411,1.);
#411 = DIRECTION('',(-1.,-1.232595164408E-31,-2.22044604925E-16));
#412 = ORIENTED_EDGE('',*,*,#173,.T.);
#413 = ORIENTED_EDGE('',*,*,#414,.F.);
#414 = EDGE_CURVE('',#415,#176,#417,.T.);
#415 = VERTEX_POINT('',#416);
#416 = CARTESIAN_POINT('',(-26.,3.215098631707E-15,7.493172333238));
#417 = LINE('',#418,#419);
#418 = CARTESIAN_POINT('',(-26.,3.215098631707E-15,7.493172333238));
#419 = VECTOR('',#420,1.);
#420 = DIRECTION('',(-1.,-1.232595164408E-31,-2.22044604925E-16));
#421 = ORIENTED_EDGE('',*,*,#422,.F.);
#422 = EDGE_CURVE('',#423,#415,#425,.T.);
#423 = VERTEX_POINT('',#424);
#424 = CARTESIAN_POINT('',(-26.,-8.030570866183,11.));
#425 = CIRCLE('',#426,12.652177009515);
#426 = AXIS2_PLACEMENT_3D('',#427,#428,#429);
#427 = CARTESIAN_POINT('',(-26.,-8.765285433091,-1.630826480689));
#428 = DIRECTION('',(-1.,-1.479114197289E-31,-2.22044604925E-16));
#429 = DIRECTION('',(2.22044604925E-16,-6.661338147751E-16,-1.));
#430 = ORIENTED_EDGE('',*,*,#431,.F.);
#431 = EDGE_CURVE('',#432,#423,#434,.T.);
#432 = VERTEX_POINT('',#433);
#433 = CARTESIAN_POINT('',(-26.,-9.5,11.));
#434 = CIRCLE('',#435,12.652177009515);
#435 = AXIS2_PLACEMENT_3D('',#436,#437,#438);
#436 = CARTESIAN_POINT('',(-26.,-8.765285433091,-1.630826480689));
#437 = DIRECTION('',(-1.,-1.479114197289E-31,-2.22044604925E-16));
#438 = DIRECTION('',(2.22044604925E-16,-6.661338147751E-16,-1.));
#439 = ORIENTED_EDGE('',*,*,#440,.F.);
#440 = EDGE_CURVE('',#406,#432,#441,.T.);
#441 = CIRCLE('',#442,12.652177009515);
#442 = AXIS2_PLACEMENT_3D('',#443,#444,#445);
#443 = CARTESIAN_POINT('',(-26.,-8.765285433091,-1.630826480689));
#444 = DIRECTION('',(-1.,-1.479114197289E-31,-2.22044604925E-16));
#445 = DIRECTION('',(2.22044604925E-16,-6.661338147751E-16,-1.));
#446 = CYLINDRICAL_SURFACE('',#447,12.652177009515);
#447 = AXIS2_PLACEMENT_3D('',#448,#449,#450);
#448 = CARTESIAN_POINT('',(-26.,-8.765285433091,-1.630826480689));
#449 = DIRECTION('',(1.,1.232595164408E-31,2.22044604925E-16));
#450 = DIRECTION('',(2.22044604925E-16,-6.661338147751E-16,-1.));
#451 = ADVANCED_FACE('',(#452),#470,.T.);
#452 = FACE_BOUND('',#453,.T.);
#453 = EDGE_LOOP('',(#454,#455,#456,#464));
#454 = ORIENTED_EDGE('',*,*,#405,.T.);
#455 = ORIENTED_EDGE('',*,*,#184,.T.);
#456 = ORIENTED_EDGE('',*,*,#457,.F.);
#457 = EDGE_CURVE('',#458,#185,#460,.T.);
#458 = VERTEX_POINT('',#459);
#459 = CARTESIAN_POINT('',(-26.,-18.188,-7.187483939333));
#460 = LINE('',#461,#462);
#461 = CARTESIAN_POINT('',(-26.,-18.188,-7.187483939333));
#462 = VECTOR('',#463,1.);
#463 = DIRECTION('',(-1.,-1.232595164408E-31,-2.22044604925E-16));
#464 = ORIENTED_EDGE('',*,*,#465,.F.);
#465 = EDGE_CURVE('',#406,#458,#466,.T.);
#466 = LINE('',#467,#468);
#467 = CARTESIAN_POINT('',(-26.,-18.188,6.812516060667));
#468 = VECTOR('',#469,1.);
#469 = DIRECTION('',(2.22044604925E-16,-6.661338147751E-16,-1.));
#470 = PLANE('',#471);
#471 = AXIS2_PLACEMENT_3D('',#472,#473,#474);
#472 = CARTESIAN_POINT('',(-26.,-18.188,6.812516060667));
#473 = DIRECTION('',(-2.465190328816E-32,-1.,6.661338147751E-16));
#474 = DIRECTION('',(2.22044604925E-16,-6.661338147751E-16,-1.));
#475 = ADVANCED_FACE('',(#476),#494,.F.);
#476 = FACE_BOUND('',#477,.F.);
#477 = EDGE_LOOP('',(#478,#479,#480,#488));
#478 = ORIENTED_EDGE('',*,*,#414,.T.);
#479 = ORIENTED_EDGE('',*,*,#201,.T.);
#480 = ORIENTED_EDGE('',*,*,#481,.F.);
#481 = EDGE_CURVE('',#482,#193,#484,.T.);
#482 = VERTEX_POINT('',#483);
#483 = CARTESIAN_POINT('',(-26.,-4.334417935744E-15,-6.506827666762));
#484 = LINE('',#485,#486);
#485 = CARTESIAN_POINT('',(-26.,-4.334417935744E-15,-6.506827666762));
#486 = VECTOR('',#487,1.);
#487 = DIRECTION('',(-1.,-1.232595164408E-31,-2.22044604925E-16));
#488 = ORIENTED_EDGE('',*,*,#489,.F.);
#489 = EDGE_CURVE('',#415,#482,#490,.T.);
#490 = LINE('',#491,#492);
#491 = CARTESIAN_POINT('',(-26.,3.215098631707E-15,7.493172333238));
#492 = VECTOR('',#493,1.);
#493 = DIRECTION('',(2.22044604925E-16,-5.392511833894E-16,-1.));
#494 = PLANE('',#495);
#495 = AXIS2_PLACEMENT_3D('',#496,#497,#498);
#496 = CARTESIAN_POINT('',(-26.,3.215098631707E-15,7.493172333238));
#497 = DIRECTION('',(3.521700469737E-33,-1.,5.392511833894E-16));
#498 = DIRECTION('',(2.22044604925E-16,-5.392511833894E-16,-1.));
#499 = ADVANCED_FACE('',(#500),#530,.T.);
#500 = FACE_BOUND('',#501,.F.);
#501 = EDGE_LOOP('',(#502,#503,#504,#505,#514,#523));
#502 = ORIENTED_EDGE('',*,*,#481,.T.);
#503 = ORIENTED_EDGE('',*,*,#192,.T.);
#504 = ORIENTED_EDGE('',*,*,#457,.F.);
#505 = ORIENTED_EDGE('',*,*,#506,.F.);
#506 = EDGE_CURVE('',#507,#458,#509,.T.);
#507 = VERTEX_POINT('',#508);
#508 = CARTESIAN_POINT('',(-26.,-9.500000000002,-11.));
#509 = CIRCLE('',#510,12.05707392023);
#510 = AXIS2_PLACEMENT_3D('',#511,#512,#513);
#511 = CARTESIAN_POINT('',(-26.,-9.389784069267,1.056570157657));
#512 = DIRECTION('',(-1.,-1.479114197289E-31,-2.22044604925E-16));
#513 = DIRECTION('',(2.22044604925E-16,-6.661338147751E-16,-1.));
#514 = ORIENTED_EDGE('',*,*,#515,.F.);
#515 = EDGE_CURVE('',#516,#507,#518,.T.);
#516 = VERTEX_POINT('',#517);
#517 = CARTESIAN_POINT('',(-26.,-9.279568138533,-11.));
#518 = CIRCLE('',#519,12.05707392023);
#519 = AXIS2_PLACEMENT_3D('',#520,#521,#522);
#520 = CARTESIAN_POINT('',(-26.,-9.389784069267,1.056570157657));
#521 = DIRECTION('',(-1.,-1.479114197289E-31,-2.22044604925E-16));
#522 = DIRECTION('',(2.22044604925E-16,-6.661338147751E-16,-1.));
#523 = ORIENTED_EDGE('',*,*,#524,.F.);
#524 = EDGE_CURVE('',#482,#516,#525,.T.);
#525 = CIRCLE('',#526,12.05707392023);
#526 = AXIS2_PLACEMENT_3D('',#527,#528,#529);
#527 = CARTESIAN_POINT('',(-26.,-9.389784069267,1.056570157657));
#528 = DIRECTION('',(-1.,-1.479114197289E-31,-2.22044604925E-16));
#529 = DIRECTION('',(2.22044604925E-16,-6.661338147751E-16,-1.));
#530 = CYLINDRICAL_SURFACE('',#531,12.05707392023);
#531 = AXIS2_PLACEMENT_3D('',#532,#533,#534);
#532 = CARTESIAN_POINT('',(-26.,-9.389784069267,1.056570157657));
#533 = DIRECTION('',(1.,1.232595164408E-31,2.22044604925E-16));
#534 = DIRECTION('',(2.22044604925E-16,-6.661338147751E-16,-1.));
#535 = ADVANCED_FACE('',(#536),#542,.T.);
#536 = FACE_BOUND('',#537,.F.);
#537 = EDGE_LOOP('',(#538,#539,#540,#541));
#538 = ORIENTED_EDGE('',*,*,#261,.T.);
#539 = ORIENTED_EDGE('',*,*,#331,.T.);
#540 = ORIENTED_EDGE('',*,*,#364,.F.);
#541 = ORIENTED_EDGE('',*,*,#304,.F.);
#542 = CYLINDRICAL_SURFACE('',#543,2.25);
#543 = AXIS2_PLACEMENT_3D('',#544,#545,#546);
#544 = CARTESIAN_POINT('',(-50.25,-4.15,6.9));
#545 = DIRECTION('',(2.22044604925E-16,-8.125545325155E-16,-1.));
#546 = DIRECTION('',(8.883385247768E-18,1.,-8.125545325155E-16));
#547 = ADVANCED_FACE('',(#548),#573,.T.);
#548 = FACE_BOUND('',#549,.T.);
#549 = EDGE_LOOP('',(#550,#558,#566,#572));
#550 = ORIENTED_EDGE('',*,*,#551,.T.);
#551 = EDGE_CURVE('',#340,#552,#554,.T.);
#552 = VERTEX_POINT('',#553);
#553 = CARTESIAN_POINT('',(-56.5,-12.094,3.35410196625));
#554 = LINE('',#555,#556);
#555 = CARTESIAN_POINT('',(-52.5,-12.094,3.35410196625));
#556 = VECTOR('',#557,1.);
#557 = DIRECTION('',(-1.,4.190823558987E-31,-2.22044604925E-16));
#558 = ORIENTED_EDGE('',*,*,#559,.T.);
#559 = EDGE_CURVE('',#552,#560,#562,.T.);
#560 = VERTEX_POINT('',#561);
#561 = CARTESIAN_POINT('',(-56.5,-12.094,-3.35410196625));
#562 = LINE('',#563,#564);
#563 = CARTESIAN_POINT('',(-56.5,-12.094,3.35410196625));
#564 = VECTOR('',#565,1.);
#565 = DIRECTION('',(2.22044604925E-16,-4.440892098501E-16,-1.));
#566 = ORIENTED_EDGE('',*,*,#567,.F.);
#567 = EDGE_CURVE('',#342,#560,#568,.T.);
#568 = LINE('',#569,#570);
#569 = CARTESIAN_POINT('',(-52.5,-12.094,-3.35410196625));
#570 = VECTOR('',#571,1.);
#571 = DIRECTION('',(-1.,4.190823558987E-31,-2.22044604925E-16));
#572 = ORIENTED_EDGE('',*,*,#339,.F.);
#573 = PLANE('',#574);
#574 = AXIS2_PLACEMENT_3D('',#575,#576,#577);
#575 = CARTESIAN_POINT('',(-52.5,-12.094,3.35410196625));
#576 = DIRECTION('',(-5.176899690513E-31,-1.,4.440892098501E-16));
#577 = DIRECTION('',(2.22044604925E-16,-4.440892098501E-16,-1.));
#578 = ADVANCED_FACE('',(#579),#591,.T.);
#579 = FACE_BOUND('',#580,.F.);
#580 = EDGE_LOOP('',(#581,#582,#589,#590));
#581 = ORIENTED_EDGE('',*,*,#551,.T.);
#582 = ORIENTED_EDGE('',*,*,#583,.T.);
#583 = EDGE_CURVE('',#552,#560,#584,.T.);
#584 = CIRCLE('',#585,4.5);
#585 = AXIS2_PLACEMENT_3D('',#586,#587,#588);
#586 = CARTESIAN_POINT('',(-56.5,-9.094,3.150368854676E-15));
#587 = DIRECTION('',(-1.,3.944304526105E-31,-2.22044604925E-16));
#588 = DIRECTION('',(2.22044604925E-16,-4.440892098501E-16,-1.));
#589 = ORIENTED_EDGE('',*,*,#567,.F.);
#590 = ORIENTED_EDGE('',*,*,#349,.F.);
#591 = CYLINDRICAL_SURFACE('',#592,4.5);
#592 = AXIS2_PLACEMENT_3D('',#593,#594,#595);
#593 = CARTESIAN_POINT('',(-52.5,-9.094,4.038547274376E-15));
#594 = DIRECTION('',(1.,-4.067564042546E-31,2.22044604925E-16));
#595 = DIRECTION('',(2.22044604925E-16,-4.440892098501E-16,-1.));
#596 = ADVANCED_FACE('',(#597),#624,.F.);
#597 = FACE_BOUND('',#598,.F.);
#598 = EDGE_LOOP('',(#599,#600,#608,#616,#622,#623));
#599 = ORIENTED_EDGE('',*,*,#440,.T.);
#600 = ORIENTED_EDGE('',*,*,#601,.T.);
#601 = EDGE_CURVE('',#432,#602,#604,.T.);
#602 = VERTEX_POINT('',#603);
#603 = CARTESIAN_POINT('',(-26.,-19.,11.));
#604 = LINE('',#605,#606);
#605 = CARTESIAN_POINT('',(-26.,1.221245327088E-14,11.));
#606 = VECTOR('',#607,1.);
#607 = DIRECTION('',(0.,-1.,1.110223024625E-15));
#608 = ORIENTED_EDGE('',*,*,#609,.T.);
#609 = EDGE_CURVE('',#602,#610,#612,.T.);
#610 = VERTEX_POINT('',#611);
#611 = CARTESIAN_POINT('',(-26.,-19.,-11.));
#612 = LINE('',#613,#614);
#613 = CARTESIAN_POINT('',(-26.,-19.,11.));
#614 = VECTOR('',#615,1.);
#615 = DIRECTION('',(0.,-1.110223024625E-15,-1.));
#616 = ORIENTED_EDGE('',*,*,#617,.F.);
#617 = EDGE_CURVE('',#507,#610,#618,.T.);
#618 = LINE('',#619,#620);
#619 = CARTESIAN_POINT('',(-26.,-1.221245327088E-14,-11.));
#620 = VECTOR('',#621,1.);
#621 = DIRECTION('',(0.,-1.,1.110223024625E-15));
#622 = ORIENTED_EDGE('',*,*,#506,.T.);
#623 = ORIENTED_EDGE('',*,*,#465,.F.);
#624 = PLANE('',#625);
#625 = AXIS2_PLACEMENT_3D('',#626,#627,#628);
#626 = CARTESIAN_POINT('',(-26.,1.221245327088E-14,11.));
#627 = DIRECTION('',(1.,0.,0.));
#628 = DIRECTION('',(0.,-1.110223024625E-15,-1.));
#629 = ADVANCED_FACE('',(#630),#639,.T.);
#630 = FACE_BOUND('',#631,.T.);
#631 = EDGE_LOOP('',(#632,#633));
#632 = ORIENTED_EDGE('',*,*,#431,.F.);
#633 = ORIENTED_EDGE('',*,*,#634,.F.);
#634 = EDGE_CURVE('',#423,#432,#635,.T.);
#635 = LINE('',#636,#637);
#636 = CARTESIAN_POINT('',(-26.,1.221245327088E-14,11.));
#637 = VECTOR('',#638,1.);
#638 = DIRECTION('',(0.,-1.,1.110223024625E-15));
#639 = PLANE('',#640);
#640 = AXIS2_PLACEMENT_3D('',#641,#642,#643);
#641 = CARTESIAN_POINT('',(-26.,-9.091811696814,6.622106211162E-02));
#642 = DIRECTION('',(1.,-8.883385247768E-18,2.007536880378E-16));
#643 = DIRECTION('',(-2.007536880378E-16,4.440892098501E-16,1.));
#644 = ADVANCED_FACE('',(#645),#662,.F.);
#645 = FACE_BOUND('',#646,.F.);
#646 = EDGE_LOOP('',(#647,#655,#661));
#647 = ORIENTED_EDGE('',*,*,#648,.F.);
#648 = EDGE_CURVE('',#649,#415,#651,.T.);
#649 = VERTEX_POINT('',#650);
#650 = CARTESIAN_POINT('',(-26.,1.221245327088E-14,11.));
#651 = LINE('',#652,#653);
#652 = CARTESIAN_POINT('',(-26.,1.221245327088E-14,11.));
#653 = VECTOR('',#654,1.);
#654 = DIRECTION('',(0.,-1.110223024625E-15,-1.));
#655 = ORIENTED_EDGE('',*,*,#656,.T.);
#656 = EDGE_CURVE('',#649,#423,#657,.T.);
#657 = LINE('',#658,#659);
#658 = CARTESIAN_POINT('',(-26.,1.221245327088E-14,11.));
#659 = VECTOR('',#660,1.);
#660 = DIRECTION('',(0.,-1.,1.110223024625E-15));
#661 = ORIENTED_EDGE('',*,*,#422,.T.);
#662 = PLANE('',#663);
#663 = AXIS2_PLACEMENT_3D('',#664,#665,#666);
#664 = CARTESIAN_POINT('',(-26.,1.221245327088E-14,11.));
#665 = DIRECTION('',(1.,0.,0.));
#666 = DIRECTION('',(0.,-1.110223024625E-15,-1.));
#667 = ADVANCED_FACE('',(#668,#720,#731,#742),#753,.T.);
#668 = FACE_BOUND('',#669,.T.);
#669 = EDGE_LOOP('',(#670,#678,#687,#695,#704,#712,#718,#719));
#670 = ORIENTED_EDGE('',*,*,#671,.T.);
#671 = EDGE_CURVE('',#649,#672,#674,.T.);
#672 = VERTEX_POINT('',#673);
#673 = CARTESIAN_POINT('',(7.5,1.221245327088E-14,11.));
#674 = LINE('',#675,#676);
#675 = CARTESIAN_POINT('',(-26.,1.221245327088E-14,11.));
#676 = VECTOR('',#677,1.);
#677 = DIRECTION('',(1.,0.,0.));
#678 = ORIENTED_EDGE('',*,*,#679,.F.);
#679 = EDGE_CURVE('',#680,#672,#682,.T.);
#680 = VERTEX_POINT('',#681);
#681 = CARTESIAN_POINT('',(10.,9.436895709314E-15,8.5));
#682 = CIRCLE('',#683,2.5);
#683 = AXIS2_PLACEMENT_3D('',#684,#685,#686);
#684 = CARTESIAN_POINT('',(7.5,9.436895709314E-15,8.5));
#685 = DIRECTION('',(0.,-1.,1.110223024625E-15));
#686 = DIRECTION('',(1.,0.,0.));
#687 = ORIENTED_EDGE('',*,*,#688,.T.);
#688 = EDGE_CURVE('',#680,#689,#691,.T.);
#689 = VERTEX_POINT('',#690);
#690 = CARTESIAN_POINT('',(10.,-9.436895709314E-15,-8.5));
#691 = LINE('',#692,#693);
#692 = CARTESIAN_POINT('',(10.,9.436895709314E-15,8.5));
#693 = VECTOR('',#694,1.);
#694 = DIRECTION('',(0.,-1.110223024625E-15,-1.));
#695 = ORIENTED_EDGE('',*,*,#696,.F.);
#696 = EDGE_CURVE('',#697,#689,#699,.T.);
#697 = VERTEX_POINT('',#698);
#698 = CARTESIAN_POINT('',(7.5,-1.221245327088E-14,-11.));
#699 = CIRCLE('',#700,2.5);
#700 = AXIS2_PLACEMENT_3D('',#701,#702,#703);
#701 = CARTESIAN_POINT('',(7.5,-9.436895709314E-15,-8.5));
#702 = DIRECTION('',(0.,-1.,1.110223024625E-15));
#703 = DIRECTION('',(1.,0.,0.));
#704 = ORIENTED_EDGE('',*,*,#705,.T.);
#705 = EDGE_CURVE('',#697,#706,#708,.T.);
#706 = VERTEX_POINT('',#707);
#707 = CARTESIAN_POINT('',(-26.,-1.221245327088E-14,-11.));
#708 = LINE('',#709,#710);
#709 = CARTESIAN_POINT('',(7.5,-1.221245327088E-14,-11.));
#710 = VECTOR('',#711,1.);
#711 = DIRECTION('',(-1.,0.,0.));
#712 = ORIENTED_EDGE('',*,*,#713,.F.);
#713 = EDGE_CURVE('',#482,#706,#714,.T.);
#714 = LINE('',#715,#716);
#715 = CARTESIAN_POINT('',(-26.,1.221245327088E-14,11.));
#716 = VECTOR('',#717,1.);
#717 = DIRECTION('',(0.,-1.110223024625E-15,-1.));
#718 = ORIENTED_EDGE('',*,*,#489,.F.);
#719 = ORIENTED_EDGE('',*,*,#648,.F.);
#720 = FACE_BOUND('',#721,.T.);
#721 = EDGE_LOOP('',(#722));
#722 = ORIENTED_EDGE('',*,*,#723,.T.);
#723 = EDGE_CURVE('',#724,#724,#726,.T.);
#724 = VERTEX_POINT('',#725);
#725 = CARTESIAN_POINT('',(-18.5,-9.547918011776E-15,-9.));
#726 = CIRCLE('',#727,1.5);
#727 = AXIS2_PLACEMENT_3D('',#728,#729,#730);
#728 = CARTESIAN_POINT('',(-20.,-9.547918011776E-15,-9.));
#729 = DIRECTION('',(0.,-1.,9.992007221626E-16));
#730 = DIRECTION('',(1.,0.,0.));
#731 = FACE_BOUND('',#732,.T.);
#732 = EDGE_LOOP('',(#733));
#733 = ORIENTED_EDGE('',*,*,#734,.T.);
#734 = EDGE_CURVE('',#735,#735,#737,.T.);
#735 = VERTEX_POINT('',#736);
#736 = CARTESIAN_POINT('',(-18.5,9.547918011776E-15,9.));
#737 = CIRCLE('',#738,1.5);
#738 = AXIS2_PLACEMENT_3D('',#739,#740,#741);
#739 = CARTESIAN_POINT('',(-20.,9.547918011776E-15,9.));
#740 = DIRECTION('',(0.,-1.,9.992007221626E-16));
#741 = DIRECTION('',(1.,0.,0.));
#742 = FACE_BOUND('',#743,.T.);
#743 = EDGE_LOOP('',(#744));
#744 = ORIENTED_EDGE('',*,*,#745,.F.);
#745 = EDGE_CURVE('',#746,#746,#748,.T.);
#746 = VERTEX_POINT('',#747);
#747 = CARTESIAN_POINT('',(2.875,0.,0.));
#748 = CIRCLE('',#749,2.875);
#749 = AXIS2_PLACEMENT_3D('',#750,#751,#752);
#750 = CARTESIAN_POINT('',(0.,0.,0.));
#751 = DIRECTION('',(0.,1.,-1.110223024625E-15));
#752 = DIRECTION('',(1.,0.,0.));
#753 = PLANE('',#754);
#754 = AXIS2_PLACEMENT_3D('',#755,#756,#757);
#755 = CARTESIAN_POINT('',(-8.363250796862,0.,0.));
#756 = DIRECTION('',(0.,1.,-8.902230246252E-16));
#757 = DIRECTION('',(0.,8.902230246252E-16,1.));
#758 = ADVANCED_FACE('',(#759),#769,.F.);
#759 = FACE_BOUND('',#760,.F.);
#760 = EDGE_LOOP('',(#761,#762,#763));
#761 = ORIENTED_EDGE('',*,*,#713,.F.);
#762 = ORIENTED_EDGE('',*,*,#524,.T.);
#763 = ORIENTED_EDGE('',*,*,#764,.F.);
#764 = EDGE_CURVE('',#706,#516,#765,.T.);
#765 = LINE('',#766,#767);
#766 = CARTESIAN_POINT('',(-26.,-1.221245327088E-14,-11.));
#767 = VECTOR('',#768,1.);
#768 = DIRECTION('',(0.,-1.,1.110223024625E-15));
#769 = PLANE('',#770);
#770 = AXIS2_PLACEMENT_3D('',#771,#772,#773);
#771 = CARTESIAN_POINT('',(-26.,1.221245327088E-14,11.));
#772 = DIRECTION('',(1.,0.,0.));
#773 = DIRECTION('',(0.,-1.110223024625E-15,-1.));
#774 = ADVANCED_FACE('',(#775),#784,.T.);
#775 = FACE_BOUND('',#776,.T.);
#776 = EDGE_LOOP('',(#777,#783));
#777 = ORIENTED_EDGE('',*,*,#778,.T.);
#778 = EDGE_CURVE('',#516,#507,#779,.T.);
#779 = LINE('',#780,#781);
#780 = CARTESIAN_POINT('',(-26.,-1.221245327088E-14,-11.));
#781 = VECTOR('',#782,1.);
#782 = DIRECTION('',(0.,-1.,1.110223024625E-15));
#783 = ORIENTED_EDGE('',*,*,#515,.F.);
#784 = PLANE('',#785);
#785 = AXIS2_PLACEMENT_3D('',#786,#787,#788);
#786 = CARTESIAN_POINT('',(-26.,-9.091811696814,6.622106211162E-02));
#787 = DIRECTION('',(1.,-8.883385247768E-18,2.007536880378E-16));
#788 = DIRECTION('',(-2.007536880378E-16,4.440892098501E-16,1.));
#789 = ADVANCED_FACE('',(#790,#794),#805,.F.);
#790 = FACE_BOUND('',#791,.F.);
#791 = EDGE_LOOP('',(#792,#793));
#792 = ORIENTED_EDGE('',*,*,#583,.F.);
#793 = ORIENTED_EDGE('',*,*,#559,.T.);
#794 = FACE_BOUND('',#795,.F.);
#795 = EDGE_LOOP('',(#796));
#796 = ORIENTED_EDGE('',*,*,#797,.T.);
#797 = EDGE_CURVE('',#798,#798,#800,.T.);
#798 = VERTEX_POINT('',#799);
#799 = CARTESIAN_POINT('',(-56.5,-9.094,-1.));
#800 = CIRCLE('',#801,1.);
#801 = AXIS2_PLACEMENT_3D('',#802,#803,#804);
#802 = CARTESIAN_POINT('',(-56.5,-9.094,3.028910455782E-15));
#803 = DIRECTION('',(-1.,-7.395570986447E-32,-2.22044604925E-16));
#804 = DIRECTION('',(2.22044604925E-16,-3.330669073875E-16,-1.));
#805 = PLANE('',#806);
#806 = AXIS2_PLACEMENT_3D('',#807,#808,#809);
#807 = CARTESIAN_POINT('',(-56.5,-9.030595659254,3.421023478236E-15));
#808 = DIRECTION('',(1.,0.,0.));
#809 = DIRECTION('',(0.,2.22044604925E-16,1.));
#810 = ADVANCED_FACE('',(#811),#831,.T.);
#811 = FACE_BOUND('',#812,.T.);
#812 = EDGE_LOOP('',(#813,#821,#827,#828,#829,#830));
#813 = ORIENTED_EDGE('',*,*,#814,.T.);
#814 = EDGE_CURVE('',#697,#815,#817,.T.);
#815 = VERTEX_POINT('',#816);
#816 = CARTESIAN_POINT('',(7.5,-19.,-11.));
#817 = LINE('',#818,#819);
#818 = CARTESIAN_POINT('',(7.5,-1.221245327088E-14,-11.));
#819 = VECTOR('',#820,1.);
#820 = DIRECTION('',(0.,-1.,1.110223024625E-15));
#821 = ORIENTED_EDGE('',*,*,#822,.T.);
#822 = EDGE_CURVE('',#815,#610,#823,.T.);
#823 = LINE('',#824,#825);
#824 = CARTESIAN_POINT('',(7.5,-19.,-11.));
#825 = VECTOR('',#826,1.);
#826 = DIRECTION('',(-1.,0.,0.));
#827 = ORIENTED_EDGE('',*,*,#617,.F.);
#828 = ORIENTED_EDGE('',*,*,#778,.F.);
#829 = ORIENTED_EDGE('',*,*,#764,.F.);
#830 = ORIENTED_EDGE('',*,*,#705,.F.);
#831 = PLANE('',#832);
#832 = AXIS2_PLACEMENT_3D('',#833,#834,#835);
#833 = CARTESIAN_POINT('',(7.5,-1.221245327088E-14,-11.));
#834 = DIRECTION('',(0.,-1.110223024625E-15,-1.));
#835 = DIRECTION('',(-1.,0.,0.));
#836 = ADVANCED_FACE('',(#837,#873,#884,#895,#906),#917,.F.);
#837 = FACE_BOUND('',#838,.F.);
#838 = EDGE_LOOP('',(#839,#847,#856,#864,#871,#872));
#839 = ORIENTED_EDGE('',*,*,#840,.T.);
#840 = EDGE_CURVE('',#602,#841,#843,.T.);
#841 = VERTEX_POINT('',#842);
#842 = CARTESIAN_POINT('',(7.5,-19.,11.));
#843 = LINE('',#844,#845);
#844 = CARTESIAN_POINT('',(-26.,-19.,11.));
#845 = VECTOR('',#846,1.);
#846 = DIRECTION('',(1.,0.,0.));
#847 = ORIENTED_EDGE('',*,*,#848,.F.);
#848 = EDGE_CURVE('',#849,#841,#851,.T.);
#849 = VERTEX_POINT('',#850);
#850 = CARTESIAN_POINT('',(10.,-19.,8.5));
#851 = CIRCLE('',#852,2.5);
#852 = AXIS2_PLACEMENT_3D('',#853,#854,#855);
#853 = CARTESIAN_POINT('',(7.5,-19.,8.5));
#854 = DIRECTION('',(0.,-1.,1.110223024625E-15));
#855 = DIRECTION('',(1.,0.,0.));
#856 = ORIENTED_EDGE('',*,*,#857,.T.);
#857 = EDGE_CURVE('',#849,#858,#860,.T.);
#858 = VERTEX_POINT('',#859);
#859 = CARTESIAN_POINT('',(10.,-19.,-8.5));
#860 = LINE('',#861,#862);
#861 = CARTESIAN_POINT('',(10.,-19.,8.5));
#862 = VECTOR('',#863,1.);
#863 = DIRECTION('',(0.,-1.110223024625E-15,-1.));
#864 = ORIENTED_EDGE('',*,*,#865,.F.);
#865 = EDGE_CURVE('',#815,#858,#866,.T.);
#866 = CIRCLE('',#867,2.5);
#867 = AXIS2_PLACEMENT_3D('',#868,#869,#870);
#868 = CARTESIAN_POINT('',(7.5,-19.,-8.5));
#869 = DIRECTION('',(0.,-1.,1.110223024625E-15));
#870 = DIRECTION('',(1.,0.,0.));
#871 = ORIENTED_EDGE('',*,*,#822,.T.);
#872 = ORIENTED_EDGE('',*,*,#609,.F.);
#873 = FACE_BOUND('',#874,.F.);
#874 = EDGE_LOOP('',(#875));
#875 = ORIENTED_EDGE('',*,*,#876,.T.);
#876 = EDGE_CURVE('',#877,#877,#879,.T.);
#877 = VERTEX_POINT('',#878);
#878 = CARTESIAN_POINT('',(-18.5,-19.,-9.));
#879 = CIRCLE('',#880,1.5);
#880 = AXIS2_PLACEMENT_3D('',#881,#882,#883);
#881 = CARTESIAN_POINT('',(-20.,-19.,-9.));
#882 = DIRECTION('',(0.,-1.,9.992007221626E-16));
#883 = DIRECTION('',(1.,0.,0.));
#884 = FACE_BOUND('',#885,.F.);
#885 = EDGE_LOOP('',(#886));
#886 = ORIENTED_EDGE('',*,*,#887,.T.);
#887 = EDGE_CURVE('',#888,#888,#890,.T.);
#888 = VERTEX_POINT('',#889);
#889 = CARTESIAN_POINT('',(-18.5,-19.,9.));
#890 = CIRCLE('',#891,1.5);
#891 = AXIS2_PLACEMENT_3D('',#892,#893,#894);
#892 = CARTESIAN_POINT('',(-20.,-19.,9.));
#893 = DIRECTION('',(0.,-1.,9.992007221626E-16));
#894 = DIRECTION('',(1.,0.,0.));
#895 = FACE_BOUND('',#896,.F.);
#896 = EDGE_LOOP('',(#897));
#897 = ORIENTED_EDGE('',*,*,#898,.T.);
#898 = EDGE_CURVE('',#899,#899,#901,.T.);
#899 = VERTEX_POINT('',#900);
#900 = CARTESIAN_POINT('',(-9.,-19.,1.691423746788E-14));
#901 = CIRCLE('',#902,2.);
#902 = AXIS2_PLACEMENT_3D('',#903,#904,#905);
#903 = CARTESIAN_POINT('',(-11.,-19.,1.7763568394E-14));
#904 = DIRECTION('',(0.,-1.,8.881784197001E-16));
#905 = DIRECTION('',(1.,0.,0.));
#906 = FACE_BOUND('',#907,.F.);
#907 = EDGE_LOOP('',(#908));
#908 = ORIENTED_EDGE('',*,*,#909,.T.);
#909 = EDGE_CURVE('',#910,#910,#912,.T.);
#910 = VERTEX_POINT('',#911);
#911 = CARTESIAN_POINT('',(2.875,-19.,1.709423746788E-14));
#912 = CIRCLE('',#913,2.875);
#913 = AXIS2_PLACEMENT_3D('',#914,#915,#916);
#914 = CARTESIAN_POINT('',(0.,-19.,1.7763568394E-14));
#915 = DIRECTION('',(0.,-1.,1.110223024625E-15));
#916 = DIRECTION('',(1.,0.,0.));
#917 = PLANE('',#918);
#918 = AXIS2_PLACEMENT_3D('',#919,#920,#921);
#919 = CARTESIAN_POINT('',(-8.363250796862,-19.,2.13162820728E-14));
#920 = DIRECTION('',(0.,1.,-8.902230246252E-16));
#921 = DIRECTION('',(0.,8.902230246252E-16,1.));
#922 = ADVANCED_FACE('',(#923),#936,.T.);
#923 = FACE_BOUND('',#924,.T.);
#924 = EDGE_LOOP('',(#925,#926,#927,#928,#929,#935));
#925 = ORIENTED_EDGE('',*,*,#656,.T.);
#926 = ORIENTED_EDGE('',*,*,#634,.T.);
#927 = ORIENTED_EDGE('',*,*,#601,.T.);
#928 = ORIENTED_EDGE('',*,*,#840,.T.);
#929 = ORIENTED_EDGE('',*,*,#930,.F.);
#930 = EDGE_CURVE('',#672,#841,#931,.T.);
#931 = LINE('',#932,#933);
#932 = CARTESIAN_POINT('',(7.5,1.221245327088E-14,11.));
#933 = VECTOR('',#934,1.);
#934 = DIRECTION('',(0.,-1.,1.110223024625E-15));
#935 = ORIENTED_EDGE('',*,*,#671,.F.);
#936 = PLANE('',#937);
#937 = AXIS2_PLACEMENT_3D('',#938,#939,#940);
#938 = CARTESIAN_POINT('',(-26.,1.221245327088E-14,11.));
#939 = DIRECTION('',(0.,1.110223024625E-15,1.));
#940 = DIRECTION('',(1.,0.,0.));
#941 = ADVANCED_FACE('',(#942),#953,.T.);
#942 = FACE_BOUND('',#943,.F.);
#943 = EDGE_LOOP('',(#944,#950,#951,#952));
#944 = ORIENTED_EDGE('',*,*,#945,.T.);
#945 = EDGE_CURVE('',#680,#849,#946,.T.);
#946 = LINE('',#947,#948);
#947 = CARTESIAN_POINT('',(10.,9.436895709314E-15,8.5));
#948 = VECTOR('',#949,1.);
#949 = DIRECTION('',(0.,-1.,1.110223024625E-15));
#950 = ORIENTED_EDGE('',*,*,#848,.T.);
#951 = ORIENTED_EDGE('',*,*,#930,.F.);
#952 = ORIENTED_EDGE('',*,*,#679,.F.);
#953 = CYLINDRICAL_SURFACE('',#954,2.5);
#954 = AXIS2_PLACEMENT_3D('',#955,#956,#957);
#955 = CARTESIAN_POINT('',(7.5,9.436895709314E-15,8.5));
#956 = DIRECTION('',(0.,1.,-1.110223024625E-15));
#957 = DIRECTION('',(1.,0.,0.));
#958 = ADVANCED_FACE('',(#959,#970),#1004,.T.);
#959 = FACE_BOUND('',#960,.T.);
#960 = EDGE_LOOP('',(#961,#962,#963,#969));
#961 = ORIENTED_EDGE('',*,*,#945,.T.);
#962 = ORIENTED_EDGE('',*,*,#857,.T.);
#963 = ORIENTED_EDGE('',*,*,#964,.F.);
#964 = EDGE_CURVE('',#689,#858,#965,.T.);
#965 = LINE('',#966,#967);
#966 = CARTESIAN_POINT('',(10.,-9.436895709314E-15,-8.5));
#967 = VECTOR('',#968,1.);
#968 = DIRECTION('',(0.,-1.,1.110223024625E-15));
#969 = ORIENTED_EDGE('',*,*,#688,.F.);
#970 = FACE_BOUND('',#971,.T.);
#971 = EDGE_LOOP('',(#972,#982,#990,#998));
#972 = ORIENTED_EDGE('',*,*,#973,.T.);
#973 = EDGE_CURVE('',#974,#976,#978,.T.);
#974 = VERTEX_POINT('',#975);
#975 = CARTESIAN_POINT('',(10.,-7.,-2.));
#976 = VERTEX_POINT('',#977);
#977 = CARTESIAN_POINT('',(10.,-9.,-2.));
#978 = LINE('',#979,#980);
#979 = CARTESIAN_POINT('',(10.,-7.,-2.));
#980 = VECTOR('',#981,1.);
#981 = DIRECTION('',(0.,-1.,1.110223024625E-15));
#982 = ORIENTED_EDGE('',*,*,#983,.T.);
#983 = EDGE_CURVE('',#976,#984,#986,.T.);
#984 = VERTEX_POINT('',#985);
#985 = CARTESIAN_POINT('',(10.,-9.,2.));
#986 = LINE('',#987,#988);
#987 = CARTESIAN_POINT('',(10.,-9.,-2.));
#988 = VECTOR('',#989,1.);
#989 = DIRECTION('',(2.22044604925E-16,1.110223024625E-15,1.));
#990 = ORIENTED_EDGE('',*,*,#991,.T.);
#991 = EDGE_CURVE('',#984,#992,#994,.T.);
#992 = VERTEX_POINT('',#993);
#993 = CARTESIAN_POINT('',(10.,-7.,2.));
#994 = LINE('',#995,#996);
#995 = CARTESIAN_POINT('',(10.,-9.,2.));
#996 = VECTOR('',#997,1.);
#997 = DIRECTION('',(-4.930380657631E-32,1.,-1.443289932013E-15));
#998 = ORIENTED_EDGE('',*,*,#999,.T.);
#999 = EDGE_CURVE('',#992,#974,#1000,.T.);
#1000 = LINE('',#1001,#1002);
#1001 = CARTESIAN_POINT('',(10.,-7.,2.));
#1002 = VECTOR('',#1003,1.);
#1003 = DIRECTION('',(-2.22044604925E-16,-1.110223024625E-15,-1.));
#1004 = PLANE('',#1005);
#1005 = AXIS2_PLACEMENT_3D('',#1006,#1007,#1008);
#1006 = CARTESIAN_POINT('',(10.,9.436895709314E-15,8.5));
#1007 = DIRECTION('',(1.,0.,0.));
#1008 = DIRECTION('',(0.,-1.110223024625E-15,-1.));
#1009 = ADVANCED_FACE('',(#1010),#1016,.T.);
#1010 = FACE_BOUND('',#1011,.F.);
#1011 = EDGE_LOOP('',(#1012,#1013,#1014,#1015));
#1012 = ORIENTED_EDGE('',*,*,#814,.T.);
#1013 = ORIENTED_EDGE('',*,*,#865,.T.);
#1014 = ORIENTED_EDGE('',*,*,#964,.F.);
#1015 = ORIENTED_EDGE('',*,*,#696,.F.);
#1016 = CYLINDRICAL_SURFACE('',#1017,2.5);
#1017 = AXIS2_PLACEMENT_3D('',#1018,#1019,#1020);
#1018 = CARTESIAN_POINT('',(7.5,-9.436895709314E-15,-8.5));
#1019 = DIRECTION('',(0.,1.,-1.110223024625E-15));
#1020 = DIRECTION('',(1.,0.,0.));
#1021 = ADVANCED_FACE('',(#1022),#1033,.F.);
#1022 = FACE_BOUND('',#1023,.F.);
#1023 = EDGE_LOOP('',(#1024,#1025,#1031,#1032));
#1024 = ORIENTED_EDGE('',*,*,#876,.F.);
#1025 = ORIENTED_EDGE('',*,*,#1026,.T.);
#1026 = EDGE_CURVE('',#877,#724,#1027,.T.);
#1027 = LINE('',#1028,#1029);
#1028 = CARTESIAN_POINT('',(-18.5,-19.,-9.));
#1029 = VECTOR('',#1030,1.);
#1030 = DIRECTION('',(0.,1.,-9.992007221626E-16));
#1031 = ORIENTED_EDGE('',*,*,#723,.T.);
#1032 = ORIENTED_EDGE('',*,*,#1026,.F.);
#1033 = CYLINDRICAL_SURFACE('',#1034,1.5);
#1034 = AXIS2_PLACEMENT_3D('',#1035,#1036,#1037);
#1035 = CARTESIAN_POINT('',(-20.,-19.,-9.));
#1036 = DIRECTION('',(0.,-1.,9.992007221626E-16));
#1037 = DIRECTION('',(1.,0.,0.));
#1038 = ADVANCED_FACE('',(#1039),#1050,.F.);
#1039 = FACE_BOUND('',#1040,.F.);
#1040 = EDGE_LOOP('',(#1041,#1042,#1048,#1049));
#1041 = ORIENTED_EDGE('',*,*,#887,.F.);
#1042 = ORIENTED_EDGE('',*,*,#1043,.T.);
#1043 = EDGE_CURVE('',#888,#735,#1044,.T.);
#1044 = LINE('',#1045,#1046);
#1045 = CARTESIAN_POINT('',(-18.5,-19.,9.));
#1046 = VECTOR('',#1047,1.);
#1047 = DIRECTION('',(0.,1.,-9.992007221626E-16));
#1048 = ORIENTED_EDGE('',*,*,#734,.T.);
#1049 = ORIENTED_EDGE('',*,*,#1043,.F.);
#1050 = CYLINDRICAL_SURFACE('',#1051,1.5);
#1051 = AXIS2_PLACEMENT_3D('',#1052,#1053,#1054);
#1052 = CARTESIAN_POINT('',(-20.,-19.,9.));
#1053 = DIRECTION('',(0.,-1.,9.992007221626E-16));
#1054 = DIRECTION('',(1.,0.,0.));
#1055 = ADVANCED_FACE('',(#1056),#1084,.T.);
#1056 = FACE_BOUND('',#1057,.F.);
#1057 = EDGE_LOOP('',(#1058,#1059,#1067,#1076,#1083));
#1058 = ORIENTED_EDGE('',*,*,#745,.F.);
#1059 = ORIENTED_EDGE('',*,*,#1060,.T.);
#1060 = EDGE_CURVE('',#746,#1061,#1063,.T.);
#1061 = VERTEX_POINT('',#1062);
#1062 = CARTESIAN_POINT('',(2.875,1.5,-1.665334536938E-15));
#1063 = LINE('',#1064,#1065);
#1064 = CARTESIAN_POINT('',(2.875,0.,0.));
#1065 = VECTOR('',#1066,1.);
#1066 = DIRECTION('',(0.,1.,-1.110223024625E-15));
#1067 = ORIENTED_EDGE('',*,*,#1068,.T.);
#1068 = EDGE_CURVE('',#1061,#1069,#1071,.T.);
#1069 = VERTEX_POINT('',#1070);
#1070 = CARTESIAN_POINT('',(-2.875,1.5,-1.945889166533E-08));
#1071 = CIRCLE('',#1072,2.875);
#1072 = AXIS2_PLACEMENT_3D('',#1073,#1074,#1075);
#1073 = CARTESIAN_POINT('',(0.,1.5,-1.7763568394E-15));
#1074 = DIRECTION('',(0.,1.,-1.110223024625E-15));
#1075 = DIRECTION('',(1.,0.,0.));
#1076 = ORIENTED_EDGE('',*,*,#1077,.T.);
#1077 = EDGE_CURVE('',#1069,#1061,#1078,.T.);
#1078 = CIRCLE('',#1079,2.875);
#1079 = AXIS2_PLACEMENT_3D('',#1080,#1081,#1082);
#1080 = CARTESIAN_POINT('',(0.,1.5,-1.7763568394E-15));
#1081 = DIRECTION('',(0.,1.,-1.110223024625E-15));
#1082 = DIRECTION('',(1.,0.,0.));
#1083 = ORIENTED_EDGE('',*,*,#1060,.F.);
#1084 = CYLINDRICAL_SURFACE('',#1085,2.875);
#1085 = AXIS2_PLACEMENT_3D('',#1086,#1087,#1088);
#1086 = CARTESIAN_POINT('',(0.,0.,0.));
#1087 = DIRECTION('',(0.,-1.,1.110223024625E-15));
#1088 = DIRECTION('',(1.,0.,0.));
#1089 = ADVANCED_FACE('',(#1090),#1109,.T.);
#1090 = FACE_BOUND('',#1091,.F.);
#1091 = EDGE_LOOP('',(#1092,#1100,#1107,#1108));
#1092 = ORIENTED_EDGE('',*,*,#1093,.T.);
#1093 = EDGE_CURVE('',#798,#1094,#1096,.T.);
#1094 = VERTEX_POINT('',#1095);
#1095 = CARTESIAN_POINT('',(-58.5,-9.094,-1.));
#1096 = LINE('',#1097,#1098);
#1097 = CARTESIAN_POINT('',(-56.5,-9.094,-1.));
#1098 = VECTOR('',#1099,1.);
#1099 = DIRECTION('',(-1.,-4.930380657631E-32,-2.22044604925E-16));
#1100 = ORIENTED_EDGE('',*,*,#1101,.T.);
#1101 = EDGE_CURVE('',#1094,#1094,#1102,.T.);
#1102 = CIRCLE('',#1103,1.);
#1103 = AXIS2_PLACEMENT_3D('',#1104,#1105,#1106);
#1104 = CARTESIAN_POINT('',(-58.5,-9.094,2.584821245932E-15));
#1105 = DIRECTION('',(-1.,-7.395570986447E-32,-2.22044604925E-16));
#1106 = DIRECTION('',(2.22044604925E-16,-3.330669073875E-16,-1.));
#1107 = ORIENTED_EDGE('',*,*,#1093,.F.);
#1108 = ORIENTED_EDGE('',*,*,#797,.F.);
#1109 = CYLINDRICAL_SURFACE('',#1110,1.);
#1110 = AXIS2_PLACEMENT_3D('',#1111,#1112,#1113);
#1111 = CARTESIAN_POINT('',(-56.5,-9.094,3.028910455782E-15));
#1112 = DIRECTION('',(1.,4.930380657631E-32,2.22044604925E-16));
#1113 = DIRECTION('',(2.22044604925E-16,-3.330669073875E-16,-1.));
#1114 = ADVANCED_FACE('',(#1115),#1134,.T.);
#1115 = FACE_BOUND('',#1116,.F.);
#1116 = EDGE_LOOP('',(#1117,#1125,#1132,#1133));
#1117 = ORIENTED_EDGE('',*,*,#1118,.T.);
#1118 = EDGE_CURVE('',#899,#1119,#1121,.T.);
#1119 = VERTEX_POINT('',#1120);
#1120 = CARTESIAN_POINT('',(-9.,-21.,1.869059430728E-14));
#1121 = LINE('',#1122,#1123);
#1122 = CARTESIAN_POINT('',(-9.,-19.,1.691423746788E-14));
#1123 = VECTOR('',#1124,1.);
#1124 = DIRECTION('',(0.,-1.,8.881784197001E-16));
#1125 = ORIENTED_EDGE('',*,*,#1126,.T.);
#1126 = EDGE_CURVE('',#1119,#1119,#1127,.T.);
#1127 = CIRCLE('',#1128,2.);
#1128 = AXIS2_PLACEMENT_3D('',#1129,#1130,#1131);
#1129 = CARTESIAN_POINT('',(-11.,-21.,1.7763568394E-14));
#1130 = DIRECTION('',(0.,-1.,8.881784197001E-16));
#1131 = DIRECTION('',(1.,0.,0.));
#1132 = ORIENTED_EDGE('',*,*,#1118,.F.);
#1133 = ORIENTED_EDGE('',*,*,#898,.F.);
#1134 = CYLINDRICAL_SURFACE('',#1135,2.);
#1135 = AXIS2_PLACEMENT_3D('',#1136,#1137,#1138);
#1136 = CARTESIAN_POINT('',(-11.,-19.,1.691423746788E-14));
#1137 = DIRECTION('',(0.,1.,-8.881784197001E-16));
#1138 = DIRECTION('',(1.,0.,0.));
#1139 = ADVANCED_FACE('',(#1140),#1168,.T.);
#1140 = FACE_BOUND('',#1141,.F.);
#1141 = EDGE_LOOP('',(#1142,#1143,#1151,#1160,#1167));
#1142 = ORIENTED_EDGE('',*,*,#909,.F.);
#1143 = ORIENTED_EDGE('',*,*,#1144,.T.);
#1144 = EDGE_CURVE('',#910,#1145,#1147,.T.);
#1145 = VERTEX_POINT('',#1146);
#1146 = CARTESIAN_POINT('',(2.875,-20.5,1.875957200482E-14));
#1147 = LINE('',#1148,#1149);
#1148 = CARTESIAN_POINT('',(2.875,-19.,2.109423746788E-14));
#1149 = VECTOR('',#1150,1.);
#1150 = DIRECTION('',(0.,-1.,1.110223024625E-15));
#1151 = ORIENTED_EDGE('',*,*,#1152,.T.);
#1152 = EDGE_CURVE('',#1145,#1153,#1155,.T.);
#1153 = VERTEX_POINT('',#1154);
#1154 = CARTESIAN_POINT('',(-2.875,-20.5,1.202628275957E-08));
#1155 = CIRCLE('',#1156,2.875);
#1156 = AXIS2_PLACEMENT_3D('',#1157,#1158,#1159);
#1157 = CARTESIAN_POINT('',(0.,-20.5,1.7763568394E-14));
#1158 = DIRECTION('',(0.,-1.,1.110223024625E-15));
#1159 = DIRECTION('',(1.,0.,0.));
#1160 = ORIENTED_EDGE('',*,*,#1161,.T.);
#1161 = EDGE_CURVE('',#1153,#1145,#1162,.T.);
#1162 = CIRCLE('',#1163,2.875);
#1163 = AXIS2_PLACEMENT_3D('',#1164,#1165,#1166);
#1164 = CARTESIAN_POINT('',(0.,-20.5,1.7763568394E-14));
#1165 = DIRECTION('',(0.,-1.,1.110223024625E-15));
#1166 = DIRECTION('',(1.,0.,0.));
#1167 = ORIENTED_EDGE('',*,*,#1144,.F.);
#1168 = CYLINDRICAL_SURFACE('',#1169,2.875);
#1169 = AXIS2_PLACEMENT_3D('',#1170,#1171,#1172);
#1170 = CARTESIAN_POINT('',(0.,-19.,2.109423746788E-14));
#1171 = DIRECTION('',(0.,1.,-1.110223024625E-15));
#1172 = DIRECTION('',(1.,0.,0.));
#1173 = ADVANCED_FACE('',(#1174),#1199,.T.);
#1174 = FACE_BOUND('',#1175,.T.);
#1175 = EDGE_LOOP('',(#1176,#1184,#1192,#1198));
#1176 = ORIENTED_EDGE('',*,*,#1177,.T.);
#1177 = EDGE_CURVE('',#974,#1178,#1180,.T.);
#1178 = VERTEX_POINT('',#1179);
#1179 = CARTESIAN_POINT('',(15.,-7.,-2.));
#1180 = LINE('',#1181,#1182);
#1181 = CARTESIAN_POINT('',(10.,-7.,-2.));
#1182 = VECTOR('',#1183,1.);
#1183 = DIRECTION('',(1.,-2.218671295934E-31,-2.22044604925E-16));
#1184 = ORIENTED_EDGE('',*,*,#1185,.T.);
#1185 = EDGE_CURVE('',#1178,#1186,#1188,.T.);
#1186 = VERTEX_POINT('',#1187);
#1187 = CARTESIAN_POINT('',(15.,-9.,-2.));
#1188 = LINE('',#1189,#1190);
#1189 = CARTESIAN_POINT('',(15.,-7.,-2.));
#1190 = VECTOR('',#1191,1.);
#1191 = DIRECTION('',(0.,-1.,1.110223024625E-15));
#1192 = ORIENTED_EDGE('',*,*,#1193,.F.);
#1193 = EDGE_CURVE('',#976,#1186,#1194,.T.);
#1194 = LINE('',#1195,#1196);
#1195 = CARTESIAN_POINT('',(10.,-9.,-2.));
#1196 = VECTOR('',#1197,1.);
#1197 = DIRECTION('',(1.,-2.218671295934E-31,-2.22044604925E-16));
#1198 = ORIENTED_EDGE('',*,*,#973,.F.);
#1199 = PLANE('',#1200);
#1200 = AXIS2_PLACEMENT_3D('',#1201,#1202,#1203);
#1201 = CARTESIAN_POINT('',(10.,-7.,-2.));
#1202 = DIRECTION('',(-2.22044604925E-16,-1.110223024625E-15,-1.));
#1203 = DIRECTION('',(2.465190328816E-32,-1.,1.110223024625E-15));
#1204 = ADVANCED_FACE('',(#1205,#1223),#1234,.T.);
#1205 = FACE_BOUND('',#1206,.T.);
#1206 = EDGE_LOOP('',(#1207,#1215,#1221,#1222));
#1207 = ORIENTED_EDGE('',*,*,#1208,.T.);
#1208 = EDGE_CURVE('',#992,#1209,#1211,.T.);
#1209 = VERTEX_POINT('',#1210);
#1210 = CARTESIAN_POINT('',(15.,-7.,2.));
#1211 = LINE('',#1212,#1213);
#1212 = CARTESIAN_POINT('',(10.,-7.,2.));
#1213 = VECTOR('',#1214,1.);
#1214 = DIRECTION('',(1.,-2.218671295934E-31,-2.22044604925E-16));
#1215 = ORIENTED_EDGE('',*,*,#1216,.T.);
#1216 = EDGE_CURVE('',#1209,#1178,#1217,.T.);
#1217 = LINE('',#1218,#1219);
#1218 = CARTESIAN_POINT('',(15.,-7.,2.));
#1219 = VECTOR('',#1220,1.);
#1220 = DIRECTION('',(-2.22044604925E-16,-1.110223024625E-15,-1.));
#1221 = ORIENTED_EDGE('',*,*,#1177,.F.);
#1222 = ORIENTED_EDGE('',*,*,#999,.F.);
#1223 = FACE_BOUND('',#1224,.T.);
#1224 = EDGE_LOOP('',(#1225));
#1225 = ORIENTED_EDGE('',*,*,#1226,.T.);
#1226 = EDGE_CURVE('',#1227,#1227,#1229,.T.);
#1227 = VERTEX_POINT('',#1228);
#1228 = CARTESIAN_POINT('',(14.5,-7.,7.549516567451E-15));
#1229 = CIRCLE('',#1230,1.5);
#1230 = AXIS2_PLACEMENT_3D('',#1231,#1232,#1233);
#1231 = CARTESIAN_POINT('',(13.,-7.,7.549516567451E-15));
#1232 = DIRECTION('',(2.465190328816E-32,-1.,1.221245327088E-15));
#1233 = DIRECTION('',(1.,2.465190328816E-32,-2.736911063134E-47));
#1234 = PLANE('',#1235);
#1235 = AXIS2_PLACEMENT_3D('',#1236,#1237,#1238);
#1236 = CARTESIAN_POINT('',(10.,-7.,2.));
#1237 = DIRECTION('',(-2.465190328816E-32,1.,-1.110223024625E-15));
#1238 = DIRECTION('',(-2.22044604925E-16,-1.110223024625E-15,-1.));
#1239 = ADVANCED_FACE('',(#1240),#1258,.T.);
#1240 = FACE_BOUND('',#1241,.T.);
#1241 = EDGE_LOOP('',(#1242,#1250,#1256,#1257));
#1242 = ORIENTED_EDGE('',*,*,#1243,.T.);
#1243 = EDGE_CURVE('',#984,#1244,#1246,.T.);
#1244 = VERTEX_POINT('',#1245);
#1245 = CARTESIAN_POINT('',(15.,-9.,2.));
#1246 = LINE('',#1247,#1248);
#1247 = CARTESIAN_POINT('',(10.,-9.,2.));
#1248 = VECTOR('',#1249,1.);
#1249 = DIRECTION('',(1.,-2.218671295934E-31,-2.22044604925E-16));
#1250 = ORIENTED_EDGE('',*,*,#1251,.T.);
#1251 = EDGE_CURVE('',#1244,#1209,#1252,.T.);
#1252 = LINE('',#1253,#1254);
#1253 = CARTESIAN_POINT('',(15.,-9.,2.));
#1254 = VECTOR('',#1255,1.);
#1255 = DIRECTION('',(-4.930380657631E-32,1.,-1.443289932013E-15));
#1256 = ORIENTED_EDGE('',*,*,#1208,.F.);
#1257 = ORIENTED_EDGE('',*,*,#991,.F.);
#1258 = PLANE('',#1259);
#1259 = AXIS2_PLACEMENT_3D('',#1260,#1261,#1262);
#1260 = CARTESIAN_POINT('',(10.,-9.,2.));
#1261 = DIRECTION('',(2.22044604925E-16,1.443289932013E-15,1.));
#1262 = DIRECTION('',(-9.860761315263E-32,1.,-1.443289932013E-15));
#1263 = ADVANCED_FACE('',(#1264,#1275),#1286,.T.);
#1264 = FACE_BOUND('',#1265,.T.);
#1265 = EDGE_LOOP('',(#1266,#1267,#1273,#1274));
#1266 = ORIENTED_EDGE('',*,*,#1193,.T.);
#1267 = ORIENTED_EDGE('',*,*,#1268,.T.);
#1268 = EDGE_CURVE('',#1186,#1244,#1269,.T.);
#1269 = LINE('',#1270,#1271);
#1270 = CARTESIAN_POINT('',(15.,-9.,-2.));
#1271 = VECTOR('',#1272,1.);
#1272 = DIRECTION('',(2.22044604925E-16,1.110223024625E-15,1.));
#1273 = ORIENTED_EDGE('',*,*,#1243,.F.);
#1274 = ORIENTED_EDGE('',*,*,#983,.F.);
#1275 = FACE_BOUND('',#1276,.T.);
#1276 = EDGE_LOOP('',(#1277));
#1277 = ORIENTED_EDGE('',*,*,#1278,.F.);
#1278 = EDGE_CURVE('',#1279,#1279,#1281,.T.);
#1279 = VERTEX_POINT('',#1280);
#1280 = CARTESIAN_POINT('',(14.5,-9.,9.992007221626E-15));
#1281 = CIRCLE('',#1282,1.5);
#1282 = AXIS2_PLACEMENT_3D('',#1283,#1284,#1285);
#1283 = CARTESIAN_POINT('',(13.,-9.,1.06581410364E-14));
#1284 = DIRECTION('',(2.465190328816E-32,-1.,1.221245327088E-15));
#1285 = DIRECTION('',(1.,2.465190328816E-32,-2.736911063134E-47));
#1286 = PLANE('',#1287);
#1287 = AXIS2_PLACEMENT_3D('',#1288,#1289,#1290);
#1288 = CARTESIAN_POINT('',(10.,-9.,-2.));
#1289 = DIRECTION('',(2.465190328816E-32,-1.,1.110223024625E-15));
#1290 = DIRECTION('',(2.22044604925E-16,1.110223024625E-15,1.));
#1291 = ADVANCED_FACE('',(#1292),#1319,.T.);
#1292 = FACE_BOUND('',#1293,.T.);
#1293 = EDGE_LOOP('',(#1294,#1295,#1304,#1312));
#1294 = ORIENTED_EDGE('',*,*,#1077,.T.);
#1295 = ORIENTED_EDGE('',*,*,#1296,.F.);
#1296 = EDGE_CURVE('',#1297,#1061,#1299,.T.);
#1297 = VERTEX_POINT('',#1298);
#1298 = CARTESIAN_POINT('',(1.,1.5,1.875));
#1299 = CIRCLE('',#1300,1.875);
#1300 = AXIS2_PLACEMENT_3D('',#1301,#1302,#1303);
#1301 = CARTESIAN_POINT('',(1.,1.5,-1.7763568394E-15));
#1302 = DIRECTION('',(0.,1.,-1.110223024625E-15));
#1303 = DIRECTION('',(1.,0.,0.));
#1304 = ORIENTED_EDGE('',*,*,#1305,.F.);
#1305 = EDGE_CURVE('',#1306,#1297,#1308,.T.);
#1306 = VERTEX_POINT('',#1307);
#1307 = CARTESIAN_POINT('',(-1.,1.5,1.875));
#1308 = LINE('',#1309,#1310);
#1309 = CARTESIAN_POINT('',(-1.,1.5,1.875));
#1310 = VECTOR('',#1311,1.);
#1311 = DIRECTION('',(1.,0.,0.));
#1312 = ORIENTED_EDGE('',*,*,#1313,.F.);
#1313 = EDGE_CURVE('',#1069,#1306,#1314,.T.);
#1314 = CIRCLE('',#1315,1.875);
#1315 = AXIS2_PLACEMENT_3D('',#1316,#1317,#1318);
#1316 = CARTESIAN_POINT('',(-1.,1.5,-1.7763568394E-15));
#1317 = DIRECTION('',(0.,1.,-1.110223024625E-15));
#1318 = DIRECTION('',(1.,0.,0.));
#1319 = PLANE('',#1320);
#1320 = AXIS2_PLACEMENT_3D('',#1321,#1322,#1323);
#1321 = CARTESIAN_POINT('',(-1.8E-16,1.5,-1.998401444325E-15));
#1322 = DIRECTION('',(0.,1.,-8.902230246252E-16));
#1323 = DIRECTION('',(0.,8.902230246252E-16,1.));
#1324 = ADVANCED_FACE('',(#1325),#1352,.T.);
#1325 = FACE_BOUND('',#1326,.T.);
#1326 = EDGE_LOOP('',(#1327,#1336,#1337,#1346));
#1327 = ORIENTED_EDGE('',*,*,#1328,.F.);
#1328 = EDGE_CURVE('',#1061,#1329,#1331,.T.);
#1329 = VERTEX_POINT('',#1330);
#1330 = CARTESIAN_POINT('',(1.,1.5,-1.875));
#1331 = CIRCLE('',#1332,1.875);
#1332 = AXIS2_PLACEMENT_3D('',#1333,#1334,#1335);
#1333 = CARTESIAN_POINT('',(1.,1.5,-1.7763568394E-15));
#1334 = DIRECTION('',(0.,1.,-1.110223024625E-15));
#1335 = DIRECTION('',(1.,0.,0.));
#1336 = ORIENTED_EDGE('',*,*,#1068,.T.);
#1337 = ORIENTED_EDGE('',*,*,#1338,.F.);
#1338 = EDGE_CURVE('',#1339,#1069,#1341,.T.);
#1339 = VERTEX_POINT('',#1340);
#1340 = CARTESIAN_POINT('',(-1.,1.5,-1.875));
#1341 = CIRCLE('',#1342,1.875);
#1342 = AXIS2_PLACEMENT_3D('',#1343,#1344,#1345);
#1343 = CARTESIAN_POINT('',(-1.,1.5,-1.7763568394E-15));
#1344 = DIRECTION('',(0.,1.,-1.110223024625E-15));
#1345 = DIRECTION('',(1.,0.,0.));
#1346 = ORIENTED_EDGE('',*,*,#1347,.F.);
#1347 = EDGE_CURVE('',#1329,#1339,#1348,.T.);
#1348 = LINE('',#1349,#1350);
#1349 = CARTESIAN_POINT('',(1.,1.5,-1.875));
#1350 = VECTOR('',#1351,1.);
#1351 = DIRECTION('',(-1.,-0.,0.));
#1352 = PLANE('',#1353);
#1353 = AXIS2_PLACEMENT_3D('',#1354,#1355,#1356);
#1354 = CARTESIAN_POINT('',(-1.8E-16,1.5,-1.998401444325E-15));
#1355 = DIRECTION('',(0.,1.,-8.902230246252E-16));
#1356 = DIRECTION('',(0.,8.902230246252E-16,1.));
#1357 = ADVANCED_FACE('',(#1358),#1361,.F.);
#1358 = FACE_BOUND('',#1359,.T.);
#1359 = EDGE_LOOP('',(#1360));
#1360 = ORIENTED_EDGE('',*,*,#1101,.T.);
#1361 = PLANE('',#1362);
#1362 = AXIS2_PLACEMENT_3D('',#1363,#1364,#1365);
#1363 = CARTESIAN_POINT('',(-58.5,-9.094,2.723539067908E-15));
#1364 = DIRECTION('',(1.,2.007068112965E-47,-2.629536350737E-31));
#1365 = DIRECTION('',(2.629536350737E-31,1.110223024625E-16,1.));
#1366 = ADVANCED_FACE('',(#1367),#1370,.F.);
#1367 = FACE_BOUND('',#1368,.T.);
#1368 = EDGE_LOOP('',(#1369));
#1369 = ORIENTED_EDGE('',*,*,#1126,.T.);
#1370 = PLANE('',#1371);
#1371 = AXIS2_PLACEMENT_3D('',#1372,#1373,#1374);
#1372 = CARTESIAN_POINT('',(-11.,-21.,1.86517468137E-14));
#1373 = DIRECTION('',(0.,1.,-6.661338147751E-16));
#1374 = DIRECTION('',(0.,6.661338147751E-16,1.));
#1375 = ADVANCED_FACE('',(#1376),#1403,.F.);
#1376 = FACE_BOUND('',#1377,.F.);
#1377 = EDGE_LOOP('',(#1378,#1387,#1388,#1397));
#1378 = ORIENTED_EDGE('',*,*,#1379,.T.);
#1379 = EDGE_CURVE('',#1380,#1145,#1382,.T.);
#1380 = VERTEX_POINT('',#1381);
#1381 = CARTESIAN_POINT('',(1.,-20.5,-1.875));
#1382 = CIRCLE('',#1383,1.875);
#1383 = AXIS2_PLACEMENT_3D('',#1384,#1385,#1386);
#1384 = CARTESIAN_POINT('',(1.,-20.5,2.13162820728E-14));
#1385 = DIRECTION('',(0.,-1.,1.110223024625E-15));
#1386 = DIRECTION('',(1.,0.,0.));
#1387 = ORIENTED_EDGE('',*,*,#1161,.F.);
#1388 = ORIENTED_EDGE('',*,*,#1389,.T.);
#1389 = EDGE_CURVE('',#1153,#1390,#1392,.T.);
#1390 = VERTEX_POINT('',#1391);
#1391 = CARTESIAN_POINT('',(-1.,-20.5,-1.875));
#1392 = CIRCLE('',#1393,1.875);
#1393 = AXIS2_PLACEMENT_3D('',#1394,#1395,#1396);
#1394 = CARTESIAN_POINT('',(-1.,-20.5,2.13162820728E-14));
#1395 = DIRECTION('',(0.,-1.,1.110223024625E-15));
#1396 = DIRECTION('',(1.,0.,0.));
#1397 = ORIENTED_EDGE('',*,*,#1398,.T.);
#1398 = EDGE_CURVE('',#1390,#1380,#1399,.T.);
#1399 = LINE('',#1400,#1401);
#1400 = CARTESIAN_POINT('',(-1.,-20.5,-1.875));
#1401 = VECTOR('',#1402,1.);
#1402 = DIRECTION('',(1.,0.,0.));
#1403 = PLANE('',#1404);
#1404 = AXIS2_PLACEMENT_3D('',#1405,#1406,#1407);
#1405 = CARTESIAN_POINT('',(-1.8E-16,-20.5,1.887379141863E-14));
#1406 = DIRECTION('',(0.,1.,-1.110223024625E-15));
#1407 = DIRECTION('',(0.,1.110223024625E-15,1.));
#1408 = ADVANCED_FACE('',(#1409),#1436,.F.);
#1409 = FACE_BOUND('',#1410,.F.);
#1410 = EDGE_LOOP('',(#1411,#1412,#1421,#1429));
#1411 = ORIENTED_EDGE('',*,*,#1152,.F.);
#1412 = ORIENTED_EDGE('',*,*,#1413,.T.);
#1413 = EDGE_CURVE('',#1145,#1414,#1416,.T.);
#1414 = VERTEX_POINT('',#1415);
#1415 = CARTESIAN_POINT('',(1.,-20.5,1.875));
#1416 = CIRCLE('',#1417,1.875);
#1417 = AXIS2_PLACEMENT_3D('',#1418,#1419,#1420);
#1418 = CARTESIAN_POINT('',(1.,-20.5,2.13162820728E-14));
#1419 = DIRECTION('',(0.,-1.,1.110223024625E-15));
#1420 = DIRECTION('',(1.,0.,0.));
#1421 = ORIENTED_EDGE('',*,*,#1422,.T.);
#1422 = EDGE_CURVE('',#1414,#1423,#1425,.T.);
#1423 = VERTEX_POINT('',#1424);
#1424 = CARTESIAN_POINT('',(-1.,-20.5,1.875));
#1425 = LINE('',#1426,#1427);
#1426 = CARTESIAN_POINT('',(1.,-20.5,1.875));
#1427 = VECTOR('',#1428,1.);
#1428 = DIRECTION('',(-1.,0.,0.));
#1429 = ORIENTED_EDGE('',*,*,#1430,.T.);
#1430 = EDGE_CURVE('',#1423,#1153,#1431,.T.);
#1431 = CIRCLE('',#1432,1.875);
#1432 = AXIS2_PLACEMENT_3D('',#1433,#1434,#1435);
#1433 = CARTESIAN_POINT('',(-1.,-20.5,2.13162820728E-14));
#1434 = DIRECTION('',(0.,-1.,1.110223024625E-15));
#1435 = DIRECTION('',(1.,0.,0.));
#1436 = PLANE('',#1437);
#1437 = AXIS2_PLACEMENT_3D('',#1438,#1439,#1440);
#1438 = CARTESIAN_POINT('',(-1.8E-16,-20.5,1.887379141863E-14));
#1439 = DIRECTION('',(0.,1.,-1.110223024625E-15));
#1440 = DIRECTION('',(0.,1.110223024625E-15,1.));
#1441 = ADVANCED_FACE('',(#1442),#1448,.T.);
#1442 = FACE_BOUND('',#1443,.F.);
#1443 = EDGE_LOOP('',(#1444,#1445,#1446,#1447));
#1444 = ORIENTED_EDGE('',*,*,#1268,.T.);
#1445 = ORIENTED_EDGE('',*,*,#1251,.T.);
#1446 = ORIENTED_EDGE('',*,*,#1216,.T.);
#1447 = ORIENTED_EDGE('',*,*,#1185,.T.);
#1448 = PLANE('',#1449);
#1449 = AXIS2_PLACEMENT_3D('',#1450,#1451,#1452);
#1450 = CARTESIAN_POINT('',(15.,-8.,7.882583474839E-15));
#1451 = DIRECTION('',(1.,0.,0.));
#1452 = DIRECTION('',(0.,8.881784197001E-16,1.));
#1453 = ADVANCED_FACE('',(#1454),#1465,.F.);
#1454 = FACE_BOUND('',#1455,.F.);
#1455 = EDGE_LOOP('',(#1456,#1457,#1463,#1464));
#1456 = ORIENTED_EDGE('',*,*,#1278,.F.);
#1457 = ORIENTED_EDGE('',*,*,#1458,.T.);
#1458 = EDGE_CURVE('',#1279,#1227,#1459,.T.);
#1459 = LINE('',#1460,#1461);
#1460 = CARTESIAN_POINT('',(14.5,-9.,9.992007221626E-15));
#1461 = VECTOR('',#1462,1.);
#1462 = DIRECTION('',(-2.465190328816E-32,1.,-1.221245327088E-15));
#1463 = ORIENTED_EDGE('',*,*,#1226,.T.);
#1464 = ORIENTED_EDGE('',*,*,#1458,.F.);
#1465 = CYLINDRICAL_SURFACE('',#1466,1.5);
#1466 = AXIS2_PLACEMENT_3D('',#1467,#1468,#1469);
#1467 = CARTESIAN_POINT('',(13.,-9.,9.992007221626E-15));
#1468 = DIRECTION('',(2.465190328816E-32,-1.,1.221245327088E-15));
#1469 = DIRECTION('',(1.,2.465190328816E-32,-2.736911063134E-47));
#1470 = ADVANCED_FACE('',(#1471),#1498,.T.);
#1471 = FACE_BOUND('',#1472,.F.);
#1472 = EDGE_LOOP('',(#1473,#1481,#1490,#1496,#1497));
#1473 = ORIENTED_EDGE('',*,*,#1474,.T.);
#1474 = EDGE_CURVE('',#1339,#1475,#1477,.T.);
#1475 = VERTEX_POINT('',#1476);
#1476 = CARTESIAN_POINT('',(-1.,9.5,-1.875));
#1477 = LINE('',#1478,#1479);
#1478 = CARTESIAN_POINT('',(-1.,1.5,-1.875));
#1479 = VECTOR('',#1480,1.);
#1480 = DIRECTION('',(0.,1.,-1.110223024625E-15));
#1481 = ORIENTED_EDGE('',*,*,#1482,.T.);
#1482 = EDGE_CURVE('',#1475,#1483,#1485,.T.);
#1483 = VERTEX_POINT('',#1484);
#1484 = CARTESIAN_POINT('',(-1.,9.5,1.875));
#1485 = CIRCLE('',#1486,1.875);
#1486 = AXIS2_PLACEMENT_3D('',#1487,#1488,#1489);
#1487 = CARTESIAN_POINT('',(-1.,9.5,-1.06581410364E-14));
#1488 = DIRECTION('',(0.,1.,-1.110223024625E-15));
#1489 = DIRECTION('',(1.,0.,0.));
#1490 = ORIENTED_EDGE('',*,*,#1491,.F.);
#1491 = EDGE_CURVE('',#1306,#1483,#1492,.T.);
#1492 = LINE('',#1493,#1494);
#1493 = CARTESIAN_POINT('',(-1.,1.5,1.875));
#1494 = VECTOR('',#1495,1.);
#1495 = DIRECTION('',(0.,1.,-1.110223024625E-15));
#1496 = ORIENTED_EDGE('',*,*,#1313,.F.);
#1497 = ORIENTED_EDGE('',*,*,#1338,.F.);
#1498 = CYLINDRICAL_SURFACE('',#1499,1.875);
#1499 = AXIS2_PLACEMENT_3D('',#1500,#1501,#1502);
#1500 = CARTESIAN_POINT('',(-1.,1.5,-1.665334536938E-15));
#1501 = DIRECTION('',(0.,-1.,1.110223024625E-15));
#1502 = DIRECTION('',(1.,0.,0.));
#1503 = ADVANCED_FACE('',(#1504),#1522,.F.);
#1504 = FACE_BOUND('',#1505,.F.);
#1505 = EDGE_LOOP('',(#1506,#1507,#1515,#1521));
#1506 = ORIENTED_EDGE('',*,*,#1491,.T.);
#1507 = ORIENTED_EDGE('',*,*,#1508,.T.);
#1508 = EDGE_CURVE('',#1483,#1509,#1511,.T.);
#1509 = VERTEX_POINT('',#1510);
#1510 = CARTESIAN_POINT('',(1.,9.5,1.875));
#1511 = LINE('',#1512,#1513);
#1512 = CARTESIAN_POINT('',(-1.,9.5,1.875));
#1513 = VECTOR('',#1514,1.);
#1514 = DIRECTION('',(1.,0.,0.));
#1515 = ORIENTED_EDGE('',*,*,#1516,.F.);
#1516 = EDGE_CURVE('',#1297,#1509,#1517,.T.);
#1517 = LINE('',#1518,#1519);
#1518 = CARTESIAN_POINT('',(1.,1.5,1.875));
#1519 = VECTOR('',#1520,1.);
#1520 = DIRECTION('',(0.,1.,-1.110223024625E-15));
#1521 = ORIENTED_EDGE('',*,*,#1305,.F.);
#1522 = PLANE('',#1523);
#1523 = AXIS2_PLACEMENT_3D('',#1524,#1525,#1526);
#1524 = CARTESIAN_POINT('',(-1.,1.5,1.875));
#1525 = DIRECTION('',(0.,-1.110223024625E-15,-1.));
#1526 = DIRECTION('',(1.,0.,0.));
#1527 = ADVANCED_FACE('',(#1528),#1548,.T.);
#1528 = FACE_BOUND('',#1529,.F.);
#1529 = EDGE_LOOP('',(#1530,#1531,#1540,#1546,#1547));
#1530 = ORIENTED_EDGE('',*,*,#1516,.T.);
#1531 = ORIENTED_EDGE('',*,*,#1532,.T.);
#1532 = EDGE_CURVE('',#1509,#1533,#1535,.T.);
#1533 = VERTEX_POINT('',#1534);
#1534 = CARTESIAN_POINT('',(1.,9.5,-1.875));
#1535 = CIRCLE('',#1536,1.875);
#1536 = AXIS2_PLACEMENT_3D('',#1537,#1538,#1539);
#1537 = CARTESIAN_POINT('',(1.,9.5,-1.06581410364E-14));
#1538 = DIRECTION('',(0.,1.,-1.110223024625E-15));
#1539 = DIRECTION('',(1.,0.,0.));
#1540 = ORIENTED_EDGE('',*,*,#1541,.F.);
#1541 = EDGE_CURVE('',#1329,#1533,#1542,.T.);
#1542 = LINE('',#1543,#1544);
#1543 = CARTESIAN_POINT('',(1.,1.5,-1.875));
#1544 = VECTOR('',#1545,1.);
#1545 = DIRECTION('',(0.,1.,-1.110223024625E-15));
#1546 = ORIENTED_EDGE('',*,*,#1328,.F.);
#1547 = ORIENTED_EDGE('',*,*,#1296,.F.);
#1548 = CYLINDRICAL_SURFACE('',#1549,1.875);
#1549 = AXIS2_PLACEMENT_3D('',#1550,#1551,#1552);
#1550 = CARTESIAN_POINT('',(1.,1.5,-1.665334536938E-15));
#1551 = DIRECTION('',(0.,-1.,1.110223024625E-15));
#1552 = DIRECTION('',(1.,0.,0.));
#1553 = ADVANCED_FACE('',(#1554),#1565,.F.);
#1554 = FACE_BOUND('',#1555,.F.);
#1555 = EDGE_LOOP('',(#1556,#1557,#1563,#1564));
#1556 = ORIENTED_EDGE('',*,*,#1541,.T.);
#1557 = ORIENTED_EDGE('',*,*,#1558,.T.);
#1558 = EDGE_CURVE('',#1533,#1475,#1559,.T.);
#1559 = LINE('',#1560,#1561);
#1560 = CARTESIAN_POINT('',(1.,9.5,-1.875));
#1561 = VECTOR('',#1562,1.);
#1562 = DIRECTION('',(-1.,-0.,0.));
#1563 = ORIENTED_EDGE('',*,*,#1474,.F.);
#1564 = ORIENTED_EDGE('',*,*,#1347,.F.);
#1565 = PLANE('',#1566);
#1566 = AXIS2_PLACEMENT_3D('',#1567,#1568,#1569);
#1567 = CARTESIAN_POINT('',(1.,1.5,-1.875));
#1568 = DIRECTION('',(0.,1.110223024625E-15,1.));
#1569 = DIRECTION('',(-1.,0.,-0.));
#1570 = ADVANCED_FACE('',(#1571),#1598,.T.);
#1571 = FACE_BOUND('',#1572,.F.);
#1572 = EDGE_LOOP('',(#1573,#1581,#1590,#1596,#1597));
#1573 = ORIENTED_EDGE('',*,*,#1574,.T.);
#1574 = EDGE_CURVE('',#1380,#1575,#1577,.T.);
#1575 = VERTEX_POINT('',#1576);
#1576 = CARTESIAN_POINT('',(1.,-28.5,-1.875));
#1577 = LINE('',#1578,#1579);
#1578 = CARTESIAN_POINT('',(1.,-20.5,-1.875));
#1579 = VECTOR('',#1580,1.);
#1580 = DIRECTION('',(0.,-1.,1.550223024625E-15));
#1581 = ORIENTED_EDGE('',*,*,#1582,.T.);
#1582 = EDGE_CURVE('',#1575,#1583,#1585,.T.);
#1583 = VERTEX_POINT('',#1584);
#1584 = CARTESIAN_POINT('',(1.,-28.5,1.875));
#1585 = CIRCLE('',#1586,1.875);
#1586 = AXIS2_PLACEMENT_3D('',#1587,#1588,#1589);
#1587 = CARTESIAN_POINT('',(1.,-28.5,3.552713678801E-14));
#1588 = DIRECTION('',(0.,-1.,1.110223024625E-15));
#1589 = DIRECTION('',(1.,0.,0.));
#1590 = ORIENTED_EDGE('',*,*,#1591,.F.);
#1591 = EDGE_CURVE('',#1414,#1583,#1592,.T.);
#1592 = LINE('',#1593,#1594);
#1593 = CARTESIAN_POINT('',(1.,-20.5,1.875));
#1594 = VECTOR('',#1595,1.);
#1595 = DIRECTION('',(0.,-1.,1.550223024625E-15));
#1596 = ORIENTED_EDGE('',*,*,#1413,.F.);
#1597 = ORIENTED_EDGE('',*,*,#1379,.F.);
#1598 = CYLINDRICAL_SURFACE('',#1599,1.875);
#1599 = AXIS2_PLACEMENT_3D('',#1600,#1601,#1602);
#1600 = CARTESIAN_POINT('',(1.,-20.5,2.730957200482E-14));
#1601 = DIRECTION('',(0.,1.,-1.550223024625E-15));
#1602 = DIRECTION('',(1.,0.,0.));
#1603 = ADVANCED_FACE('',(#1604),#1622,.F.);
#1604 = FACE_BOUND('',#1605,.F.);
#1605 = EDGE_LOOP('',(#1606,#1614,#1620,#1621));
#1606 = ORIENTED_EDGE('',*,*,#1607,.T.);
#1607 = EDGE_CURVE('',#1390,#1608,#1610,.T.);
#1608 = VERTEX_POINT('',#1609);
#1609 = CARTESIAN_POINT('',(-1.,-28.5,-1.875));
#1610 = LINE('',#1611,#1612);
#1611 = CARTESIAN_POINT('',(-1.,-20.5,-1.875));
#1612 = VECTOR('',#1613,1.);
#1613 = DIRECTION('',(0.,-1.,1.550223024625E-15));
#1614 = ORIENTED_EDGE('',*,*,#1615,.T.);
#1615 = EDGE_CURVE('',#1608,#1575,#1616,.T.);
#1616 = LINE('',#1617,#1618);
#1617 = CARTESIAN_POINT('',(-1.,-28.5,-1.875));
#1618 = VECTOR('',#1619,1.);
#1619 = DIRECTION('',(1.,0.,0.));
#1620 = ORIENTED_EDGE('',*,*,#1574,.F.);
#1621 = ORIENTED_EDGE('',*,*,#1398,.F.);
#1622 = PLANE('',#1623);
#1623 = AXIS2_PLACEMENT_3D('',#1624,#1625,#1626);
#1624 = CARTESIAN_POINT('',(-1.,-20.5,-1.875));
#1625 = DIRECTION('',(0.,1.550223024625E-15,1.));
#1626 = DIRECTION('',(1.,0.,0.));
#1627 = ADVANCED_FACE('',(#1628),#1648,.T.);
#1628 = FACE_BOUND('',#1629,.F.);
#1629 = EDGE_LOOP('',(#1630,#1638,#1645,#1646,#1647));
#1630 = ORIENTED_EDGE('',*,*,#1631,.T.);
#1631 = EDGE_CURVE('',#1423,#1632,#1634,.T.);
#1632 = VERTEX_POINT('',#1633);
#1633 = CARTESIAN_POINT('',(-1.,-28.5,1.875));
#1634 = LINE('',#1635,#1636);
#1635 = CARTESIAN_POINT('',(-1.,-20.5,1.875));
#1636 = VECTOR('',#1637,1.);
#1637 = DIRECTION('',(0.,-1.,1.550223024625E-15));
#1638 = ORIENTED_EDGE('',*,*,#1639,.T.);
#1639 = EDGE_CURVE('',#1632,#1608,#1640,.T.);
#1640 = CIRCLE('',#1641,1.875);
#1641 = AXIS2_PLACEMENT_3D('',#1642,#1643,#1644);
#1642 = CARTESIAN_POINT('',(-1.,-28.5,3.552713678801E-14));
#1643 = DIRECTION('',(0.,-1.,1.110223024625E-15));
#1644 = DIRECTION('',(1.,0.,0.));
#1645 = ORIENTED_EDGE('',*,*,#1607,.F.);
#1646 = ORIENTED_EDGE('',*,*,#1389,.F.);
#1647 = ORIENTED_EDGE('',*,*,#1430,.F.);
#1648 = CYLINDRICAL_SURFACE('',#1649,1.875);
#1649 = AXIS2_PLACEMENT_3D('',#1650,#1651,#1652);
#1650 = CARTESIAN_POINT('',(-1.,-20.5,2.730957200482E-14));
#1651 = DIRECTION('',(0.,1.,-1.550223024625E-15));
#1652 = DIRECTION('',(1.,0.,0.));
#1653 = ADVANCED_FACE('',(#1654),#1665,.F.);
#1654 = FACE_BOUND('',#1655,.F.);
#1655 = EDGE_LOOP('',(#1656,#1657,#1663,#1664));
#1656 = ORIENTED_EDGE('',*,*,#1591,.T.);
#1657 = ORIENTED_EDGE('',*,*,#1658,.T.);
#1658 = EDGE_CURVE('',#1583,#1632,#1659,.T.);
#1659 = LINE('',#1660,#1661);
#1660 = CARTESIAN_POINT('',(1.,-28.5,1.875));
#1661 = VECTOR('',#1662,1.);
#1662 = DIRECTION('',(-1.,0.,0.));
#1663 = ORIENTED_EDGE('',*,*,#1631,.F.);
#1664 = ORIENTED_EDGE('',*,*,#1422,.F.);
#1665 = PLANE('',#1666);
#1666 = AXIS2_PLACEMENT_3D('',#1667,#1668,#1669);
#1667 = CARTESIAN_POINT('',(1.,-20.5,1.875));
#1668 = DIRECTION('',(0.,-1.550223024625E-15,-1.));
#1669 = DIRECTION('',(-1.,0.,0.));
#1670 = ADVANCED_FACE('',(#1671),#1677,.T.);
#1671 = FACE_BOUND('',#1672,.T.);
#1672 = EDGE_LOOP('',(#1673,#1674,#1675,#1676));
#1673 = ORIENTED_EDGE('',*,*,#1482,.T.);
#1674 = ORIENTED_EDGE('',*,*,#1508,.T.);
#1675 = ORIENTED_EDGE('',*,*,#1532,.T.);
#1676 = ORIENTED_EDGE('',*,*,#1558,.T.);
#1677 = PLANE('',#1678);
#1678 = AXIS2_PLACEMENT_3D('',#1679,#1680,#1681);
#1679 = CARTESIAN_POINT('',(3.1E-16,9.5,-1.06581410364E-14));
#1680 = DIRECTION('',(0.,1.,-8.702230246252E-16));
#1681 = DIRECTION('',(0.,8.702230246252E-16,1.));
#1682 = ADVANCED_FACE('',(#1683),#1689,.F.);
#1683 = FACE_BOUND('',#1684,.T.);
#1684 = EDGE_LOOP('',(#1685,#1686,#1687,#1688));
#1685 = ORIENTED_EDGE('',*,*,#1639,.T.);
#1686 = ORIENTED_EDGE('',*,*,#1615,.T.);
#1687 = ORIENTED_EDGE('',*,*,#1582,.T.);
#1688 = ORIENTED_EDGE('',*,*,#1658,.T.);
#1689 = PLANE('',#1690);
#1690 = AXIS2_PLACEMENT_3D('',#1691,#1692,#1693);
#1691 = CARTESIAN_POINT('',(3.1E-16,-28.5,3.641531520771E-14));
#1692 = DIRECTION('',(0.,1.,-1.110223024625E-15));
#1693 = DIRECTION('',(0.,1.110223024625E-15,1.));
#1694 = ( GEOMETRIC_REPRESENTATION_CONTEXT(3) 
GLOBAL_UNCERTAINTY_ASSIGNED_CONTEXT((#1698)) 
GLOBAL_UNIT_ASSIGNED_CONTEXT((#1695,#1696,#1697)) REPRESENTATION_CONTEXT
('Context #1','3D Context with UNIT and UNCERTAINTY') );
#1695 = ( LENGTH_UNIT() NAMED_UNIT(*) SI_UNIT(.MILLI.,.METRE.) );
#1696 = ( NAMED_UNIT(*) PLANE_ANGLE_UNIT() SI_UNIT($,.RADIAN.) );
#1697 = ( NAMED_UNIT(*) SI_UNIT($,.STERADIAN.) SOLID_ANGLE_UNIT() );
#1698 = UNCERTAINTY_MEASURE_WITH_UNIT(LENGTH_MEASURE(2.E-06),#1695,
  'distance_accuracy_value','confusion accuracy');
#1699 = PRODUCT_RELATED_PRODUCT_CATEGORY('part',$,(#7));
#1700 = MECHANICAL_DESIGN_GEOMETRIC_PRESENTATION_REPRESENTATION('',(
    #1701),#1694);
#1701 = STYLED_ITEM('color',(#1702),#15);
#1702 = PRESENTATION_STYLE_ASSIGNMENT((#1703,#1709));
#1703 = SURFACE_STYLE_USAGE(.BOTH.,#1704);
#1704 = SURFACE_SIDE_STYLE('',(#1705));
#1705 = SURFACE_STYLE_FILL_AREA(#1706);
#1706 = FILL_AREA_STYLE('',(#1707));
#1707 = FILL_AREA_STYLE_COLOUR('',#1708);
#1708 = DRAUGHTING_PRE_DEFINED_COLOUR('yellow');
#1709 = CURVE_STYLE('',#1710,POSITIVE_LENGTH_MEASURE(0.1),#1711);
#1710 = DRAUGHTING_PRE_DEFINED_CURVE_FONT('continuous');
#1711 = COLOUR_RGB('',9.803921802644E-02,9.803921802644E-02,
  9.803921802644E-02);
ENDSEC;
END-ISO-10303-21;
