ISO-10303-21;
HEADER;
/* Generated by software containing ST-Developer
 * from STEP Tools, Inc. (www.steptools.com) 
 */

FILE_DESCRIPTION(
/* description */ (''),
/* implementation_level */ '2;1');

FILE_NAME(
/* name */ 'PushButtonSwitchButton.step',
/* time_stamp */ '2026-05-28T14:41:55+05:30',
/* author */ (''),
/* organization */ (''),
/* preprocessor_version */ 'ST-DEVELOPER v20.1',
/* originating_system */ 'Autodesk Translation Framework v15.8.0.0',
/* authorisation */ '');

FILE_SCHEMA (('AUTOMOTIVE_DESIGN { 1 0 10303 214 3 1 1 }'));
ENDSEC;

DATA;
#10=MECHANICAL_DESIGN_GEOMETRIC_PRESENTATION_REPRESENTATION('',(#13),#147);
#11=SHAPE_REPRESENTATION_RELATIONSHIP('SRR','None',#154,#12);
#12=ADVANCED_BREP_SHAPE_REPRESENTATION('',(#14),#146);
#13=STYLED_ITEM('',(#165),#14);
#14=MANIFOLD_SOLID_BREP('Body2',#74);
#15=CYLINDRICAL_SURFACE('',#98,5.1);
#16=LINE('',#139,#18);
#17=LINE('',#143,#19);
#18=VECTOR('',#117,5.);
#19=VECTOR('',#124,5.1);
#20=CONICAL_SURFACE('',#95,5.,0.0333209958782472);
#21=TOROIDAL_SURFACE('',#90,4.41638896600655,0.5);
#22=FACE_OUTER_BOUND('',#27,.T.);
#23=FACE_OUTER_BOUND('',#28,.T.);
#24=FACE_OUTER_BOUND('',#29,.T.);
#25=FACE_OUTER_BOUND('',#30,.T.);
#26=FACE_OUTER_BOUND('',#31,.T.);
#27=EDGE_LOOP('',(#51));
#28=EDGE_LOOP('',(#52,#53,#54,#55,#56));
#29=EDGE_LOOP('',(#57,#58,#59,#60,#61));
#30=EDGE_LOOP('',(#62));
#31=EDGE_LOOP('',(#63,#64,#65,#66));
#32=CIRCLE('',#89,5.1);
#33=CIRCLE('',#91,4.91611141949612);
#34=CIRCLE('',#92,0.5);
#35=CIRCLE('',#93,4.41638896600655);
#36=CIRCLE('',#94,4.91611141949612);
#37=CIRCLE('',#96,5.1);
#38=VERTEX_POINT('',#127);
#39=VERTEX_POINT('',#130);
#40=VERTEX_POINT('',#131);
#41=VERTEX_POINT('',#133);
#42=VERTEX_POINT('',#138);
#43=EDGE_CURVE('',#38,#38,#32,.T.);
#44=EDGE_CURVE('',#39,#40,#33,.T.);
#45=EDGE_CURVE('',#40,#41,#34,.T.);
#46=EDGE_CURVE('',#41,#41,#35,.T.);
#47=EDGE_CURVE('',#40,#39,#36,.T.);
#48=EDGE_CURVE('',#39,#42,#16,.T.);
#49=EDGE_CURVE('',#42,#42,#37,.T.);
#50=EDGE_CURVE('',#42,#38,#17,.T.);
#51=ORIENTED_EDGE('',*,*,#43,.F.);
#52=ORIENTED_EDGE('',*,*,#44,.T.);
#53=ORIENTED_EDGE('',*,*,#45,.T.);
#54=ORIENTED_EDGE('',*,*,#46,.T.);
#55=ORIENTED_EDGE('',*,*,#45,.F.);
#56=ORIENTED_EDGE('',*,*,#47,.T.);
#57=ORIENTED_EDGE('',*,*,#44,.F.);
#58=ORIENTED_EDGE('',*,*,#48,.T.);
#59=ORIENTED_EDGE('',*,*,#49,.T.);
#60=ORIENTED_EDGE('',*,*,#48,.F.);
#61=ORIENTED_EDGE('',*,*,#47,.F.);
#62=ORIENTED_EDGE('',*,*,#46,.F.);
#63=ORIENTED_EDGE('',*,*,#49,.F.);
#64=ORIENTED_EDGE('',*,*,#50,.T.);
#65=ORIENTED_EDGE('',*,*,#43,.T.);
#66=ORIENTED_EDGE('',*,*,#50,.F.);
#67=PLANE('',#88);
#68=PLANE('',#97);
#69=ADVANCED_FACE('',(#22),#67,.F.);
#70=ADVANCED_FACE('',(#23),#21,.T.);
#71=ADVANCED_FACE('',(#24),#20,.T.);
#72=ADVANCED_FACE('',(#25),#68,.T.);
#73=ADVANCED_FACE('',(#26),#15,.T.);
#74=CLOSED_SHELL('',(#69,#70,#71,#72,#73));
#75=DERIVED_UNIT_ELEMENT(#77,1.);
#76=DERIVED_UNIT_ELEMENT(#149,-3.);
#77=(
MASS_UNIT()
NAMED_UNIT(*)
SI_UNIT(.KILO.,.GRAM.)
);
#78=DERIVED_UNIT((#75,#76));
#79=MEASURE_REPRESENTATION_ITEM('density measure',
POSITIVE_RATIO_MEASURE(7850.),#78);
#80=PROPERTY_DEFINITION_REPRESENTATION(#85,#82);
#81=PROPERTY_DEFINITION_REPRESENTATION(#86,#83);
#82=REPRESENTATION('material name',(#84),#146);
#83=REPRESENTATION('density',(#79),#146);
#84=DESCRIPTIVE_REPRESENTATION_ITEM('Steel','Steel');
#85=PROPERTY_DEFINITION('material property','material name',#156);
#86=PROPERTY_DEFINITION('material property','density of part',#156);
#87=AXIS2_PLACEMENT_3D('',#125,#99,#100);
#88=AXIS2_PLACEMENT_3D('',#126,#101,#102);
#89=AXIS2_PLACEMENT_3D('',#128,#103,#104);
#90=AXIS2_PLACEMENT_3D('',#129,#105,#106);
#91=AXIS2_PLACEMENT_3D('',#132,#107,#108);
#92=AXIS2_PLACEMENT_3D('',#134,#109,#110);
#93=AXIS2_PLACEMENT_3D('',#135,#111,#112);
#94=AXIS2_PLACEMENT_3D('',#136,#113,#114);
#95=AXIS2_PLACEMENT_3D('',#137,#115,#116);
#96=AXIS2_PLACEMENT_3D('',#140,#118,#119);
#97=AXIS2_PLACEMENT_3D('',#141,#120,#121);
#98=AXIS2_PLACEMENT_3D('',#142,#122,#123);
#99=DIRECTION('axis',(0.,0.,1.));
#100=DIRECTION('refdir',(1.,0.,0.));
#101=DIRECTION('center_axis',(0.,0.,1.));
#102=DIRECTION('ref_axis',(1.,0.,0.));
#103=DIRECTION('center_axis',(0.,0.,1.));
#104=DIRECTION('ref_axis',(1.,0.,0.));
#105=DIRECTION('center_axis',(0.,0.,-1.));
#106=DIRECTION('ref_axis',(-1.,0.,0.));
#107=DIRECTION('center_axis',(0.,0.,1.));
#108=DIRECTION('ref_axis',(1.,6.12323399573677E-17,0.));
#109=DIRECTION('center_axis',(-1.22464679914735E-16,-1.,0.));
#110=DIRECTION('ref_axis',(1.,-1.22464679914735E-16,0.));
#111=DIRECTION('center_axis',(0.,0.,-1.));
#112=DIRECTION('ref_axis',(1.,0.,0.));
#113=DIRECTION('center_axis',(0.,0.,1.));
#114=DIRECTION('ref_axis',(1.,6.12323399573677E-17,0.));
#115=DIRECTION('center_axis',(0.,0.,-1.));
#116=DIRECTION('ref_axis',(1.,0.,0.));
#117=DIRECTION('',(-0.0333148302326385,-4.07989002085382E-18,-0.999444906979154));
#118=DIRECTION('center_axis',(0.,0.,1.));
#119=DIRECTION('ref_axis',(1.,0.,0.));
#120=DIRECTION('center_axis',(0.,0.,1.));
#121=DIRECTION('ref_axis',(1.,0.,0.));
#122=DIRECTION('center_axis',(0.,0.,1.));
#123=DIRECTION('ref_axis',(1.,0.,0.));
#124=DIRECTION('',(0.,0.,-1.));
#125=CARTESIAN_POINT('',(0.,0.,0.));
#126=CARTESIAN_POINT('Origin',(0.,0.,10.5));
#127=CARTESIAN_POINT('',(-5.1,6.2456986756515E-16,10.5));
#128=CARTESIAN_POINT('Origin',(0.,0.,10.5));
#129=CARTESIAN_POINT('Origin',(0.,0.,20.3));
#130=CARTESIAN_POINT('',(-4.91611141949612,-1.20410002282754E-15,20.3166574151163));
#131=CARTESIAN_POINT('',(4.91611141949612,-6.02050011413768E-16,20.3166574151163));
#132=CARTESIAN_POINT('Origin',(0.,-3.01025005706884E-16,20.3166574151163));
#133=CARTESIAN_POINT('',(4.41638896600655,-5.4085166110096E-16,20.8));
#134=CARTESIAN_POINT('Origin',(4.41638896600655,-5.4085166110096E-16,20.3));
#135=CARTESIAN_POINT('Origin',(0.,0.,20.8));
#136=CARTESIAN_POINT('Origin',(0.,-3.01025005706884E-16,20.3166574151163));
#137=CARTESIAN_POINT('Origin',(0.,0.,17.8));
#138=CARTESIAN_POINT('',(-5.1,-6.2456986756515E-16,14.8));
#139=CARTESIAN_POINT('',(-5.,-6.12323399573677E-16,17.8));
#140=CARTESIAN_POINT('Origin',(0.,0.,14.8));
#141=CARTESIAN_POINT('Origin',(0.,0.,20.8));
#142=CARTESIAN_POINT('Origin',(0.,0.,9.5));
#143=CARTESIAN_POINT('',(-5.1,-6.2456986756515E-16,9.5));
#144=UNCERTAINTY_MEASURE_WITH_UNIT(LENGTH_MEASURE(0.01),#148,
'DISTANCE_ACCURACY_VALUE',
'Maximum model space distance between geometric entities at asserted c
onnectivities');
#145=UNCERTAINTY_MEASURE_WITH_UNIT(LENGTH_MEASURE(0.01),#148,
'DISTANCE_ACCURACY_VALUE',
'Maximum model space distance between geometric entities at asserted c
onnectivities');
#146=(
GEOMETRIC_REPRESENTATION_CONTEXT(3)
GLOBAL_UNCERTAINTY_ASSIGNED_CONTEXT((#144))
GLOBAL_UNIT_ASSIGNED_CONTEXT((#148,#150,#151))
REPRESENTATION_CONTEXT('','3D')
);
#147=(
GEOMETRIC_REPRESENTATION_CONTEXT(3)
GLOBAL_UNCERTAINTY_ASSIGNED_CONTEXT((#145))
GLOBAL_UNIT_ASSIGNED_CONTEXT((#148,#150,#151))
REPRESENTATION_CONTEXT('','3D')
);
#148=(
LENGTH_UNIT()
NAMED_UNIT(*)
SI_UNIT(.MILLI.,.METRE.)
);
#149=(
LENGTH_UNIT()
NAMED_UNIT(*)
SI_UNIT($,.METRE.)
);
#150=(
NAMED_UNIT(*)
PLANE_ANGLE_UNIT()
SI_UNIT($,.RADIAN.)
);
#151=(
NAMED_UNIT(*)
SI_UNIT($,.STERADIAN.)
SOLID_ANGLE_UNIT()
);
#152=SHAPE_DEFINITION_REPRESENTATION(#153,#154);
#153=PRODUCT_DEFINITION_SHAPE('',$,#156);
#154=SHAPE_REPRESENTATION('',(#87),#146);
#155=PRODUCT_DEFINITION_CONTEXT('part definition',#160,'design');
#156=PRODUCT_DEFINITION('PushButtonSwitch','PushButtonSwitch v3',#157,#155);
#157=PRODUCT_DEFINITION_FORMATION('',$,#162);
#158=PRODUCT_RELATED_PRODUCT_CATEGORY('PushButtonSwitch v3',
'PushButtonSwitch v3',(#162));
#159=APPLICATION_PROTOCOL_DEFINITION('international standard',
'automotive_design',2009,#160);
#160=APPLICATION_CONTEXT(
'Core Data for Automotive Mechanical Design Process');
#161=PRODUCT_CONTEXT('part definition',#160,'mechanical');
#162=PRODUCT('PushButtonSwitch','PushButtonSwitch v3',$,(#161));
#163=PRESENTATION_STYLE_ASSIGNMENT((#166));
#164=PRESENTATION_STYLE_ASSIGNMENT((#167));
#165=PRESENTATION_STYLE_ASSIGNMENT((#168));
#166=SURFACE_STYLE_USAGE(.BOTH.,#169);
#167=SURFACE_STYLE_USAGE(.BOTH.,#170);
#168=SURFACE_STYLE_USAGE(.BOTH.,#171);
#169=SURFACE_SIDE_STYLE('',(#172));
#170=SURFACE_SIDE_STYLE('',(#173));
#171=SURFACE_SIDE_STYLE('',(#174));
#172=SURFACE_STYLE_FILL_AREA(#175);
#173=SURFACE_STYLE_FILL_AREA(#176);
#174=SURFACE_STYLE_FILL_AREA(#177);
#175=FILL_AREA_STYLE('Steel - Satin',(#178));
#176=FILL_AREA_STYLE('Powder Coat (Black)',(#179));
#177=FILL_AREA_STYLE('Powder Coat - Rough (Red)',(#180));
#178=FILL_AREA_STYLE_COLOUR('Steel - Satin',#181);
#179=FILL_AREA_STYLE_COLOUR('Powder Coat (Black)',#182);
#180=FILL_AREA_STYLE_COLOUR('Powder Coat - Rough (Red)',#183);
#181=COLOUR_RGB('Steel - Satin',0.627450980392157,0.627450980392157,0.627450980392157);
#182=COLOUR_RGB('Powder Coat (Black)',0.0980392156862745,0.0980392156862745,
0.0980392156862745);
#183=COLOUR_RGB('Powder Coat - Rough (Red)',0.768627450980392,0.207843137254902,
0.152941176470588);
ENDSEC;
END-ISO-10303-21;
